SplineFontDB: 3.0
FontName: Thabit
FullName: Thabit
FamilyName: Regular
Weight: Regular
Copyright: Typeface and data (C) 2008-2010, Khaled Hosny.\nThis font is distributed under the terms of OFL license.
Version: 0.02
ItalicAngle: 0
UnderlinePosition: -108
UnderlineWidth: 119
Ascent: 819
Descent: 205
LayerCount: 2
Layer: 0 1 "Back"  1
Layer: 1 1 "Fore"  0
XUID: [1021 117 962472906 5711600]
FSType: 0
OS2Version: 0
OS2_WeightWidthSlopeOnly: 0
OS2_UseTypoMetrics: 1
CreationTime: 25200
ModificationTime: 1276640170
PfmFamily: 49
TTFWeight: 500
TTFWidth: 5
LineGap: 100
VLineGap: 0
OS2TypoAscent: 819
OS2TypoAOffset: 0
OS2TypoDescent: 0
OS2TypoDOffset: 0
OS2TypoLinegap: 900
OS2WinAscent: 983
OS2WinAOffset: 0
OS2WinDescent: 528
OS2WinDOffset: 0
HheadAscent: 983
HheadAOffset: 0
HheadDescent: -244
HheadDOffset: 0
OS2Vendor: 'AE  '
Lookup: 260 1 0 "'mark' Mark to base in Arabic lookup 0"  {"'mark' Mark to base in Arabic lookup 0 subtable"  } ['mark' ('arab' <'dflt' > ) ]
Lookup: 261 1 0 "'mark' Mark to ligature in Arabic lookup 1"  {"'mark' Mark to ligature in Arabic lookup 1 subtable"  } ['mark' ('arab' <'dflt' > ) ]
DEI: 91125
TtTable: prep
PUSHW_1
 7
CALL
PUSHW_1
 640
NPUSHB
 228
 207
 254
 3
 206
 75
 3
 205
 254
 3
 204
 10
 3
 201
 14
 3
 200
 50
 3
 199
 187
 3
 198
 187
 3
 197
 250
 3
 196
 150
 3
 194
 254
 3
 193
 254
 3
 192
 191
 71
 5
 192
 125
 3
 191
 71
 3
 190
 48
 3
 189
 125
 3
 188
 11
 3
 187
 254
 3
 186
 254
 3
 185
 254
 3
 184
 15
 3
 182
 10
 3
 181
 21
 3
 180
 38
 3
 179
 10
 3
 179
 64
 4
 178
 177
 26
 5
 177
 26
 3
 176
 175
 26
 5
 176
 30
 3
 175
 26
 3
 174
 159
 13
 5
 174
 55
 3
 173
 159
 13
 5
 173
 33
 3
 172
 55
 3
 171
 11
 3
 170
 169
 17
 5
 170
 50
 3
 169
 17
 3
 169
 128
 4
 168
 46
 3
 167
 154
 30
 5
 167
 254
 3
 166
 165
 18
 5
 166
 29
 3
 165
 18
 3
 164
 163
 43
 5
 164
 187
 3
 163
 116
 29
 5
 163
 43
 3
 162
 116
 29
 5
 162
 187
 3
 161
 160
 26
 5
 161
 254
 3
 160
 26
 3
 159
 13
 3
 158
 157
 187
 5
 158
 254
 3
 157

StartChar: arabiccomma
Encoding: 1548 1548 1
Width: 284
GlyphClass: 2
Flags: W
LayerCount: 2
Fore
SplineSet
213 93 m 256,0,1
 213 71 213 71 198 55 c 128,-1,2
 183 39 183 39 159 39 c 0,3,4
 122 39 122 39 98 66 c 0,5,6
 72 96 72 96 72 147 c 0,7,8
 72 196 72 196 98.5 244.5 c 128,-1,9
 125 293 125 293 164 320 c 1,10,-1
 175 308 l 1,11,12
 143 277 143 277 126.5 244.5 c 128,-1,13
 110 212 110 212 110 177 c 0,14,15
 110 164 110 164 114 149.5 c 128,-1,16
 118 135 118 135 123 131 c 1,17,18
 141 148 141 148 160 148 c 0,19,20
 182 148 182 148 197.5 131.5 c 128,-1,21
 213 115 213 115 213 93 c 256,0,1
EndSplineSet
Validated: 1
EndChar

StartChar: arabicsemicolon
Encoding: 1563 1563 2
Width: 284
GlyphClass: 2
Flags: W
LayerCount: 2
Fore
SplineSet
216 225 m 256,0,1
 216 203 216 203 200.5 187 c 128,-1,2
 185 171 185 171 162 171 c 0,3,4
 125 171 125 171 101 199 c 0,5,6
 75 228 75 228 75 280 c 0,7,8
 75 328 75 328 101 377 c 128,-1,9
 127 426 127 426 167 452 c 1,10,-1
 178 440 l 1,11,12
 146 410 146 410 129.5 377.5 c 128,-1,13
 113 345 113 345 113 309 c 0,14,15
 113 296 113 296 117 282 c 128,-1,16
 121 268 121 268 126 263 c 1,17,18
 143 281 143 281 163 281 c 0,19,20
 184 281 184 281 200 264 c 128,-1,21
 216 247 216 247 216 225 c 256,0,1
202 61 m 256,22,23
 202 40 202 40 187.5 25.5 c 128,-1,24
 173 11 173 11 152 11 c 256,25,26
 131 11 131 11 116.5 25.5 c 128,-1,27
 102 40 102 40 102 61 c 256,28,29
 102 82 102 82 116.5 96.5 c 128,-1,30
 131 111 131 111 152 111 c 256,31,32
 173 111 173 111 187.5 96.5 c 128,-1,33
 202 82 202 82 202 61 c 256,22,23
EndSplineSet
Validated: 1
EndChar

StartChar: arabicquestionmark
Encoding: 1567 1567 3
Width: 614
GlyphClass: 2
Flags: MW
HStem: -17 126<320 358> 244 22G<311 311> 536 50<264 346>
VStem: 437 51<445 511 445 550 445 550> 268 141<28 63> 311 50<182 244 182 282 182 282> 126 53<374 442>
LayerCount: 2
Fore
SplineSet
488 445 m 5,0,-1
 437 445 l 5,1,-1
 437 511 l 5,2,3
 372 536 372 536 321 536 c 4,4,5
 245 536 245 536 212 499.5 c 132,-1,6
 179 463 179 463 179 421 c 4,7,8
 179 394 179 394 190 372.5 c 132,-1,9
 201 351 201 351 215 338.5 c 132,-1,10
 229 326 229 326 255 314.5 c 132,-1,11
 281 303 281 303 297 298.5 c 132,-1,12
 313 294 313 294 341 287 c 4,13,14
 350 286 350 286 361 282 c 5,15,-1
 361 182 l 5,16,-1
 311 182 l 5,17,-1
 311 244 l 5,18,19
 277 253 277 253 252 262.5 c 132,-1,20
 227 272 227 272 194.5 291.5 c 132,-1,21
 162 311 162 311 144 343.5 c 132,-1,22
 126 376 126 376 126 418 c 4,23,24
 126 487 126 487 177.5 536.5 c 132,-1,25
 229 586 229 586 322 586 c 4,26,27
 350 586 350 586 377.5 581.5 c 132,-1,28
 405 577 405 577 424 571 c 132,-1,29
 443 565 443 565 488 550 c 5,30,-1
 488 445 l 5,0,-1
339 109 m 4,31,32
 368 109 368 109 388.5 90.5 c 132,-1,33
 409 72 409 72 409 46 c 4,34,35
 409 19 409 19 388.5 1 c 132,-1,36
 368 -17 368 -17 339 -17 c 132,-1,37
 310 -17 310 -17 289 1 c 132,-1,38
 268 19 268 19 268 46 c 4,39,40
 268 72 268 72 288.5 90.5 c 132,-1,41
 309 109 309 109 339 109 c 4,31,32
EndSplineSet
Validated: 1
EndChar

StartChar: hamza
Encoding: 1569 1569 4
Width: 637
GlyphClass: 2
Flags: W
AnchorPoint: "ArabicBelow" 317 -123 basechar 0
AnchorPoint: "ArabicAbove" 310 369 basechar 0
LayerCount: 2
Fore
SplineSet
242.238 87.6113 m 2,0,1
 258.694 73.5059 258.694 73.5059 285.276 65.7529 c 128,-1,2
 311.857 58 311.857 58 349 58 c 0,3,4
 367.98 58 367.98 58 418.595 70.4375 c 0,5,6
 423.845 71.7275 423.845 71.7275 431.502 73.8359 c 1,7,-1
 400.761 14.8125 l 1,8,9
 391.671 12.5264 391.671 12.5264 365.809 6.65332 c 0,10,11
 325.142 -2.58203 325.142 -2.58203 289.741 -15.9531 c 0,12,13
 267.598 -24.3174 267.598 -24.3174 256.717 -29.4375 c 2,14,-1
 194.27 -59.5957 l 1,15,16
 194.758 -53.0039 l 1,17,18
 199.083 -39.7451 199.083 -39.7451 220.857 -17.3428 c 0,19,20
 232.999 -4.85059 232.999 -4.85059 242.823 3.66504 c 2,21,-1
 259.252 17.9014 l 1,22,-1
 240.111 28.207 l 2,23,24
 227.792 34.8398 227.792 34.8398 223.839 38.3203 c 0,25,26
 210 50.5039 210 50.5039 210 68 c 0,27,28
 210 109.97 210 109.97 250.796 161.734 c 0,29,30
 292.775 215 292.775 215 336 215 c 0,31,32
 358.462 215 358.462 215 380.607 200.579 c 0,33,34
 382.898 199.087 382.898 199.087 390.785 192.131 c 1,35,-1
 361.326 143.031 l 1,36,37
 357.515 144.039 357.515 144.039 352.663 144.967 c 0,38,39
 350.069 145.463 350.069 145.463 349.062 145.707 c 0,40,41
 318.915 153 318.915 153 300 153 c 0,42,43
 288.738 153 288.738 153 269.631 137.714 c 2,44,-1
 269.198 137.369 l 1,45,-1
 268.784 136.998 l 1,46,-1
 229.939 98.1533 l 1,47,-1
 242.238 87.6113 l 2,0,1
EndSplineSet
Validated: 1
EndChar

StartChar: alefwithmaddaabove
Encoding: 1570 1570 5
Width: 637
GlyphClass: 2
Flags: W
AnchorPoint: "ArabicBelow" 345 -137 basechar 0
AnchorPoint: "ArabicAbove" 295 810 basechar 0
LayerCount: 2
Fore
SplineSet
444 740 m 1,0,1
 443 737 443 737 425 673 c 0,2,-1
 407 608 l 1,3,4
 407 617 407 617 405 640 c 0,5,6
 402 662 402 662 399 671 c 1,7,8
 361 641 361 641 310 630 c 0,9,10
 278 623 278 623 238 623 c 2,11,-1
 224 623 l 1,12,-1
 219 623 l 1,13,14
 216 619 216 619 208 599 c 0,15,16
 205 592 205 592 200 579 c 1,17,18
 199 580 199 580 196 580 c 0,19,20
 193 581 193 581 192 581 c 0,21,22
 188 581 188 581 187 579 c 1,23,-1
 187 713 l 1,24,25
 204 701 204 701 229 695 c 0,26,27
 253 689 253 689 279 689 c 0,28,29
 315 689 315 689 359 704 c 0,30,31
 401 722 401 722 444 740 c 1,0,1
EndSplineSet
Refer: 10 1575 S 1 0 0 1 1.00015 -4.29153e-06 2
Validated: 1
EndChar

StartChar: alefwithhamzaabove
Encoding: 1571 1571 6
Width: 637
GlyphClass: 2
Flags: W
AnchorPoint: "ArabicBelow" 362 -123 basechar 0
AnchorPoint: "ArabicAbove" 308 853 basechar 0
LayerCount: 2
Fore
SplineSet
376 602 m 1,0,1
 375 602 375 602 348 588 c 0,2,3
 309 567 309 567 290 555 c 0,4,5
 255 534 255 534 241 519 c 1,6,-1
 241 536 l 2,7,8
 241 545 241 545 251 567 c 0,9,10
 254 575 254 575 261 588 c 1,11,12
 250 593 250 593 245 602 c 0,13,14
 235 615 235 615 235 634 c 0,15,16
 235 669 235 669 266 715 c 0,17,18
 300 765 300 765 334 765 c 0,19,20
 349 765 349 765 356 755 c 128,-1,21
 363 745 363 745 363 730 c 0,22,23
 363 717 363 717 358 704 c 128,-1,24
 353 691 353 691 348 688 c 1,25,26
 344 693 344 693 340 695 c 0,27,28
 332 702 332 702 321 702 c 0,29,30
 307 702 307 702 284 685 c 128,-1,31
 261 668 261 668 261 654 c 0,32,33
 261 646 261 646 280.5 640 c 128,-1,34
 300 634 300 634 317 634 c 0,35,36
 332 634 332 634 362 650 c 0,37,38
 380 660 380 660 398 671 c 1,39,-1
 376 602 l 1,0,1
386.993 7.94043 m 1,40,-1
 367.737 -12.5176 l 1,41,42
 365.684 23.6982 365.684 23.6982 360.92 69.5391 c 0,43,44
 351.207 163.008 351.207 163.008 333.779 263.564 c 0,45,46
 314.626 374.076 314.626 374.076 291.348 441.707 c 1,47,-1
 335.27 523.071 l 1,48,49
 354.571 473.285 354.571 473.285 367.118 374.118 c 0,50,51
 378.887 281.104 378.887 281.104 384.011 141.448 c 0,52,53
 386.854 63.916 386.854 63.916 386.993 7.94043 c 1,40,-1
EndSplineSet
Validated: 1
EndChar

StartChar: wawwithhamzaabove
Encoding: 1572 1572 7
Width: 637
GlyphClass: 2
Flags: W
AnchorPoint: "ArabicBelow" 313 -299 basechar 0
AnchorPoint: "ArabicAbove" 263 669 basechar 0
LayerCount: 2
Fore
SplineSet
352 391 m 1,0,-1
 324 377 l 0,1,2
 286 356 286 356 266 344 c 0,3,4
 231 323 231 323 217 308 c 1,5,-1
 217 325 l 2,6,7
 217 334 217 334 227 356 c 0,8,9
 230 364 230 364 237 378 c 1,10,11
 226 382 226 382 221 391 c 0,12,13
 211 404 211 404 211 423 c 0,14,15
 211 458 211 458 242 504 c 0,16,17
 276 554 276 554 310 554 c 0,18,19
 325 554 325 554 332 544 c 0,20,21
 339 535 339 535 339 519 c 0,22,23
 339 506 339 506 334 493 c 0,24,25
 329 480 329 480 324 477 c 1,26,27
 320 482 320 482 316 484 c 0,28,29
 308 491 308 491 298 491 c 0,30,31
 283 491 283 491 260 474 c 0,32,33
 237 457 237 457 237 443 c 0,34,35
 237 436 237 436 257 430 c 0,36,37
 276 423 276 423 294 423 c 0,38,39
 308 423 308 423 338 440 c 0,40,41
 356 449 356 449 374 460 c 1,42,-1
 352 391 l 1,0,-1
EndSplineSet
Refer: 38 1608 S 1 0 0 1 -0.000427246 0 2
Validated: 1
EndChar

StartChar: alefwithhamzabelow
Encoding: 1573 1573 8
Width: 637
GlyphClass: 2
Flags: W
AnchorPoint: "ArabicBelow" 323 -348 basechar 0
AnchorPoint: "ArabicAbove" 288 689 basechar 0
LayerCount: 2
Fore
SplineSet
379 -246 m 5,0,1
 378 -246 378 -246 351 -261 c 4,2,3
 312 -282 312 -282 292 -294 c 4,4,5
 258 -315 258 -315 243 -329 c 5,6,-1
 243 -312 l 6,7,8
 245 -303 245 -303 254 -282 c 4,9,10
 257 -274 257 -274 264 -260 c 5,11,12
 254 -255 254 -255 247 -246 c 4,13,14
 238 -233 238 -233 238 -214 c 4,15,16
 238 -180 238 -180 270 -134 c 4,17,18
 304 -84 304 -84 337 -84 c 4,19,20
 352 -84 352 -84 359 -93 c 4,21,22
 366 -103 366 -103 366 -118 c 4,23,24
 366 -131 366 -131 361 -144 c 4,25,26
 357 -158 357 -158 350 -160 c 5,27,28
 346 -155 346 -155 344 -154 c 4,29,30
 335 -147 335 -147 324 -147 c 4,31,32
 309 -147 309 -147 287 -164 c 4,33,34
 264 -180 264 -180 264 -195 c 4,35,36
 264 -202 264 -202 284 -208 c 4,37,38
 304 -214 304 -214 320 -214 c 4,39,40
 336 -214 336 -214 365 -198 c 4,41,42
 383 -188 383 -188 401 -177 c 5,43,-1
 379 -246 l 5,0,1
EndSplineSet
Refer: 10 1575 S 1 0 0 1 -18.9998 -4.29153e-06 2
Validated: 1
EndChar

StartChar: yehwithhamzaabove
Encoding: 1574 1574 9
Width: 637
GlyphClass: 2
Flags: W
AnchorPoint: "ArabicBelow" 255 -205 basechar 0
AnchorPoint: "ArabicAbove" 145 601 basechar 0
LayerCount: 2
Fore
SplineSet
228 340 m 5,0,-1
 200 325 l 4,1,2
 162 304 162 304 141 292 c 4,3,4
 107 271 107 271 92 257 c 5,5,-1
 92 274 l 6,6,7
 94 283 94 283 103 304 c 4,8,9
 106 312 106 312 113 326 c 5,10,11
 103 331 103 331 96 340 c 4,12,13
 87 353 87 353 87 372 c 4,14,15
 87 407 87 407 119 452 c 4,16,17
 153 502 153 502 186 502 c 4,18,19
 201 502 201 502 208 493 c 4,20,21
 215 483 215 483 215 468 c 4,22,23
 215 455 215 455 210 441 c 4,24,25
 206 428 206 428 199 426 c 5,26,27
 195 431 195 431 193 432 c 4,28,29
 183 440 183 440 174 440 c 4,30,31
 158 440 158 440 136 423 c 4,32,33
 113 406 113 406 113 391 c 4,34,35
 113 384 113 384 133 378 c 4,36,37
 153 372 153 372 170 372 c 4,38,39
 185 372 185 372 214 388 c 4,40,-1
 250 408 l 5,41,-1
 228 340 l 5,0,-1
EndSplineSet
Refer: 39 1609 N 1 0 0 1 -0.000396729 -0.000411987 2
Validated: 1
EndChar

StartChar: arabicalef
Encoding: 1575 1575 10
Width: 637
GlyphClass: 2
Flags: W
AnchorPoint: "ArabicBelow" 348 -116 basechar 0
AnchorPoint: "ArabicAbove" 294 710 basechar 0
LayerCount: 2
Fore
SplineSet
366.993 7.85059 m 1,0,-1
 337.651 -12.0518 l 1,1,2
 335.595 20.7363 335.595 20.7363 329.922 76.5234 c 0,3,4
 321.941 155.014 321.941 155.014 302.79 281.501 c 0,5,6
 285 399 285 399 271.275 466.667 c 1,7,-1
 314.533 548.137 l 1,8,9
 334.393 497.485 334.393 497.485 347.108 392.202 c 0,10,11
 358.988 293.836 358.988 293.836 364.009 149.479 c 0,12,13
 366.86 67.5 366.86 67.5 366.993 7.85059 c 1,0,-1
EndSplineSet
Validated: 1
EndChar

StartChar: beh
Encoding: 1576 1576 11
Width: 637
GlyphClass: 2
Flags: W
AnchorPoint: "ArabicBelow" 358 -246 basechar 0
AnchorPoint: "ArabicAbove" 324 457 basechar 0
LayerCount: 2
Fore
SplineSet
367 -110 m 5,0,-1
 310 -166 l 5,1,-1
 248 -105 l 5,2,-1
 305 -48 l 5,3,-1
 367 -110 l 5,0,-1
EndSplineSet
Refer: 290 1646 S 1 0 0 1 0 0 2
EndChar

StartChar: tehmarbuta
Encoding: 1577 1577 12
Width: 637
GlyphClass: 2
Flags: W
AnchorPoint: "ArabicBelow" 299.5 -123.5 basechar 0
AnchorPoint: "ArabicAbove" 349 680.5 basechar 0
LayerCount: 2
Fore
SplineSet
318 525 m 1,0,-1
 261 468 l 1,1,-1
 200 530 l 1,2,-1
 257 587 l 1,3,-1
 318 525 l 1,0,-1
502 527 m 1,4,-1
 445 470 l 1,5,-1
 383 531 l 1,6,-1
 440 589 l 1,7,-1
 502 527 l 1,4,-1
EndSplineSet
Refer: 37 1607 N 1 0 0 1 0 0 2
Validated: 1
EndChar

StartChar: teh
Encoding: 1578 1578 13
Width: 637
GlyphClass: 2
Flags: W
AnchorPoint: "ArabicBelow" 324 -102 basechar 0
AnchorPoint: "ArabicAbove" 320 445 basechar 0
LayerCount: 2
Fore
SplineSet
285 305 m 1,0,-1
 228 248 l 1,1,-1
 167 310 l 1,2,-1
 224 367 l 1,3,-1
 285 305 l 1,0,-1
469 307 m 1,4,-1
 412 250 l 1,5,-1
 350 311 l 1,6,-1
 407 369 l 1,7,-1
 469 307 l 1,4,-1
EndSplineSet
Refer: 290 1646 S 1 0 0 1 0 0 2
EndChar

StartChar: theh
Encoding: 1579 1579 14
Width: 637
GlyphClass: 2
Flags: W
AnchorPoint: "ArabicBelow" 324 -109 basechar 0
AnchorPoint: "ArabicAbove" 317 601 basechar 0
LayerCount: 2
Fore
SplineSet
286 307 m 1,0,-1
 229 250 l 1,1,-1
 168 312 l 1,2,-1
 225 369 l 1,3,-1
 286 307 l 1,0,-1
470 309 m 1,4,-1
 413 252 l 1,5,-1
 351 313 l 1,6,-1
 408 371 l 1,7,-1
 470 309 l 1,4,-1
374 424 m 1,8,-1
 318 367 l 1,9,-1
 256 429 l 1,10,-1
 313 486 l 1,11,-1
 374 424 l 1,8,-1
EndSplineSet
Refer: 290 1646 S 1 0 0 1 0 0 2
EndChar

StartChar: jeem
Encoding: 1580 1580 15
Width: 637
GlyphClass: 2
Flags: W
AnchorPoint: "ArabicBelow" 250 -451 basechar 0
AnchorPoint: "ArabicAbove" 209 437 basechar 0
LayerCount: 2
Fore
SplineSet
368 -104 m 5,0,-1
 311 -160 l 5,1,-1
 250 -99 l 5,2,-1
 307 -42 l 5,3,-1
 368 -104 l 5,0,-1
EndSplineSet
Refer: 16 1581 S 1 0 0 1 -0.000305176 -0.000167847 2
Validated: 1
EndChar

StartChar: hah
Encoding: 1581 1581 16
Width: 637
GlyphClass: 2
Flags: W
AnchorPoint: "ArabicBelow" 257 -437 basechar 0
AnchorPoint: "ArabicAbove" 168 437 basechar 0
LayerCount: 2
Fore
SplineSet
301.055 147.132 m 6,0,1
 271.802 173.556 271.802 173.556 242.067 192.645 c 4,2,3
 202.569 218 202.569 218 174 218 c 4,4,5
 155.632 218 155.632 218 136.15 205.604 c 4,6,7
 132.826 203.488 132.826 203.488 129.524 201.146 c 5,8,9
 134.838 218.285 134.838 218.285 139.101 229.888 c 4,10,11
 163.757 297 163.757 297 201 297 c 4,12,13
 230.333 297 230.333 297 269.881 259.93 c 6,14,-1
 350.058 184.776 l 6,15,16
 397.827 140 397.827 140 449 140 c 6,17,-1
 509.326 140 l 5,18,-1
 468.882 62 l 5,19,-1
 338 62 l 6,20,21
 255.157 62 255.157 62 193.579 15.3384 c 132,-1,22
 132 -31.3232 132 -31.3232 132 -93 c 4,23,24
 132 -156.565 132 -156.565 209.953 -210.783 c 132,-1,25
 287.905 -265 287.905 -265 394 -265 c 6,26,-1
 509.249 -265 l 5,27,28
 469.485 -299.179 469.485 -299.179 435.849 -323.089 c 132,-1,29
 402.212 -347 402.212 -347 384 -347 c 4,30,31
 264.624 -347 264.624 -347 187.534 -293.664 c 4,32,33
 103 -235.179 103 -235.179 103 -130 c 4,34,35
 103 -76.4912 103 -76.4912 133.439 -14.6626 c 132,-1,36
 163.878 47.166 163.878 47.166 209.858 80.8955 c 4,37,38
 219.311 87.8291 219.311 87.8291 239.47 97.4678 c 4,39,40
 264.537 109.454 264.537 109.454 296.498 122.044 c 6,41,-1
 319.011 130.912 l 5,42,-1
 301.055 147.132 l 6,0,1
EndSplineSet
Validated: 1
EndChar

StartChar: khah
Encoding: 1582 1582 17
Width: 637
GlyphClass: 2
Flags: W
AnchorPoint: "ArabicBelow" 236 -423 basechar 0
AnchorPoint: "ArabicAbove" 205.5 637 basechar 0
LayerCount: 2
Fore
SplineSet
263 458 m 5,0,-1
 206 401 l 5,1,-1
 145 462 l 5,2,-1
 202 519 l 5,3,-1
 263 458 l 5,0,-1
EndSplineSet
Refer: 16 1581 S 1 0 0 1 -0.000305176 -0.000167847 2
Validated: 1
EndChar

StartChar: dal
Encoding: 1583 1583 18
Width: 637
GlyphClass: 2
Flags: W
AnchorPoint: "ArabicBelow" 303 -82 basechar 0
AnchorPoint: "ArabicAbove" 310 526 basechar 0
LayerCount: 2
Fore
SplineSet
453 77 m 0,0,1
 452.635 63.23 452.635 63.23 451.525 49.5073 c 0,2,3
 450.31 39.8035 450.31 39.8035 447.101 30.6387 c 0,4,5
 443.437 23.8838 443.437 23.8838 437.656 18.9097 c 0,6,7
 434.113 16.8201 434.113 16.8201 430.166 15.666 c 0,8,9
 426.116 15.0326 426.116 15.0326 422 15 c 2,10,-1
 213 15 l 2,11,12
 209.56 15.0662 209.56 15.0662 206.262 15.926 c 0,13,14
 203.176 17.3988 203.176 17.3988 200.598 19.673 c 0,15,16
 195.157 26.0739 195.157 26.0739 191.479 33.6919 c 0,17,18
 187.534 45.341 187.534 45.341 185.87 57.6149 c 0,19,20
 184.296 71.7762 184.296 71.7762 183.887 86.0022 c 0,21,22
 183.905 89.0011 183.905 89.0011 184 92 c 0,23,24
 184.232 98.9746 184.232 98.9746 184.441 105.951 c 0,25,26
 184.771 110.73 184.771 110.73 185.766 115.416 c 2,27,-1
 190.595 134.794 l 1,28,-1
 192.386 132.508 l 2,29,30
 198.717 124.663 198.717 124.663 206.051 117.788 c 0,31,32
 214.028 111.652 214.028 111.652 222.762 106.627 c 0,33,34
 230.742 102.538 230.742 102.538 239.252 99.7948 c 0,35,36
 248.03 98.1459 248.03 98.1459 257 98 c 2,37,-1
 383.247 98.0127 l 2,38,39
 385.177 98.0376 385.177 98.0376 387.087 98.2861 c 128,-1,40
 388.971 98.6895 388.971 98.6895 390.821 99.2392 c 0,41,42
 393.777 100.121 393.777 100.121 396.646 101.241 c 0,43,44
 400.042 103.025 400.042 103.025 403.11 105.357 c 0,45,46
 407.283 108.628 407.283 108.628 411.159 112.23 c 0,47,48
 415.184 116.932 415.184 116.932 417.79 122.548 c 0,49,50
 420.756 133.797 420.756 133.797 420 145.5 c 0,51,52
 417.024 160.206 417.024 160.206 410.926 173.995 c 0,53,54
 397.39 198.701 397.39 198.701 379.5 220.5 c 0,55,56
 359.03 241.26 359.03 241.26 337.5 261 c 0,57,58
 322.936 275.591 322.936 275.591 309.81 291.479 c 1,59,-1
 319.212 386.953 l 1,60,61
 330.339 377.457 330.339 377.457 341.107 367.557 c 0,62,63
 350.788 358.318 350.788 358.318 360.094 348.701 c 0,64,65
 373.117 334.534 373.117 334.534 385.379 319.702 c 0,66,67
 396.479 305.635 396.479 305.635 406.462 290.768 c 0,68,69
 418.349 270.266 418.349 270.266 427.273 248.299 c 0,70,71
 436.282 221.124 436.282 221.124 442.282 193.107 c 0,72,73
 447.139 165.095 447.139 165.095 450.32 136.837 c 0,74,75
 452.57 111.43 452.57 111.43 453.1 85.939 c 0,76,77
 453.083 81.4695 453.083 81.4695 453 77 c 0,0,1
  Spiro
    453 77 o
    451.525 49.5073 o
    447.101 30.6387 o
    437.656 18.9097 o
    422 15 [
    213 15 ]
    200.598 19.673 o
    191.479 33.6919 o
    185.87 57.6149 o
    184 92 o
    184.442 105.951 o
    185.766 115.416 [
    190.595 134.794 v
    192.386 132.508 ]
    222.762 106.627 o
    257 98 [
    383.247 98.0127 ]
    390.821 99.2392 o
    396.646 101.241 o
    403.11 105.357 o
    411.159 112.23 o
    417.79 122.548 o
    420 145.5 o
    410.926 173.995 o
    379.5 220.5 o
    337.5 261 o
    309.81 291.479 v
    319.212 386.953 v
    341.107 367.557 o
    360.094 348.701 o
    385.379 319.702 o
    406.462 290.768 o
    427.273 248.299 o
    442.282 193.107 o
    450.321 136.837 o
    0 0 z
  EndSpiro
EndSplineSet
Validated: 33
EndChar

StartChar: thal
Encoding: 1584 1584 19
Width: 637
GlyphClass: 2
Flags: W
AnchorPoint: "ArabicBelow" 317 -96 basechar 0
AnchorPoint: "ArabicAbove" 269 687 basechar 0
LayerCount: 2
Fore
SplineSet
331 543 m 1,0,-1
 274 486 l 1,1,-1
 212 547 l 1,2,-1
 270 604 l 1,3,-1
 331 543 l 1,0,-1
EndSplineSet
Refer: 18 1583 N 1 0 0 1 0 0 2
Validated: 1
EndChar

StartChar: reh
Encoding: 1585 1585 20
Width: 637
GlyphClass: 2
Flags: W
AnchorPoint: "ArabicBelow" 302 -299 basechar 0
AnchorPoint: "ArabicAbove" 389 416 basechar 0
LayerCount: 2
Fore
SplineSet
260 -234 m 0,0,1
 250.521 -233.268 250.521 -233.268 241.321 -230.901 c 0,2,3
 230.88 -227.004 230.88 -227.004 221.093 -221.605 c 0,4,5
 211.457 -215.887 211.457 -215.887 202.134 -209.67 c 0,6,7
 194.559 -204.35 194.559 -204.35 187.262 -198.656 c 1,8,9
 233.282 -181.056 233.282 -181.056 275.76 -156.056 c 0,10,11
 310.218 -132.285 310.218 -132.285 342 -105 c 0,12,13
 387.456 -62.9558 387.456 -62.9558 421.5 -12 c 0,14,15
 433.37 14.6428 433.37 14.6428 436.223 43.4594 c 0,16,17
 436.186 46.729 436.186 46.729 436 50 c 0,18,19
 434.364 64.2115 434.364 64.2115 430.5 78 c 0,20,21
 422.569 99.1094 422.569 99.1094 411 118.5 c 0,22,23
 398.719 136.082 398.719 136.082 385.5 153 c 0,24,25
 378.671 161.94 378.671 161.94 372 171 c 1,26,-1
 405.879 272.078 l 1,27,-1
 407.996 268.525 l 2,28,29
 419.038 248.891 419.038 248.891 428.068 228.254 c 0,30,31
 436.364 207.542 436.364 207.542 443.699 186.476 c 0,32,33
 452.699 155.908 452.699 155.908 458.175 124.503 c 0,34,35
 462.109 93.8207 462.109 93.8207 463.005 62.915 c 0,36,37
 461.995 30.8905 461.995 30.8905 456.978 -0.436535 c 0,38,39
 449.7 -33.1304 449.7 -33.1304 438.911 -64.8516 c 0,40,41
 425.619 -98.3158 425.619 -98.3158 408.242 -129.825 c 0,42,43
 390.19 -157.729 390.19 -157.729 368.186 -182.605 c 0,44,45
 344.611 -205.023 344.611 -205.023 316.508 -221.151 c 0,46,47
 290.96 -231.531 290.96 -231.531 263.669 -234.069 c 0,48,49
 261.836 -234.057 261.836 -234.057 260 -234 c 0,0,1
  Spiro
    260 -234 o
    241.321 -230.901 o
    221.093 -221.605 o
    202.134 -209.67 o
    187.262 -198.656 v
    275.76 -156.056 o
    342 -105 o
    421.5 -12 o
    436 50 o
    430.5 78 o
    411 118.5 o
    385.5 153 o
    372 171 v
    405.879 272.078 v
    407.996 268.525 ]
    428.068 228.254 o
    443.699 186.476 o
    458.175 124.502 o
    463 61 o
    456.978 -0.436535 o
    438.911 -64.8516 o
    408.242 -129.825 o
    368.186 -182.605 o
    316.507 -221.151 o
    0 0 z
  EndSpiro
EndSplineSet
Validated: 1
EndChar

StartChar: zain
Encoding: 1586 1586 21
Width: 637
GlyphClass: 2
Flags: W
AnchorPoint: "ArabicBelow" 302 -299 basechar 0
AnchorPoint: "ArabicAbove" 307 559 basechar 0
LayerCount: 2
Fore
SplineSet
373 412 m 5,0,-1
 326 365 l 5,1,-1
 271 421 l 5,2,-1
 318 467 l 5,3,-1
 373 412 l 5,0,-1
EndSplineSet
Refer: 20 1585 N 1 0 0 1 0 0 2
Validated: 1
EndChar

StartChar: seen
Encoding: 1587 1587 22
Width: 637
GlyphClass: 2
Flags: W
AnchorPoint: "ArabicBelow" 476 -102 basechar 0
AnchorPoint: "ArabicAbove" 435 375 basechar 0
LayerCount: 2
Fore
SplineSet
370 112 m 0,0,1
 391.098 112.788 391.098 112.788 410.457 121.71 c 0,2,3
 429.074 134.051 429.074 134.051 443.879 150.842 c 0,4,5
 452.16 162.264 452.16 162.264 459.072 174.577 c 0,6,7
 466.289 188.889 466.289 188.889 472.293 203.754 c 1,8,9
 477.805 188.467 477.805 188.467 485.061 173.928 c 0,10,11
 492.035 161.737 492.035 161.737 500.414 150.473 c 0,12,13
 513.633 135.351 513.633 135.351 530.014 123.867 c 0,14,15
 544.536 116.716 544.536 116.716 560.551 114.998 c 0,16,17
 563.276 115.031 563.276 115.031 565.996 115.219 c 0,18,19
 568.305 115.437 568.305 115.437 570.598 115.777 c 0,20,21
 582.554 118.841 582.554 118.841 591.902 126.659 c 0,22,23
 595.645 131.529 595.645 131.529 597.786 137.281 c 0,24,25
 598.964 143.273 598.964 143.273 599.003 149.422 c 2,26,-1
 599 150.042 l 2,27,28
 598.969 151.569 598.969 151.569 598.83 153.09 c 128,-1,29
 598.65 154.592 598.65 154.592 598.39 156.082 c 0,30,31
 598.294 156.565 598.294 156.565 598.19 157.046 c 128,-1,32
 598.08 157.529 598.08 157.529 597.963 158.011 c 0,33,34
 595.355 166.112 595.355 166.112 591.252 173.606 c 0,35,36
 584.999 183.665 584.999 183.665 577.889 193.147 c 0,37,38
 574.914 196.937 574.914 196.937 571.844 200.652 c 0,39,40
 568.55 204.556 568.55 204.556 565.178 208.392 c 1,41,-1
 592 273 l 1,42,43
 597.707 261.461 597.707 261.461 602.242 249.41 c 0,44,45
 605.875 238.336 605.875 238.336 608.898 227.076 c 0,46,47
 614.35 205.215 614.35 205.215 618 183 c 0,48,49
 620.421 157.072 620.421 157.072 620 131 c 0,50,51
 619.238 109.851 619.238 109.851 616 89 c 0,52,53
 612.401 75.4502 612.401 75.4502 605.505 63.3026 c 0,54,55
 596.822 51.6616 596.822 51.6616 586 42 c 0,56,57
 582.068 39.1079 582.068 39.1079 577.599 37.2064 c 0,58,59
 572.883 36.0894 572.883 36.0894 568 36 c 2,60,-1
 560 36 l 2,61,62
 552.336 36.2571 552.336 36.2571 544.816 37.7158 c 0,63,64
 536.641 39.8864 536.641 39.8864 528.727 42.8633 c 0,65,66
 515.072 49.546 515.072 49.546 503.225 59.1294 c 0,67,68
 491.766 70.7906 491.766 70.7906 482.929 84.6055 c 2,69,-1
 468.569 109.019 l 1,70,-1
 456.444 83.4219 l 2,71,72
 451.896 74.8885 451.896 74.8885 445.748 67.4324 c 0,73,74
 437.665 58.9186 437.665 58.9186 429 51 c 0,75,76
 418.403 42.3806 418.403 42.3806 406.416 35.8723 c 0,77,78
 390.242 29.4769 390.242 29.4769 373 27 c 0,79,80
 351.267 26.4175 351.267 26.4175 330 31 c 1,81,-1
 330 -5 l 2,82,83
 329.631 -26.7952 329.631 -26.7952 325.87 -48.1884 c 0,84,85
 319.769 -69.0564 319.769 -69.0564 311 -89 c 0,86,87
 299.447 -112.728 299.447 -112.728 284 -134 c 0,88,89
 265.536 -153.507 265.536 -153.507 244.124 -169.888 c 0,90,91
 228.071 -181.317 228.071 -181.317 210.484 -190.052 c 0,92,93
 196.908 -195.059 196.908 -195.059 182.737 -198.084 c 0,94,95
 166.604 -200.855 166.604 -200.855 150.294 -202.018 c 0,96,97
 149.525 -202.043 149.525 -202.043 148.757 -202.061 c 0,98,99
 147.516 -202.079 147.516 -202.079 146.275 -202.075 c 0,100,101
 121.35 -200.032 121.35 -200.032 97.9589 -191.146 c 0,102,103
 75.1102 -178.026 75.1102 -178.026 57.4922 -158.36 c 0,104,105
 42.3445 -135.363 42.3445 -135.363 33.1231 -109.335 c 0,106,107
 25.2129 -75.1465 25.2129 -75.1465 25 -40 c 0,108,109
 26.5695 -18.4927 26.5695 -18.4927 30.4874 2.71894 c 0,110,111
 37.0809 29.7203 37.0809 29.7203 46.9497 55.7072 c 1,112,-1
 54 49 l 1,113,114
 44.5746 22.8202 44.5746 22.8202 44 -5 c 0,115,116
 46.6034 -25.7032 46.6034 -25.7032 54.0547 -45.2026 c 0,117,118
 68.5709 -71.4999 68.5709 -71.4999 90.2188 -92.3711 c 0,119,120
 106.644 -104.486 106.644 -104.486 125.592 -111.961 c 0,121,122
 148.352 -117.687 148.352 -117.687 171.819 -118.998 c 0,123,124
 172.176 -119.003 172.176 -119.003 172.533 -119.006 c 128,-1,125
 172.884 -119.008 172.884 -119.008 173.237 -119.009 c 0,126,127
 184.393 -118.566 184.393 -118.566 195.434 -116.82 c 0,128,129
 208.242 -114.248 208.242 -114.248 220.671 -110.254 c 0,130,131
 237.238 -103.451 237.238 -103.451 253.062 -94.9893 c 0,132,133
 265.706 -87.9425 265.706 -87.9425 277 -79 c 0,134,135
 287.073 -68.3827 287.073 -68.3827 295 -56 c 0,136,137
 302.838 -42.2767 302.838 -42.2767 309.62 -27.9913 c 2,138,-1
 311 -25 l 1,139,-1
 311 -21.7061 l 2,140,141
 310.518 -1.16263 310.518 -1.16263 305.847 18.7224 c 0,142,143
 294.724 44.9028 294.724 44.9028 278.387 68.46 c 0,144,145
 272.474 76.6296 272.474 76.6296 266.331 84.6284 c 0,146,147
 258.084 94.9672 258.084 94.9672 249.381 104.925 c 1,148,-1
 282.633 186.725 l 1,149,150
 288.01 177.694 288.01 177.694 294.048 169.09 c 0,151,152
 300.664 160.35 300.664 160.35 307.797 152.025 c 0,153,154
 323.022 135.301 323.022 135.301 341.137 122.006 c 0,155,156
 354.831 114.775 354.831 114.775 370 112 c 0,0,1
  Spiro
    370 112 o
    410.457 121.71 o
    443.879 150.842 o
    459.072 174.577 o
    472.293 203.754 v
    485.061 173.928 o
    500.414 150.473 o
    530.014 123.867 o
    560.551 114.998 o
    565.996 115.219 o
    570.598 115.777 o
    591.902 126.659 o
    599.003 149.422 [
    599 150.042 ]
    598.83 153.09 o
    598.39 156.082 o
    598.19 157.046 o
    597.963 158.011 o
    591.252 173.606 o
    577.889 193.147 o
    571.844 200.652 o
    565.178 208.392 v
    592 273 v
    602.242 249.41 o
    608.898 227.076 o
    618 183 o
    620 131 o
    616 89 o
    605.505 63.3026 o
    586 42 o
    568 36 [
    560 36 ]
    544.816 37.7158 o
    528.727 42.8633 o
    503.225 59.1294 o
    482.929 84.6055 [
    468.569 109.019 v
    456.444 83.4219 ]
    445.748 67.4324 o
    429 51 o
    406.416 35.8723 o
    373 27 o
    330 31 v
    330 -5 ]
    311 -89 o
    284 -134 o
    244.124 -169.888 o
    210.484 -190.052 o
    182.737 -198.084 o
    150.294 -202.018 o
    148.757 -202.061 o
    146.275 -202.075 o
    97.9589 -191.146 o
    57.4922 -158.36 o
    33.123 -109.334 o
    25 -40 o
    30.4874 2.71894 o
    46.9497 55.7072 v
    54 49 v
    44 -5 o
    54.0547 -45.2026 o
    90.2188 -92.3711 o
    125.592 -111.961 o
    171.819 -118.998 o
    172.533 -119.006 o
    173.237 -119.009 o
    195.434 -116.82 o
    220.671 -110.254 o
    253.062 -94.9892 o
    277 -79 o
    295 -56 o
    309.62 -27.9913 [
    311 -25 v
    311 -21.7061 ]
    305.847 18.7224 o
    278.387 68.46 o
    266.331 84.6285 o
    249.381 104.925 v
    282.633 186.725 v
    294.048 169.09 o
    307.797 152.025 o
    341.137 122.006 o
    0 0 z
  EndSpiro
EndSplineSet
Validated: 33
EndChar

StartChar: sheen
Encoding: 1588 1588 23
Width: 637
GlyphClass: 2
Flags: W
AnchorPoint: "ArabicBelow" 489 -135 basechar 0
AnchorPoint: "ArabicAbove" 428 631 basechar 0
LayerCount: 2
Fore
SplineSet
430 354 m 1,0,-1
 373 297 l 1,1,-1
 312 359 l 1,2,-1
 369 416 l 1,3,-1
 430 354 l 1,0,-1
614 356 m 1,4,-1
 557 299 l 1,5,-1
 495 360 l 1,6,-1
 552 418 l 1,7,-1
 614 356 l 1,4,-1
518 471 m 1,8,-1
 462 414 l 1,9,-1
 400 476 l 1,10,-1
 457 533 l 1,11,-1
 518 471 l 1,8,-1
EndSplineSet
Refer: 22 1587 S 1 0 0 1 0 0 2
Validated: 1
EndChar

StartChar: sad
Encoding: 1589 1589 24
Width: 637
GlyphClass: 2
Flags: W
AnchorPoint: "ArabicBelow" 463 -156 basechar 0
AnchorPoint: "ArabicAbove" 405 412 basechar 0
LayerCount: 2
Fore
SplineSet
332 -15 m 6,0,1
 331 -43 331 -43 325 -70 c 5,2,3
 310 -109 310 -109 285 -143 c 4,4,5
 267 -162 267 -162 247 -178 c 4,6,7
 233 -189 233 -189 216 -197 c 4,8,9
 199 -204 199 -204 180 -208 c 4,10,11
 163 -211 163 -211 145 -211 c 4,12,13
 139 -211 l 4,14,15
 117 -209 117 -209 97 -201 c 5,16,17
 77 -188 77 -188 61 -170 c 4,18,19
 45 -146 45 -146 35 -120 c 4,20,21
 28 -90 28 -90 27 -60 c 4,22,23
 27 -50 l 4,24,25
 29 -28 29 -28 33 -6 c 260,26,27
 37 16 37 16 44 38 c 5,28,-1
 55 38 l 5,29,30
 52 15 52 15 51 -8 c 4,31,32
 51 -18 l 4,33,34
 51 -37 51 -37 56 -55 c 5,35,36
 69 -82 69 -82 92 -102 c 4,37,38
 109 -114 109 -114 127 -122 c 5,39,40
 148 -127 148 -127 169 -128 c 4,41,42
 171 -128 171 -128 174 -128 c 4,43,44
 204 -125 204 -125 232 -116 c 4,45,46
 262 -102 262 -102 288 -80 c 4,47,48
 296 -72 296 -72 303 -62 c 4,49,50
 311 -50 311 -50 317 -36 c 5,51,-1
 317 -33 l 6,52,53
 317 -22 317 -22 315 -12 c 4,54,55
 312 -1 312 -1 308 8 c 4,56,57
 295 35 295 35 280 59 c 4,58,59
 273 68 273 68 267 77 c 4,60,61
 251 95 l 5,62,-1
 285 178 l 5,63,64
 290 169 290 169 296 161 c 4,65,66
 305 147 305 147 316 133 c 4,67,68
 327 121 327 121 340 112 c 4,69,70
 346 108 346 108 353 106 c 260,71,72
 360 104 360 104 367 103 c 5,73,74
 371 104 371 104 376 106 c 5,75,76
 379 108 379 108 381 111 c 4,77,78
 391 129 l 4,79,80
 405 158 405 158 420 187 c 4,81,82
 436 216 436 216 454 243 c 4,83,84
 465 258 465 258 477 272 c 4,85,86
 488 284 488 284 502 295 c 5,87,88
 511 300 511 300 522 304 c 5,89,90
 534 306 l 5,91,92
 540 305 540 305 545 304 c 4,93,94
 553 302 553 302 561 298 c 4,95,96
 572 291 572 291 582 282 c 4,97,98
 595 268 595 268 604 251 c 4,99,100
 612 232 612 232 616 211 c 4,101,102
 620 184 620 184 620 156 c 4,103,104
 620 148 l 4,105,106
 618 104 618 104 614 61 c 4,107,108
 613 51 613 51 612 40 c 4,109,110
 611 32 611 32 609 24 c 5,111,112
 608 22 608 22 606 19 c 5,113,114
 604 18 604 18 602 16 c 5,115,116
 601 16 601 16 599 15 c 5,117,118
 593 15 593 15 588 15 c 6,119,-1
 332 15 l 5,120,-1
 332 -15 l 6,0,1
573 95 m 6,121,122
 576 95 576 95 578 96 c 5,123,124
 581 96 581 96 583 97 c 5,125,126
 593 105 l 4,127,128
 598 110 598 110 601 116 c 4,129,130
 604 124 604 124 604 131 c 4,131,132
 603 148 603 148 598 164 c 5,133,134
 590 180 590 180 579 195 c 4,135,136
 567 208 567 208 553 218 c 5,137,138
 540 224 540 224 526 227 c 5,139,140
 507 228 507 228 489 223 c 5,141,142
 475 215 475 215 464 203 c 4,143,144
 456 192 456 192 448 180 c 4,145,146
 440 169 440 169 433 157 c 6,147,-1
 397 95 l 5,148,-1
 573 95 l 6,121,122
EndSplineSet
EndChar

StartChar: dad
Encoding: 1590 1590 25
Width: 637
GlyphClass: 2
Flags: W
AnchorPoint: "ArabicBelow" 463 -156 basechar 0
AnchorPoint: "ArabicAbove" 340.5 440.5 basechar 0
LayerCount: 2
Fore
SplineSet
332 -15 m 6,0,1
 331 -43 331 -43 325 -70 c 5,2,3
 310 -109 310 -109 285 -143 c 4,4,5
 267 -162 267 -162 247 -178 c 4,6,7
 233 -189 233 -189 216 -197 c 4,8,9
 199 -204 199 -204 180 -208 c 4,10,11
 163 -211 163 -211 145 -211 c 4,12,13
 139 -211 l 4,14,15
 117 -209 117 -209 97 -201 c 5,16,17
 77 -188 77 -188 61 -170 c 4,18,19
 45 -146 45 -146 35 -120 c 4,20,21
 28 -90 28 -90 27 -60 c 4,22,23
 27 -50 l 4,24,25
 29 -28 29 -28 33 -6 c 260,26,27
 37 16 37 16 44 38 c 5,28,-1
 55 38 l 5,29,30
 52 15 52 15 51 -8 c 4,31,32
 51 -18 l 4,33,34
 51 -37 51 -37 56 -55 c 5,35,36
 69 -82 69 -82 92 -102 c 4,37,38
 109 -114 109 -114 127 -122 c 5,39,40
 148 -127 148 -127 169 -128 c 4,41,42
 171 -128 171 -128 174 -128 c 4,43,44
 204 -125 204 -125 232 -116 c 4,45,46
 262 -102 262 -102 288 -80 c 4,47,48
 296 -72 296 -72 303 -62 c 4,49,50
 311 -50 311 -50 317 -36 c 5,51,-1
 317 -33 l 6,52,53
 317 -22 317 -22 315 -12 c 4,54,55
 312 -1 312 -1 308 8 c 4,56,57
 295 35 295 35 280 59 c 4,58,59
 273 68 273 68 267 77 c 4,60,61
 251 95 l 5,62,-1
 285 178 l 5,63,64
 290 169 290 169 296 161 c 4,65,66
 305 147 305 147 316 133 c 4,67,68
 327 121 327 121 340 112 c 4,69,70
 346 108 346 108 353 106 c 260,71,72
 360 104 360 104 367 103 c 5,73,74
 371 104 371 104 376 106 c 5,75,76
 379 108 379 108 381 111 c 4,77,78
 391 129 l 4,79,80
 405 158 405 158 420 187 c 4,81,82
 436 216 436 216 454 243 c 4,83,84
 465 258 465 258 477 272 c 4,85,86
 488 284 488 284 502 295 c 5,87,88
 511 300 511 300 522 304 c 5,89,90
 534 306 l 5,91,92
 540 305 540 305 545 304 c 4,93,94
 553 302 553 302 561 298 c 4,95,96
 572 291 572 291 582 282 c 4,97,98
 595 268 595 268 604 251 c 4,99,100
 612 232 612 232 616 211 c 4,101,102
 620 184 620 184 620 156 c 4,103,104
 620 148 l 4,105,106
 618 104 618 104 614 61 c 4,107,108
 613 51 613 51 612 40 c 4,109,110
 611 32 611 32 609 24 c 5,111,112
 608 22 608 22 606 19 c 5,113,114
 604 18 604 18 602 16 c 5,115,116
 601 16 601 16 599 15 c 5,117,118
 593 15 593 15 588 15 c 6,119,-1
 332 15 l 5,120,-1
 332 -15 l 6,0,1
573 95 m 6,121,122
 576 95 576 95 578 96 c 5,123,124
 581 96 581 96 583 97 c 5,125,126
 593 105 l 4,127,128
 598 110 598 110 601 116 c 4,129,130
 604 124 604 124 604 131 c 4,131,132
 603 148 603 148 598 164 c 5,133,134
 590 180 590 180 579 195 c 4,135,136
 567 208 567 208 553 218 c 5,137,138
 540 224 540 224 526 227 c 5,139,140
 507 228 507 228 489 223 c 5,141,142
 475 215 475 215 464 203 c 4,143,144
 456 192 456 192 448 180 c 4,145,146
 440 169 440 169 433 157 c 6,147,-1
 397 95 l 5,148,-1
 573 95 l 6,121,122
398 324.5 m 1,149,-1
 351 277.5 l 1,150,-1
 296 333.5 l 1,151,-1
 343 379.5 l 1,152,-1
 398 324.5 l 1,149,-1
EndSplineSet
EndChar

StartChar: tah
Encoding: 1591 1591 26
Width: 637
GlyphClass: 2
Flags: W
AnchorPoint: "ArabicBelow" 328.5 -72 basechar 0
AnchorPoint: "ArabicAbove" 445 505 basechar 0
LayerCount: 2
Fore
SplineSet
486 98 m 6,0,1
 495.768 98.1645 495.768 98.1645 505.5 99 c 4,2,3
 513.474 99.9247 513.474 99.9247 521 102.5 c 4,4,5
 526.518 105.548 526.518 105.548 531 110 c 4,6,7
 536.093 116.704 536.093 116.704 539.333 124.5 c 4,8,9
 542.497 136.376 542.497 136.376 542 148.667 c 4,10,11
 538.096 162.658 538.096 162.658 531 175.333 c 4,12,13
 524.027 185.078 524.027 185.078 515.333 193.333 c 4,14,15
 505.422 201.142 505.422 201.142 494.5 207.5 c 4,16,17
 479.612 215.19 479.612 215.19 463.932 221.089 c 4,18,19
 448.255 225.762 448.255 225.762 432 227 c 4,20,21
 417.091 226.14 417.091 226.14 402.624 222.292 c 4,22,23
 385.755 216.329 385.755 216.329 369.813 208.166 c 4,24,25
 345.078 193.081 345.078 193.081 323.362 173.872 c 4,26,27
 303.112 153.253 303.112 153.253 283.5 132 c 6,28,-1
 251.235 98 l 5,29,-1
 486 98 l 6,0,1
  Spiro
    486 98 ]
    505.5 99 o
    521 102.5 o
    531 110 o
    539.333 124.5 o
    542 148.667 v
    531 175.333 o
    515.333 193.333 o
    494.5 207.5 o
    463.933 221.089 o
    432 227 o
    402.624 222.292 o
    369.813 208.166 o
    323.363 173.872 o
    283.5 132 [
    251.235 98 v
    0 0 z
  EndSpiro
569 175 m 4,30,31
 569.721 165.013 569.721 165.013 569.861 155.005 c 4,32,33
 568.625 125.262 568.625 125.262 563 96 c 4,34,35
 558.656 78.4859 558.656 78.4859 552.68 61.4658 c 4,36,37
 545.011 42.5789 545.011 42.5789 532.761 26.6165 c 4,38,39
 526.445 20.8658 526.445 20.8658 518.755 17.239 c 4,40,41
 510.548 15.1498 510.548 15.1498 502 15 c 6,42,-1
 154 15 l 6,43,44
 147.022 15.1073 147.022 15.1073 140.233 16.5261 c 4,45,46
 133.725 18.9682 133.725 18.9682 127.901 22.8069 c 4,47,48
 115.428 33.2419 115.428 33.2419 105.542 46.2275 c 4,49,50
 96.2722 61.1157 96.2722 61.1157 89.2258 77.223 c 4,51,52
 83.2689 93.3757 83.2689 93.3757 79.6426 110.216 c 6,53,-1
 79.2311 112.466 l 5,54,55
 92.6915 106.579 92.6915 106.579 106.503 101.617 c 4,56,57
 118.551 98.5341 118.551 98.5341 131 98 c 6,58,-1
 176 98 l 6,59,60
 188.304 97.8394 188.304 97.8394 200.5 99 c 4,61,62
 208.821 100.829 208.821 100.829 216.5 104.5 c 4,63,64
 227.225 111.81 227.225 111.81 236 121.5 c 4,65,66
 243.144 130.456 243.144 130.456 249.5 140 c 6,67,-1
 256.465 150.701 l 5,68,-1
 254.5 167.5 l 6,69,70
 249.423 207.806 249.423 207.806 243.5 248 c 4,71,72
 236.298 299.508 236.298 299.508 229 351 c 4,73,74
 222.5 389.5 222.5 389.5 211.406 438.359 c 4,75,76
 201.421 472.203 201.421 472.203 194.384 493.548 c 5,77,-1
 232.681 588.941 l 5,78,79
 238.499 568.194 238.499 568.194 243.394 547.21 c 4,80,81
 248.772 521.474 248.772 521.474 253.201 495.554 c 4,82,83
 259.232 456.978 259.232 456.978 263.806 418.204 c 4,84,85
 267.641 379.125 267.641 379.125 271 340 c 4,86,87
 273.448 312.205 273.448 312.205 275.439 284.375 c 4,88,89
 277.401 253.412 277.401 253.412 280 222.5 c 6,90,-1
 284 180.5 l 5,91,-1
 329.5 229.5 l 6,92,93
 347.77 248.765 347.77 248.765 367.5 266.5 c 4,94,95
 377.847 275.094 377.847 275.094 388.46 283.358 c 4,96,97
 404.765 295.737 404.765 295.737 422.606 305.59 c 4,98,99
 436.825 311.305 436.825 311.305 452 313 c 4,100,101
 452.898 313.021 452.898 313.021 453.796 313.026 c 4,102,103
 472.029 311.231 472.029 311.231 488.851 303.707 c 4,104,105
 507.905 291.722 507.905 291.722 523.974 275.83 c 4,106,107
 541.724 255.037 541.724 255.037 554.667 231 c 4,108,109
 565.057 203.858 565.057 203.858 569 175 c 4,30,31
  Spiro
    569 175 o
    563 96 o
    552.68 61.4658 o
    532.761 26.6165 o
    502 15 [
    154 15 ]
    127.901 22.8069 o
    105.542 46.2275 o
    89.2258 77.223 o
    79.6426 110.216 [
    79.2311 112.466 v
    106.503 101.617 o
    131 98 [
    176 98 ]
    200.5 99 o
    216.5 104.5 o
    236 121.5 o
    249.5 140 [
    256.465 150.701 v
    254.5 167.5 ]
    243.5 248 o
    229 351 o
    211.406 438.359 o
    194.384 493.548 v
    232.681 588.941 v
    243.394 547.21 o
    253.201 495.554 o
    263.806 418.204 o
    271 340 o
    275.439 284.375 o
    280 222.5 [
    284 180.5 v
    329.5 229.5 ]
    367.5 266.5 o
    388.46 283.358 o
    422.606 305.59 o
    452 313 o
    488.851 303.707 o
    523.974 275.83 o
    554.667 231 o
    0 0 z
  EndSpiro
EndSplineSet
Validated: 33
EndChar

StartChar: zah
Encoding: 1592 1592 27
Width: 637
GlyphClass: 2
Flags: W
AnchorPoint: "ArabicBelow" 329 -89 basechar 0
AnchorPoint: "ArabicAbove" 431 621 basechar 0
LayerCount: 2
Fore
SplineSet
493 465 m 1,0,-1
 436 408 l 1,1,-1
 375 470 l 1,2,-1
 432 527 l 1,3,-1
 493 465 l 1,0,-1
EndSplineSet
Refer: 26 1591 S 1 0 0 1 0 0 2
Validated: 1
EndChar

StartChar: ain
Encoding: 1593 1593 28
Width: 637
GlyphClass: 2
Flags: W
AnchorPoint: "ArabicBelow" 221 -390 basechar 0
AnchorPoint: "ArabicAbove" 234 457 basechar 0
LayerCount: 2
Fore
SplineSet
507.321 -265 m 1,0,1
 469.044 -297.243 469.044 -297.243 428.046 -325.75 c 0,2,3
 406.543 -338.275 406.543 -338.275 383 -346 c 0,4,5
 369.156 -348.818 369.156 -348.818 355.034 -349.365 c 0,6,7
 347.846 -349.224 347.846 -349.224 340.692 -348.525 c 0,8,9
 319.699 -344.911 319.699 -344.911 299.5 -338 c 0,10,11
 276.79 -328.864 276.79 -328.864 254.7 -318.278 c 0,12,13
 223.84 -302.966 223.84 -302.966 194.938 -284.358 c 0,14,15
 168.562 -263.511 168.562 -263.511 146.61 -238.038 c 0,16,17
 127.574 -211.339 127.574 -211.339 114.652 -181.269 c 0,18,19
 105.654 -149.739 105.654 -149.739 103.998 -116.937 c 0,20,21
 104.973 -91.0257 104.973 -91.0257 109.499 -65.6604 c 0,22,23
 116.122 -38.7572 116.122 -38.7572 125.997 -12.8564 c 0,24,25
 137.202 12.6683 137.202 12.6683 150.388 37.2352 c 0,26,27
 163.708 59.2141 163.708 59.2141 179.571 79.4541 c 2,28,-1
 189.188 91.1123 l 1,29,-1
 177.459 100.642 l 2,30,31
 163.965 111.919 163.965 111.919 151.31 124.125 c 0,32,33
 139.716 136.026 139.716 136.026 129.157 148.835 c 0,34,35
 120.223 161.306 120.223 161.306 114.039 175.289 c 0,36,37
 109.939 188.85 109.939 188.85 108.982 206.067 c 0,38,39
 110.804 231.382 110.804 231.382 118.994 255.455 c 0,40,41
 131.583 281.325 131.583 281.325 148.978 304.364 c 0,42,43
 166.103 324.452 166.103 324.452 187.149 340.091 c 0,44,45
 203.537 348.732 203.537 348.732 221.707 352 c 0,46,47
 224.819 352.228 224.819 352.228 227.936 352.272 c 0,48,49
 239.603 351.647 239.603 351.647 250.935 348.743 c 0,50,51
 264.817 343.622 264.817 343.622 277.575 336.07 c 0,52,53
 305.528 315.143 305.528 315.143 328.019 288.279 c 1,54,55
 310.194 293.112 310.194 293.112 292.007 296.32 c 0,56,57
 275.711 298.495 275.711 298.495 259.291 299.017 c 0,58,59
 258.099 299.014 258.099 299.014 256.906 299 c 0,60,61
 240.152 298.107 240.152 298.107 224.031 293.664 c 0,62,63
 208.646 287.042 208.646 287.042 194.696 277.656 c 0,64,65
 180.69 267.129 180.69 267.129 168.157 254.904 c 0,66,67
 159.72 245.505 159.72 245.505 152 235.5 c 0,68,69
 145.402 226.654 145.402 226.654 138.994 217.668 c 1,70,71
 142.337 208.249 142.337 208.249 148 200 c 0,72,73
 157.134 190.044 157.134 190.044 167.774 181.579 c 0,74,75
 179.377 172.27 179.377 172.27 191.599 163.83 c 0,76,77
 204.492 156.524 204.492 156.524 218.438 151.465 c 0,78,79
 232.649 147.262 232.649 147.262 247.173 144.3 c 0,80,81
 258.896 142.38 258.896 142.38 270.731 142.458 c 0,82,83
 282.423 144.197 282.423 144.197 293.646 148.111 c 2,84,-1
 422.411 195.665 l 1,85,-1
 399.808 116.896 l 1,86,-1
 377.131 109.188 l 2,87,88
 338.039 95.5806 338.039 95.5806 299.533 80.4084 c 0,89,90
 270.443 68.2843 270.443 68.2843 242.492 53.8081 c 0,91,92
 220.002 40.1918 220.002 40.1918 199.831 23.3679 c 0,93,94
 180.979 4.61024 180.979 4.61024 165.367 -16.936 c 0,95,96
 152.232 -37.9888 152.232 -37.9888 142.592 -60.82 c 0,97,98
 136.481 -80.0132 136.481 -80.0132 134.978 -100.013 c 0,99,100
 139.86 -133.478 139.86 -133.478 155.091 -158.142 c 0,101,102
 181.671 -188.889 181.671 -188.889 215.364 -212.113 c 0,103,104
 255.997 -235.478 255.997 -235.478 299.955 -251.778 c 0,105,106
 345.704 -263.262 345.704 -263.262 393 -265 c 2,107,-1
 507.321 -265 l 1,0,1
  Spiro
    507.321 -265 v
    428.046 -325.75 o
    383 -346 o
    299.5 -338 o
    254.7 -318.278 o
    194.938 -284.358 o
    146.61 -238.038 o
    114.653 -181.269 o
    104 -116 o
    109.499 -65.6604 o
    125.997 -12.8564 o
    150.388 37.2352 o
    179.571 79.4541 [
    189.188 91.1123 v
    177.459 100.642 ]
    151.31 124.125 o
    129.157 148.835 o
    114.039 175.289 o
    109 204 o
    118.994 255.455 o
    148.978 304.364 o
    187.149 340.091 o
    221.707 352 o
    277.575 336.07 o
    328.019 288.279 v
    292.007 296.32 o
    256.906 299 o
    224.031 293.664 o
    194.696 277.656 o
    168.157 254.904 o
    152 235.5 o
    138.994 217.668 v
    148 200 o
    167.774 181.579 o
    191.599 163.83 o
    247.173 144.3 o
    293.646 148.111 [
    422.411 195.665 v
    399.808 116.896 v
    377.131 109.188 ]
    299.533 80.4084 o
    242.492 53.8081 o
    199.831 23.3679 o
    165.367 -16.936 o
    142.592 -60.82 o
    135 -102 o
    155.091 -158.142 o
    215.364 -212.113 o
    299.955 -251.778 o
    393 -265 [
    0 0 z
  EndSpiro
EndSplineSet
Validated: 33
EndChar

StartChar: ghain
Encoding: 1594 1594 29
Width: 637
GlyphClass: 2
Flags: W
AnchorPoint: "ArabicBelow" 237 -430 basechar 0
AnchorPoint: "ArabicAbove" 178 661 basechar 0
LayerCount: 2
Fore
SplineSet
242 499 m 5,0,-1
 185 443 l 5,1,-1
 123 504 l 5,2,-1
 180 561 l 5,3,-1
 242 499 l 5,0,-1
EndSplineSet
Refer: 28 1593 S 1 0 0 1 0.000274658 0 2
Validated: 1
EndChar

StartChar: tatweel
Encoding: 1600 1600 30
Width: 637
GlyphClass: 2
Flags: W
LayerCount: 2
Fore
SplineSet
646 15.9766 m 1,0,-1
 -11 15.0234 l 1,1,-1
 -11 98 l 1,2,-1
 646 98 l 1,3,-1
 646 15.9766 l 1,0,-1
EndSplineSet
Validated: 1
EndChar

StartChar: feh
Encoding: 1601 1601 31
Width: 637
GlyphClass: 2
Flags: W
AnchorPoint: "ArabicBelow" 311 -96 basechar 0
AnchorPoint: "ArabicAbove" 310.5 692 basechar 0
LayerCount: 2
Fore
SplineSet
362.5 15.1699 m 1,0,-1
 138 15 l 2,1,2
 81.0594 14.9569 81.0594 14.9569 52.5055 40.5182 c 128,-1,3
 24.0002 66.0364 24.0002 66.0364 24 126 c 0,4,5
 24 158.806 24 158.806 41.8773 198.864 c 128,-1,6
 59.7546 238.922 59.7546 238.922 70.118 256.758 c 1,7,8
 32.9372 165.807 32.9372 165.807 77.7456 122.124 c 0,9,10
 102.491 98 102.491 98 167 98 c 2,11,-1
 173 98 l 17,12,-1
 362.5 98.1348 l 1,13,-1
 508.506 98.2402 l 1,14,-1
 421.025 135.063 l 2,15,16
 379.563 152.516 379.563 152.516 373.655 171.437 c 0,17,18
 373.288 172.616 373.288 172.616 373.36 173.16 c 2,19,-1
 385.568 264.979 l 1,20,-1
 387.603 277.41 l 2,21,22
 399.872 352.395 399.872 352.395 421.351 398.669 c 0,23,24
 445.529 450.76 445.529 450.76 474.92 450.761 c 0,25,26
 518.191 450.761 518.191 450.761 564.336 363.687 c 0,27,28
 617.72 262.949 617.72 262.949 617.72 133.88 c 2,29,-1
 617.72 49.3604 l 2,30,31
 617.72 30.1367 617.72 30.1367 609.164 22.748 c 128,-1,32
 600.644 15.3883 600.644 15.3883 570.12 15.3604 c 2,33,-1
 362.5 15.1699 l 1,0,-1
407.872 243.689 m 1,34,-1
 411.573 239.576 l 1,35,-1
 581.189 169.989 l 1,36,37
 562.101 262.251 562.101 262.251 513 307 c 0,38,39
 485.606 331.966 485.606 331.966 458.6 333.8 c 0,40,41
 419.336 336.467 419.336 336.467 407.872 243.689 c 1,34,-1
374 550 m 1,42,-1
 317 493 l 1,43,-1
 255 554 l 1,44,-1
 312 611 l 1,45,-1
 374 550 l 1,42,-1
EndSplineSet
Validated: 33
EndChar

StartChar: qaf
Encoding: 1602 1602 32
Width: 637
GlyphClass: 2
Flags: W
AnchorPoint: "ArabicBelow" 297.61 -277 basechar 0
AnchorPoint: "ArabicAbove" 327.61 605 basechar 0
LayerCount: 2
Fore
SplineSet
299.61 449 m 1,0,-1
 242.61 392 l 1,1,-1
 181.61 454 l 1,2,-1
 238.61 511 l 1,3,-1
 299.61 449 l 1,0,-1
483.61 451 m 1,4,-1
 426.61 394 l 1,5,-1
 364.61 455 l 1,6,-1
 421.61 513 l 1,7,-1
 483.61 451 l 1,4,-1
252.61 -193 m 0,8,9
 95.9756 -193 95.9756 -193 98.6104 -36 c 0,10,11
 99.7217 30.1982 99.7217 30.1982 116.393 75.2793 c 1,12,13
 123.137 75.2588 123.137 75.2588 126.384 75.168 c 1,14,15
 120.61 43.041 120.61 43.041 120.61 22 c 0,16,17
 120.61 -52.9502 120.61 -52.9502 168.329 -84.5068 c 0,18,19
 205.369 -109 205.369 -109 280.081 -109 c 0,20,21
 312.062 -106.854 312.062 -106.854 344.112 -100.349 c 128,-1,22
 376.164 -93.8447 376.164 -93.8447 410.573 -81.541 c 128,-1,23
 444.982 -69.2373 444.982 -69.2373 471.562 -47.2705 c 128,-1,24
 498.141 -25.3037 498.141 -25.3037 509.278 3.33301 c 1,25,26
 515.556 32.8047 515.556 32.8047 490.486 47.4219 c 0,27,28
 481.284 53.8896 481.284 53.8896 430.646 54.2607 c 128,-1,29
 380.007 54.6318 380.007 54.6318 343.629 53 c 0,30,31
 322.657 52.7256 322.657 52.7256 314.814 58.7617 c 128,-1,32
 306.973 64.7979 306.973 64.7979 302.639 77.0078 c 0,33,34
 291.032 109.697 291.032 109.697 290.998 152.601 c 128,-1,35
 290.964 195.504 290.964 195.504 300.936 233.297 c 128,-1,36
 310.907 271.09 310.907 271.09 333.392 296.926 c 128,-1,37
 355.877 322.763 355.877 322.763 385.61 322 c 0,38,39
 463.389 322 463.389 322 513.366 170.298 c 0,40,41
 524.761 135.709 524.761 135.709 532.686 87.8545 c 128,-1,42
 540.61 40 540.61 40 537.61 -5 c 0,43,44
 535.344 -59.1914 535.344 -59.1914 487.518 -100.316 c 0,45,46
 437.424 -143.387 437.424 -143.387 368.251 -168.193 c 128,-1,47
 299.078 -193 299.078 -193 252.61 -193 c 0,8,9
331.61 135 m 2,48,-1
 357.61 135 l 1,49,-1
 482.64 135 l 1,50,51
 472.771 170.646 472.771 170.646 450.626 202.518 c 128,-1,52
 428.479 234.39 428.479 234.39 397.61 235 c 0,53,54
 365.921 235.627 365.921 235.627 347.796 209.566 c 128,-1,55
 329.672 183.506 329.672 183.506 323.275 146.334 c 0,56,57
 321.492 134.662 321.492 134.662 331.61 135 c 2,48,-1
EndSplineSet
Validated: 33
EndChar

StartChar: arabickaf
Encoding: 1603 1603 33
Width: 637
GlyphClass: 2
Flags: W
AnchorPoint: "ArabicBelow" 311 -89 basechar 0
AnchorPoint: "ArabicAbove" 311 567 basechar 0
LayerCount: 2
Fore
SplineSet
335 287 m 1,0,1
 329 287 329 287 321 285.5 c 128,-1,2
 313 284 313 284 309 284 c 0,3,4
 288 284 288 284 275 296 c 128,-1,5
 262 308 262 308 262 325 c 0,6,7
 262 338 262 338 264.5 347.5 c 128,-1,8
 267 357 267 357 278 377 c 0,9,10
 293 403 293 403 320 425 c 0,11,12
 351 452 351 452 376 452 c 1,13,-1
 362 391 l 1,14,15
 338 385 338 385 326 381 c 0,16,17
 292 367 292 367 292 353 c 0,18,19
 292 345 292 345 303 341 c 0,20,21
 309 340 309 340 315 340 c 0,22,23
 319 340 319 340 329.5 340.5 c 128,-1,24
 340 341 340 341 346 341 c 0,25,26
 362 341 362 341 370.5 337.5 c 128,-1,27
 379 334 379 334 379 323 c 0,28,29
 379 288 379 288 365 261 c 0,30,31
 345 221 345 221 305 221 c 2,32,-1
 232 221 l 1,33,34
 271 240 271 240 280 245 c 0,35,36
 322 268 322 268 335 287 c 1,0,1
542.902 114.713 m 2,37,38
 532.059 209.052 532.059 209.052 509.704 319.962 c 0,39,40
 485.196 441.571 485.196 441.571 463.536 498.879 c 1,41,-1
 510.812 583.976 l 1,42,43
 521.717 552.203 521.717 552.203 534.271 487.158 c 0,44,45
 551.634 397.208 551.634 397.208 563.317 286.706 c 128,-1,46
 575 176.204 575 176.204 575 106 c 2,47,-1
 575 15 l 1,48,-1
 148 15 l 2,49,50
 112.938 15 112.938 15 90.5869 33.5352 c 0,51,52
 63 56.4141 63 56.4141 63 112 c 0,53,54
 63 160.665 63 160.665 76.667 203.489 c 0,55,56
 83.8333 225.944 83.8333 225.944 93.6689 245.887 c 1,57,58
 83 211.532 83 211.532 83 184 c 0,59,60
 83 146.778 83 146.778 106.389 123.402 c 0,61,62
 131.805 98 131.805 98 181 98 c 2,63,-1
 544.822 98 l 1,64,-1
 542.902 114.713 l 2,37,38
EndSplineSet
Validated: 1
EndChar

StartChar: lam
Encoding: 1604 1604 34
Width: 637
GlyphClass: 2
Flags: W
AnchorPoint: "ArabicBelow" 253 -299 basechar 0
AnchorPoint: "ArabicAbove" 429 730 basechar 0
LayerCount: 2
Fore
SplineSet
140 13 m 0,0,1
 140 -119 140 -119 287 -119 c 0,2,3
 341.283 -119 341.283 -119 400.248 -93.3579 c 0,4,5
 458.851 -67.1332 458.851 -67.1332 492 -32.8896 c 1,6,-1
 492 -27 l 2,7,8
 492 20.8174 492 20.8174 474.084 138.273 c 0,9,10
 447 309 447 309 407.96 464.76 c 1,11,-1
 448.368 551.845 l 1,12,13
 480.342 451.937 480.342 451.937 496.432 284.1 c 0,14,15
 512 116.262 512 116.262 512 36 c 2,16,-1
 512 -31 l 2,17,18
 512 -96.9326 512 -96.9326 433.247 -148.966 c 128,-1,19
 354.493 -201 354.493 -201 252 -201 c 0,20,21
 194.632 -201 194.632 -201 159.816 -166.626 c 128,-1,22
 125 -132.252 125 -132.252 125 -62 c 0,23,24
 125 -10.8049 125 -10.8049 142.545 46.887 c 1,25,26
 140 29.4501 140 29.4501 140 13 c 0,0,1
EndSplineSet
Validated: 1
EndChar

StartChar: meem
Encoding: 1605 1605 35
Width: 637
GlyphClass: 2
Flags: W
AnchorPoint: "ArabicBelow" 249 -369 basechar 0
AnchorPoint: "ArabicAbove" 276 478 basechar 0
LayerCount: 2
Fore
SplineSet
222.822 44.2314 m 1,0,-1
 240.325 -37.1045 l 2,1,2
 253.348 -99.0381 253.348 -99.0381 259.174 -137.274 c 0,3,4
 268 -195.195 268 -195.195 268 -236 c 0,5,6
 268 -251.693 268 -251.693 255.315 -279.857 c 1,7,8
 251.805 -218.041 251.805 -218.041 235.532 -154.281 c 0,9,10
 230.675 -135.247 230.675 -135.247 197.279 -31.4043 c 0,11,12
 178 28.541 178 28.541 178 55 c 0,13,14
 178 84.5811 178 84.5811 197.713 116.039 c 0,15,16
 219.755 151.214 219.755 151.214 253.499 167.481 c 0,17,18
 273.666 177.203 273.666 177.203 292.224 181.359 c 0,19,20
 297.309 182.498 297.309 182.498 308.739 184.711 c 128,-1,21
 320.169 186.924 320.169 186.924 326.436 188.399 c 2,22,-1
 355.189 195.164 l 1,23,-1
 332.762 214.39 l 2,24,25
 319.03 226.159 319.03 226.159 312.053 230.651 c 0,26,27
 295.978 241 295.978 241 283 241 c 0,28,29
 255.078 241.001 255.078 241.001 223.841 224.181 c 2,30,-1
 222.041 223.184 l 1,31,-1
 228.25 242.315 l 2,32,33
 242.135 284.717 242.135 284.717 257.485 307.687 c 0,34,35
 277.743 338 277.743 338 296 338 c 128,-1,36
 314.067 338 314.067 338 343.427 310.368 c 2,37,-1
 402.416 248.377 l 2,38,39
 431.346 221.057 431.346 221.057 454.461 210.737 c 1,40,-1
 418.557 115.79 l 1,41,42
 394.066 114.854 394.066 114.854 350.121 109.243 c 128,-1,43
 306.175 103.633 306.175 103.633 281.524 93.9639 c 0,44,45
 250.735 81.8877 250.735 81.8877 241.067 74.335 c 128,-1,46
 231.398 66.7822 231.398 66.7822 227.348 59.6396 c 0,47,48
 223.849 53.4697 223.849 53.4697 223.093 46.6572 c 2,49,-1
 222.913 45.04 l 1,50,-1
 222.822 44.2314 l 1,0,-1
EndSplineSet
Validated: 33
EndChar

StartChar: noon
Encoding: 1606 1606 36
Width: 637
GlyphClass: 2
InSpiro: 1
Flags: W
AnchorPoint: "ArabicBelow" 321 -175.5 basechar 0
AnchorPoint: "ArabicAbove" 310.5 458 basechar 0
LayerCount: 2
Fore
SplineSet
371 307 m 1,0,-1
 314 250 l 1,1,-1
 253 312 l 1,2,-1
 309 369 l 1,3,-1
 371 307 l 1,0,-1
  Spiro
    371 307 v
    314 250 v
    253 312 v
    309 369 v
    0 0 z
  EndSpiro
EndSplineSet
Refer: 266 1722 S 1 0 0 1 0 0 2
EndChar

StartChar: heh
Encoding: 1607 1607 37
Width: 637
GlyphClass: 2
Flags: W
AnchorPoint: "ArabicBelow" 291 -118 basechar 0
AnchorPoint: "ArabicAbove" 348.5 523 basechar 0
LayerCount: 2
Fore
SplineSet
353.153 419.307 m 1,0,1
 438.961 246.749 438.961 246.749 438.961 145.15 c 128,-1,2
 438.961 43.5498 438.961 43.5498 412.951 13.2061 c 128,-1,3
 386.942 -17.1377 386.942 -17.1377 320.736 -17.1377 c 0,4,5
 188.641 -17.1377 188.641 -17.1377 188.641 67.6055 c 0,6,7
 188.641 145.082 188.641 145.082 265.417 244.726 c 0,8,9
 290.904 277.803 290.904 277.803 321.109 308.01 c 2,10,-1
 334.939 321.837 l 1,11,-1
 295.729 361.049 l 1,12,-1
 353.153 419.307 l 1,0,1
  Spiro
    438.961 143.223 o
    432.458 60.8822 o
    412.951 13.2059 o
    374.507 -9.55213 o
    311.193 -17.1381 o
    260.724 -12.0415 o
    222.644 3.24825 o
    197.141 30.2074 o
    188.641 67.6056 o
    194.049 112.496 o
    210.272 158.42 o
    232.735 198.625 o
    265.417 244.725 o
    292.084 277.086 o
    321.109 308.009 [
    334.94 321.837 v
    295.728 361.048 v
    353.153 419.307 v
    364.981 394.731 o
    376.729 368.731 o
    400.392 310.373 o
    418.906 255.003 o
    433.948 193.175 o
    0 0 z
  EndSpiro
327.666 82.4375 m 0,13,14
 422.582 78.3958 422.582 78.3958 409.034 145.565 c 0,15,16
 390.076 239.56 390.076 239.56 335.288 230.78 c 128,-1,17
 280.5 222 280.5 222 243.295 131.617 c 1,18,19
 235.5 87 235.5 87 327.666 82.4375 c 0,13,14
EndSplineSet
Validated: 33
EndChar

StartChar: waw
Encoding: 1608 1608 38
Width: 637
GlyphClass: 2
InSpiro: 1
Flags: W
AnchorPoint: "ArabicBelow" 313 -299 basechar 0
AnchorPoint: "ArabicAbove" 345 457 basechar 0
LayerCount: 2
Fore
SplineSet
425.06 50 m 1,0,-1
 312 50 l 2,1,2
 307.17 50.0224 307.17 50.0224 302.399 50.6521 c 0,3,4
 297.716 51.8416 297.716 51.8416 293.485 54.1626 c 0,5,6
 286.229 60.4597 286.229 60.4597 282 69.25 c 0,7,8
 277.67 83.2533 277.67 83.2533 275.445 97.8324 c 128,-1,9
 273.259 112.366 273.259 112.366 272 127 c 0,10,11
 272.068 154.684 272.068 154.684 277.022 182.011 c 0,12,13
 283.281 209.788 283.281 209.788 292.087 236.845 c 0,14,15
 303.192 265.25 303.192 265.25 321.186 289.461 c 0,16,17
 328.518 296.701 328.518 296.701 337.266 302.08 c 0,18,19
 346.747 306.14 346.747 306.14 357 307 c 0,20,21
 366.751 306.111 366.751 306.111 375.819 302.352 c 0,22,23
 384.26 297.418 384.26 297.418 391.501 290.807 c 0,24,25
 409.937 268.526 409.937 268.526 422.601 242.229 c 0,26,27
 434.529 213.221 434.529 213.221 443 183 c 0,28,29
 450.742 144.407 450.742 144.407 452 105 c 2,30,-1
 452 55 l 2,31,32
 450.328 2.74835 450.328 2.74835 439.431 -48.2588 c 0,33,34
 424.972 -94.6822 424.972 -94.6822 401.724 -137.207 c 0,35,36
 376.23 -172.297 376.23 -172.297 341.905 -198.552 c 0,37,38
 304.529 -217.766 304.529 -217.766 263 -219 c 0,39,40
 247.32 -216.4 247.32 -216.4 232.476 -210.715 c 0,41,42
 213.257 -200.624 213.257 -200.624 197.338 -185.861 c 1,43,44
 237.673 -170.563 237.673 -170.563 275.939 -150.639 c 0,45,46
 312.992 -128.663 312.992 -128.663 347.37 -102.713 c 0,47,48
 383.157 -72.2832 383.157 -72.2832 409.642 -34.0451 c 0,49,50
 417.357 -18.3948 417.357 -18.3948 421.907 -1.56813 c 0,51,52
 424.54 15.6291 424.54 15.6291 424.877 33.0811 c 2,53,-1
 425.06 50 l 1,0,-1
  Spiro
    425.06 50 v
    312 50 ]
    282 69.25 o
    272 127 o
    277.022 182.011 o
    292.087 236.845 o
    321.186 289.461 o
    357 307 o
    391.501 290.807 o
    422.601 242.229 o
    443 183 o
    452 105 [
    452 55 ]
    439.431 -48.2588 o
    401.724 -137.207 o
    341.905 -198.552 o
    263 -219 o
    232.476 -210.715 o
    197.338 -185.861 v
    275.939 -150.639 o
    347.37 -102.713 o
    409.642 -34.0451 o
    424.877 33.0811 [
    0 0 z
  EndSpiro
300 180 m 0,54,55
 296.323 169.879 296.323 169.879 294.331 159.312 c 0,56,57
 293.734 153.961 293.734 153.961 293.97 148.592 c 0,58,59
 294.774 143.238 294.774 143.238 297.163 138.43 c 0,60,61
 299.607 135.251 299.607 135.251 303.051 133.237 c 0,62,63
 306.84 132.083 306.84 132.083 310.856 132.004 c 2,64,-1
 424.839 132 l 1,65,66
 424.185 142.899 424.185 142.899 421.523 153.49 c 0,67,68
 417.079 165.744 417.079 165.744 410.308 176.899 c 0,69,70
 400.31 190.147 400.31 190.147 387.994 201.315 c 0,71,72
 375.967 210.945 375.967 210.945 362.697 218.715 c 0,73,74
 353.562 222.935 353.562 222.935 343.677 224 c 0,75,76
 334.97 222.935 334.97 222.935 327.253 218.69 c 0,77,78
 320.407 213.25 320.407 213.25 314.889 206.405 c 0,79,80
 306.274 193.863 306.274 193.863 300 180 c 0,54,55
  Spiro
    300 180 o
    297.163 138.43 o
    310.856 132.004 [
    424.839 132 v
    421.523 153.49 o
    410.308 176.899 o
    387.994 201.315 o
    362.697 218.715 o
    343.677 224 o
    314.889 206.405 o
    0 0 z
  EndSpiro
EndSplineSet
Validated: 1
EndChar

StartChar: alefmaksura
Encoding: 1609 1609 39
Width: 637
GlyphClass: 2
Flags: W
AnchorPoint: "ArabicBelow" 255 -184 basechar 0
AnchorPoint: "ArabicAbove" 255 451 basechar 0
LayerCount: 2
Fore
SplineSet
363.559 175.976 m 2,0,1
 379.691 166.758 379.691 166.758 444.845 150.01 c 128,-1,2
 510 133.262 510 133.262 510 106 c 2,3,-1
 510 60 l 2,4,5
 510 2.41699 510 2.41699 462.564 -35.1694 c 128,-1,6
 415.128 -72.7559 415.128 -72.7559 350.641 -88.8779 c 128,-1,7
 286.154 -105 286.154 -105 234 -105 c 0,8,9
 146.749 -105 146.749 -105 113.181 -71.9591 c 128,-1,10
 79.6135 -38.9182 79.6135 -38.9182 81 36 c 0,11,12
 81.878 83.4433 81.878 83.4433 101.049 146.219 c 1,13,-1
 116 143 l 17,14,15
 103.011 30.0923 103.011 30.0923 140.917 2.34917 c 128,-1,16
 178.824 -25.394 178.824 -25.394 241.025 -25.1188 c 128,-1,17
 303.227 -24.8436 303.227 -24.8436 390 -7 c 0,18,19
 440.904 3.19238 440.904 3.19238 478.37 33.9355 c 1,20,-1
 488.666 48.2061 l 1,21,-1
 477.387 60.5723 l 2,22,23
 473.873 64.4253 473.873 64.4253 408.313 81.1079 c 128,-1,24
 342.754 97.7903 342.754 97.7903 330.819 112.251 c 0,25,26
 330.733 112.356 330.733 112.356 330.366 133.675 c 128,-1,27
 330 154.995 330 154.995 340.908 194.989 c 0,28,29
 369.872 301.179 369.872 301.179 433.176 371.996 c 0,30,31
 476.088 420 476.088 420 505.04 420 c 128,-1,32
 533.991 420 533.991 420 544.995 410.996 c 0,33,34
 564.539 395.004 564.539 395.004 547.381 318.354 c 0,35,36
 545.668 310.701 545.668 310.701 543.187 302.363 c 1,37,38
 529.255 335 529.255 335 497.878 335 c 128,-1,39
 466.5 335 466.5 335 434.254 307.674 c 0,40,41
 376.853 259.029 376.853 259.029 356.663 193.41 c 2,42,-1
 353.132 181.934 l 1,43,-1
 363.559 175.976 l 2,0,1
  Spiro
    363.559 175.976 ]
    391.947 164.875 o
    444.845 150.01 o
    493.711 130.633 o
    510 106 [
    510 60 ]
    498.141 7.41614 o
    462.564 -35.1694 o
    410.865 -67.3898 o
    350.641 -88.8779 o
    289.237 -100.969 o
    234 -105 o
    160.343 -96.9104 o
    113.875 -72.6416 o
    88.5255 -28.6195 o
    81 36 o
    86.4513 87.2764 o
    101.049 146.219 v
    116 143 v
    115.255 51.7962 o
    139 4 o
    186.412 -17.947 o
    249 -25 o
    311.363 -20.4218 o
    390 -7 o
    437.544 8.33007 o
    478.37 33.9355 ]
    488.666 48.2061 v
    477.387 60.5723 [
    458.361 67.6327 o
    408.313 81.1079 o
    356.16 97.2349 o
    330.819 112.251 o
    330.663 117.66 o
    330.366 133.675 o
    332.818 159.663 o
    340.908 194.989 o
    378.457 292.336 o
    433.176 371.996 o
    472.598 407.999 o
    505.04 420 o
    529.504 417.749 o
    544.995 410.996 o
    555.363 379.84 o
    547.381 318.354 o
    545.476 310.53 o
    543.187 302.363 v
    524.894 326.841 o
    497.878 335 o
    466.283 328.169 o
    434.254 307.674 o
    386.156 254.786 o
    356.663 193.41 [
    353.132 181.934 v
    0 0 z
  EndSpiro
EndSplineSet
Validated: 33
EndChar

StartChar: yeh
Encoding: 1610 1610 40
Width: 637
GlyphClass: 2
Flags: W
AnchorPoint: "ArabicBelow" 282 -367 basechar 0
AnchorPoint: "ArabicAbove" 255 430 basechar 0
LayerCount: 2
Fore
SplineSet
250 -250 m 1,0,-1
 193 -307 l 1,1,-1
 132 -245 l 1,2,-1
 189 -188 l 1,3,-1
 250 -250 l 1,0,-1
434 -248 m 1,4,-1
 377 -305 l 1,5,-1
 315 -244 l 1,6,-1
 372 -186 l 1,7,-1
 434 -248 l 1,4,-1
EndSplineSet
Refer: 39 1609 S 1 0 0 1 -0.000396729 -0.000411987 2
Validated: 1
EndChar

StartChar: fathatan
Encoding: 1611 1611 41
Width: 0
VWidth: 1120
GlyphClass: 4
Flags: W
AnchorPoint: "ArabicAboveLigature" 117 697 mark 0
AnchorPoint: "ArabicAbove" 117 697 mark 0
LayerCount: 2
Fore
SplineSet
241 965 m 1,0,1
 226 933 226 933 220 923 c 0,2,3
 205 903 205 903 182 893 c 2,4,-1
 -13 807 l 1,5,6
 -1 837 -1 837 9 850 c 0,7,8
 23 871 23 871 46 882 c 2,9,-1
 241 965 l 1,0,1
236 855 m 1,10,11
 224 826 224 826 214 814 c 0,12,13
 200 793 200 793 176 783 c 2,14,-1
 -17 696 l 1,15,16
 -6 725 -6 725 4 739 c 0,17,18
 19 760 19 760 42 771 c 2,19,-1
 236 855 l 1,10,11
EndSplineSet
Validated: 1
EndChar

StartChar: dammatan
Encoding: 1612 1612 42
Width: 0
VWidth: 1398
GlyphClass: 4
Flags: W
AnchorPoint: "ArabicAboveLigature" 140.567 673.356 mark 0
AnchorPoint: "ArabicAbove" 140.567 673.356 mark 0
LayerCount: 2
Fore
SplineSet
230 764 m 0,0,1
 230 751 230 751 227 743 c 128,-1,2
 224 735 224 735 216 735 c 0,3,4
 213 735 213 735 206.5 738.5 c 128,-1,5
 200 742 200 742 193 748 c 2,6,-1
 180 759 l 1,7,-1
 168 768 l 1,8,9
 146 747 146 747 124.5 729 c 128,-1,10
 103 711 103 711 84 699 c 128,-1,11
 65 687 65 687 48.5 680.5 c 128,-1,12
 32 674 32 674 20 674 c 0,13,14
 14 674 14 674 11 676 c 128,-1,15
 8 678 8 678 8 680.5 c 128,-1,16
 8 683 8 683 12 691 c 128,-1,17
 16 699 16 699 21 709.5 c 128,-1,18
 26 720 26 720 30 732.5 c 128,-1,19
 34 745 34 745 34 755 c 0,20,21
 34 760 34 760 33 767 c 128,-1,22
 32 774 32 774 29 779.5 c 128,-1,23
 26 785 26 785 20.5 788 c 128,-1,24
 15 791 15 791 7 791 c 0,25,26
 -4 791 -4 791 -9.5 784.5 c 128,-1,27
 -15 778 -15 778 -18.5 769.5 c 128,-1,28
 -22 761 -22 761 -23 754 c 128,-1,29
 -24 747 -24 747 -26 747 c 0,30,31
 -30 747 -30 747 -32 750 c 128,-1,32
 -34 753 -34 753 -34 759 c 0,33,34
 -34 770 -34 770 -31.5 786 c 128,-1,35
 -29 802 -29 802 -24 817 c 128,-1,36
 -19 832 -19 832 -9.5 843 c 128,-1,37
 -0 854 -0 854 14 854 c 0,38,39
 36 854 36 854 47 843 c 128,-1,40
 58 832 58 832 63 808 c 0,41,42
 65 794 65 794 64.5 771 c 128,-1,43
 64 748 64 748 63 731 c 1,44,45
 84 738 84 738 104 754 c 128,-1,46
 124 770 124 770 140 787 c 1,47,48
 133 793 133 793 125.5 797.5 c 128,-1,49
 118 802 118 802 111 808.5 c 128,-1,50
 104 815 104 815 100 824 c 128,-1,51
 96 833 96 833 96 847 c 0,52,53
 96 864 96 864 102 881.5 c 128,-1,54
 108 899 108 899 119 913 c 128,-1,55
 130 927 130 927 145 936 c 128,-1,56
 160 945 160 945 178 945 c 0,57,58
 189 945 189 945 197.5 939.5 c 128,-1,59
 206 934 206 934 212 926.5 c 128,-1,60
 218 919 218 919 221 909 c 128,-1,61
 224 899 224 899 224 890 c 0,62,63
 224 882 224 882 222 873 c 128,-1,64
 220 864 220 864 216.5 855 c 128,-1,65
 213 846 213 846 209 836.5 c 128,-1,66
 205 827 205 827 202 820 c 1,67,68
 215 808 215 808 222.5 796 c 128,-1,69
 230 784 230 784 230 764 c 0,0,1
172 842 m 1,70,71
 177 851 177 851 177.5 861 c 128,-1,72
 178 871 178 871 174.5 879 c 128,-1,73
 171 887 171 887 164 892.5 c 128,-1,74
 157 898 157 898 147 898 c 0,75,76
 142 898 142 898 138 894 c 128,-1,77
 134 890 134 890 134 884 c 0,78,79
 134 875 134 875 142.5 865.5 c 128,-1,80
 151 856 151 856 172 842 c 1,70,71
EndSplineSet
Validated: 33
EndChar

StartChar: kasratan
Encoding: 1613 1613 43
Width: 0
VWidth: 1732
GlyphClass: 4
Flags: W
AnchorPoint: "ArabicBelowLigature" 117 -313 mark 0
AnchorPoint: "ArabicBelow" 117 -313 mark 0
LayerCount: 2
Fore
SplineSet
240 -259 m 1,0,1
 225 -291 225 -291 218 -302 c 0,2,3
 204 -321 204 -321 181 -332 c 2,4,-1
 -15 -417 l 1,5,6
 2 -380 2 -380 14 -365.5 c 128,-1,7
 26 -351 26 -351 45 -344 c 2,8,-1
 240 -259 l 1,0,1
235 -370 m 1,9,10
 223 -398 223 -398 214 -411 c 0,11,12
 199 -432 199 -432 176 -442 c 2,13,-1
 -18 -528 l 1,14,15
 -7 -500 -7 -500 3 -486 c 0,16,17
 18 -464 18 -464 41 -454 c 2,18,-1
 235 -370 l 1,9,10
EndSplineSet
Validated: 1
EndChar

StartChar: fathah
Encoding: 1614 1614 44
Width: 0
VWidth: 1144
GlyphClass: 4
Flags: W
AnchorPoint: "ArabicAboveLigature" 149.818 724.273 mark 0
AnchorPoint: "ArabicAbove" 149.727 724.455 mark 0
LayerCount: 2
Fore
SplineSet
262 862 m 1,0,1
 246 826 246 826 233.5 812 c 128,-1,2
 221 798 221 798 203 790 c 2,3,-1
 9 705 l 1,4,5
 21 734 21 734 29 747 c 0,6,7
 45 769 45 769 68 779 c 2,8,-1
 262 862 l 1,0,1
EndSplineSet
Validated: 1
EndChar

StartChar: dammah
Encoding: 1615 1615 45
Width: 0
VWidth: 1398
GlyphClass: 4
Flags: W
AnchorPoint: "ArabicAboveLigature" 123 676 mark 0
AnchorPoint: "ArabicAbove" 123 676 mark 0
LayerCount: 2
Fore
SplineSet
194 800 m 0,0,1
 194 796 194 796 192.5 788.5 c 128,-1,2
 191 781 191 781 188 772 c 0,3,4
 187 760 187 760 186 751 c 128,-1,5
 185 742 185 742 183 742 c 0,6,7
 172 742 172 742 158 752 c 128,-1,8
 144 762 144 762 130 775 c 1,9,10
 94 727 94 727 63.5 703.5 c 128,-1,11
 33 680 33 680 10 680 c 0,12,13
 0 680 0 680 -12.5 683.5 c 128,-1,14
 -25 687 -25 687 -34 691 c 1,15,16
 -18 699 -18 699 0.5 711 c 128,-1,17
 19 723 19 723 37 736.5 c 128,-1,18
 55 750 55 750 71.5 764.5 c 128,-1,19
 88 779 88 779 99 796 c 1,20,21
 81 808 81 808 71.5 821 c 128,-1,22
 62 834 62 834 62 852 c 0,23,24
 62 867 62 867 68.5 886.5 c 128,-1,25
 75 906 75 906 85.5 923 c 128,-1,26
 96 940 96 940 110 952 c 128,-1,27
 124 964 124 964 138 964 c 0,28,29
 151 964 151 964 159.5 959 c 128,-1,30
 168 954 168 954 173.5 945.5 c 128,-1,31
 179 937 179 937 181.5 925.5 c 128,-1,32
 184 914 184 914 184 902 c 0,33,34
 184 880 184 880 178 861.5 c 128,-1,35
 172 843 172 843 164 826 c 1,36,37
 167 823 167 823 172.5 819 c 128,-1,38
 178 815 178 815 183 811 c 2,39,-1
 191 804 l 2,40,41
 194 802 194 802 194 800 c 0,0,1
142 871 m 0,42,43
 142 884 142 884 132 893.5 c 128,-1,44
 122 903 122 903 109 903 c 0,45,46
 105 903 105 903 102 900 c 128,-1,47
 99 897 99 897 99 894 c 0,48,49
 99 888 99 888 107.5 875 c 128,-1,50
 116 862 116 862 133 848 c 1,51,52
 136 854 136 854 139 859 c 128,-1,53
 142 864 142 864 142 871 c 0,42,43
EndSplineSet
Validated: 1
EndChar

StartChar: kasrah
Encoding: 1616 1616 46
Width: 0
VWidth: 1746
GlyphClass: 4
Flags: W
AnchorPoint: "ArabicBelowLigature" 131 -389 mark 0
AnchorPoint: "ArabicBelow" 131 -389 mark 0
LayerCount: 2
Fore
SplineSet
241 -342 m 1,0,1
 225 -379 225 -379 212.5 -392.5 c 128,-1,2
 200 -406 200 -406 181 -415 c 2,3,-1
 -13 -499 l 1,4,5
 -1 -470 -1 -470 8 -458 c 0,6,7
 23 -436 23 -436 46 -426 c 2,8,-1
 241 -342 l 1,0,1
EndSplineSet
Validated: 1
EndChar

StartChar: shaddah
Encoding: 1617 1617 47
Width: 0
VWidth: 1130
GlyphClass: 4
Flags: W
AnchorPoint: "ArabicAboveLigature" 134.25 695.5 mark 0
AnchorPoint: "ArabicAbove" 134.25 695.5 mark 0
LayerCount: 2
Fore
SplineSet
247 859 m 0,0,1
 247 750 247 750 173 750 c 0,2,3
 158 750 158 750 149 752.5 c 128,-1,4
 140 755 140 755 126 764 c 1,5,6
 121 740 121 740 98 720.5 c 128,-1,7
 75 701 75 701 48 701 c 256,8,9
 20 701 20 701 6 717 c 128,-1,10
 -8 733 -8 733 -8 770 c 0,11,12
 -8 784 -8 784 -4.5 804.5 c 128,-1,13
 -1 825 -1 825 4 841 c 1,14,-1
 21 843 l 1,15,16
 21 803 21 803 30 785.5 c 128,-1,17
 39 768 39 768 56 768 c 0,18,19
 81 768 81 768 96 796.5 c 128,-1,20
 111 825 111 825 116 882 c 1,21,-1
 129 886 l 1,22,23
 134 864 134 864 139 843 c 0,24,25
 148 817 148 817 173 817 c 0,26,27
 209 817 209 817 216 861 c 0,28,29
 218 875 218 875 218 912 c 1,30,-1
 235 919 l 1,31,32
 238 907 238 907 242.5 891 c 128,-1,33
 247 875 247 875 247 859 c 0,0,1
EndSplineSet
Validated: 1
EndChar

StartChar: sukun
Encoding: 1618 1618 48
Width: 0
VWidth: 1125
GlyphClass: 4
Flags: W
AnchorPoint: "ArabicAboveLigature" 98 662 mark 0
AnchorPoint: "ArabicAbove" 98 662 mark 0
LayerCount: 2
Fore
SplineSet
199 817 m 0,0,1
 199 709 199 709 97 709 c 0,2,3
 59 709 59 709 36.5 728.5 c 128,-1,4
 14 748 14 748 14 782 c 0,5,6
 14 837 14 837 44 884.5 c 128,-1,7
 74 932 74 932 118 932 c 0,8,9
 152 932 152 932 175.5 897.5 c 128,-1,10
 199 863 199 863 199 817 c 0,0,1
168 804 m 0,11,12
 168 825 168 825 148 849 c 0,13,14
 125 877 125 877 96 877 c 0,15,16
 78 877 78 877 60 859 c 128,-1,17
 42 841 42 841 42 818 c 0,18,19
 42 770 42 770 112 770 c 0,20,21
 137 770 137 770 152.5 779.5 c 128,-1,22
 168 789 168 789 168 804 c 0,11,12
EndSplineSet
Validated: 1
EndChar

StartChar: arabicindicdigitzero
Encoding: 1632 1632 49
Width: 637
GlyphClass: 2
Flags: W
LayerCount: 2
Fore
SplineSet
367.729 211.854 m 5,0,1
 360.322 197.087 360.322 197.087 356.339 186.223 c 6,2,-1
 337.604 133.722 l 5,3,4
 318.392 144.916 318.392 144.916 300.119 158.91 c 4,5,6
 282.621 172.311 282.621 172.311 265.834 187.78 c 5,7,8
 270.653 204.422 270.653 204.422 278.859 225.47 c 132,-1,9
 287.064 246.519 287.064 246.519 296.795 265.996 c 5,10,11
 313.595 249.914 313.595 249.914 331.436 236.162 c 132,-1,12
 349.276 222.41 349.276 222.41 367.729 211.854 c 5,0,1
EndSplineSet
Validated: 1
EndChar

StartChar: arabicindicdigitone
Encoding: 1633 1633 50
Width: 637
GlyphClass: 2
Flags: W
LayerCount: 2
Fore
SplineSet
380 98 m 0,0,1
 380 69 380 69 380 40 c 9,2,-1
 368 40 l 1,3,4
 363 90 l 2,5,6
 355.222 167.78 355.222 167.78 304 269 c 0,7,8
 286.663 303.26 286.663 303.26 258 342 c 1,9,-1
 280 442 l 1,10,-1
 299 415 l 2,11,12
 312.039 396.471 312.039 396.471 328 366 c 0,13,14
 339 345 339 345 347 323 c 0,15,16
 363 276 363 276 371.5 214.5 c 128,-1,17
 380 153 380 153 380 98 c 0,0,1
EndSplineSet
EndChar

StartChar: arabicindicdigittwo
Encoding: 1634 1634 51
Width: 637
GlyphClass: 2
Flags: W
LayerCount: 2
Fore
SplineSet
303.69 22.7314 m 1,0,1
 302.533 77.7738 302.533 77.7738 297.004 122.427 c 0,2,3
 290.696 173.377 290.696 173.377 274.588 220.661 c 128,-1,4
 258.48 267.944 258.48 267.944 230.601 311.137 c 0,5,6
 208.31 345.671 208.31 345.671 178.521 377.413 c 1,7,-1
 202.531 475.64 l 1,8,-1
 219.729 455.107 l 2,9,10
 239.674 431.294 239.674 431.294 267.445 415.042 c 0,11,12
 298.275 397 298.275 397 332 397 c 0,13,14
 383.212 397 383.212 397 409.905 423.253 c 0,15,16
 432 445 432 445 454 484 c 1,17,-1
 463 484 l 1,18,19
 460.083 412.04 460.083 412.04 413.234 368.444 c 0,20,21
 368.698 327 368.698 327 318 327 c 2,22,-1
 298.914 327 l 1,23,-1
 303.425 308.455 l 2,24,25
 312.184 272.445 312.184 272.445 317.094 225.32 c 128,-1,26
 322.002 178.202 322.002 178.202 322 134 c 128,-1,27
 322 89.832 322 89.832 319 74 c 0,28,-1
 316 23 l 1,29,-1
 303.69 22.7314 l 1,0,1
EndSplineSet
EndChar

StartChar: arabicindicdigitthree
Encoding: 1635 1635 52
Width: 637
GlyphClass: 2
Flags: W
LayerCount: 2
Fore
SplineSet
360.188 460.509 m 1,0,1
 364.065 444.841 364.065 444.841 369.225 433.065 c 0,2,3
 381.974 403.963 381.974 403.963 398.758 396.178 c 0,4,5
 405.61 393 405.61 393 413 393 c 0,6,7
 467.903 395 467.903 395 471 459 c 1,8,9
 475 459 475 459 479 459 c 1,10,11
 471.73 399.158 471.73 399.158 461.824 370.902 c 0,12,13
 445.262 323 445.262 323 410 323 c 0,14,15
 378.178 323 378.178 323 347.979 357.375 c 1,16,-1
 341.77 338.743 l 2,17,18
 337.927 327.21 337.927 327.21 323.04 320.766 c 0,19,20
 309.722 315 309.722 315 298 315 c 2,21,-1
 279.364 315 l 1,22,-1
 283.347 296.795 l 2,23,24
 290.102 265.919 290.102 265.919 293.051 219.721 c 128,-1,25
 295.999 173.535 295.999 173.535 295 123.441 c 128,-1,26
 294 73.3477 294 73.3477 293 69 c 0,27,-1
 289 27 l 1,28,29
 283.232 27.0938 283.232 27.0938 277.463 27.1875 c 1,30,31
 275.927 75.7076 275.927 75.7076 269.987 117.688 c 0,32,33
 262.533 170.362 262.533 170.362 246.214 218.791 c 0,34,35
 231.232 263.253 231.232 263.253 209.721 302.274 c 128,-1,36
 188.21 341.295 188.21 341.295 160.324 376.609 c 1,37,-1
 182.712 468.195 l 1,38,39
 195.309 448.596 195.309 448.596 210.506 430.362 c 0,40,41
 248.318 385 248.318 385 282 385 c 0,42,43
 316.398 385 316.398 385 341.475 422.673 c 0,44,45
 352.48 439.208 352.48 439.208 360.188 460.509 c 1,0,1
EndSplineSet
EndChar

StartChar: arabicindicdigitfour
Encoding: 1636 1636 53
Width: 637
GlyphClass: 2
Flags: W
LayerCount: 2
Fore
SplineSet
425.824 83.3232 m 1,0,1
 415.509 68.6543 415.509 68.6543 407.302 58.3887 c 0,2,3
 372.613 15 372.613 15 359 15 c 0,4,5
 341.352 15 341.352 15 319.247 19.019 c 128,-1,6
 297.142 23.0381 297.142 23.0381 271.874 33.7998 c 0,7,8
 245.094 45.2054 245.094 45.2054 229.047 62.9863 c 128,-1,9
 213 80.7676 213 80.7676 213 90 c 0,10,11
 213 121.341 213 121.341 236.873 161.301 c 0,12,13
 255.264 192.083 255.264 192.083 281.979 220.779 c 2,14,-1
 295.639 235.452 l 1,15,-1
 277.687 244.427 l 1,16,-1
 255.117 255.438 l 2,17,18
 233.016 266.22 233.016 266.22 222.193 272.155 c 0,19,20
 203.179 282.583 203.179 282.583 198.336 291.556 c 1,21,22
 198 326.949 198 326.949 240.649 379.551 c 0,23,24
 280.75 429.008 280.75 429.008 345.189 472.635 c 1,25,-1
 318.273 393.136 l 1,26,27
 289.336 383.051 289.336 383.051 266.019 370.286 c 0,28,29
 249.815 361.416 249.815 361.416 246.462 357.914 c 0,30,31
 239.988 351.153 239.988 351.153 239.988 343.534 c 0,32,33
 239.988 343.161 239.988 343.161 240.155 339.275 c 128,-1,34
 240.321 335.39 240.321 335.39 245.351 329.276 c 0,35,36
 269.013 307.874 269.013 307.874 298.254 295.02 c 0,37,38
 337.563 277.74 337.563 277.74 347.257 269.312 c 1,39,40
 345.608 264.51 345.608 264.51 340.782 254.557 c 0,41,42
 333.506 239.55 333.506 239.55 329 234.225 c 0,43,44
 314.83 220.84 314.83 220.84 288.211 195.366 c 0,45,46
 261.639 168.344 261.639 168.344 258.052 156.712 c 0,47,48
 257 153.302 257 153.302 257 150 c 0,49,50
 257 134.386 257 134.386 271.588 120.205 c 0,51,52
 289.881 102.422 289.881 102.422 309.557 96.3086 c 128,-1,53
 329.233 90.1953 329.233 90.1953 361.395 87.1528 c 128,-1,54
 393.556 84.1104 393.556 84.1104 425.824 83.3232 c 1,0,1
EndSplineSet
Validated: 33
EndChar

StartChar: arabicindicdigitfive
Encoding: 1637 1637 54
Width: 637
GlyphClass: 2
Flags: W
LayerCount: 2
Fore
SplineSet
446 237 m 0,0,1
 446 131.301 446 131.301 412.702 83.5869 c 0,2,3
 378.794 35 378.794 35 299 35 c 0,4,5
 236.381 35 236.381 35 211.33 63.8301 c 0,6,7
 192 86.0771 192 86.0771 192 133 c 0,8,9
 192 194.504 192 194.504 208.877 278.408 c 128,-1,10
 225.755 362.312 225.755 362.312 251.818 424.166 c 0,11,12
 276.609 483 276.609 483 292 483 c 0,13,14
 318.231 483 318.231 483 352.195 453.648 c 0,15,16
 391.477 419.703 391.477 419.703 416.473 367.519 c 0,17,18
 446 305.874 446 305.874 446 237 c 0,0,1
305.087 118 m 128,-1,20
 355.733 118 355.733 118 390.867 148.288 c 128,-1,21
 426 178.575 426 178.575 426 220 c 0,22,23
 426 263.772 426 263.772 375.331 325.386 c 128,-1,24
 324.662 387 324.662 387 285 387 c 0,25,26
 273.339 387 273.339 387 267.395 381.894 c 0,27,28
 254.366 367.226 254.366 367.226 239.502 315.846 c 0,29,30
 226 265.644 226 265.644 227 220.064 c 128,-1,31
 228 174.484 228 174.484 235.413 158.645 c 0,32,19
 254.44 118 254.44 118 305.087 118 c 128,-1,20
EndSplineSet
Validated: 33
EndChar

StartChar: arabicindicdigitsix
Encoding: 1638 1638 55
Width: 637
GlyphClass: 2
Flags: W
LayerCount: 2
Fore
SplineSet
463.944 112.097 m 1,0,-1
 449.334 26.6299 l 1,1,2
 401.23 67.6055 401.23 67.6055 379.44 145.059 c 0,3,4
 357 224.823 357 224.823 357 365 c 2,5,-1
 357 393.029 l 1,6,-1
 333.68 377.48 l 2,7,8
 327.472 373.343 327.472 373.343 306.181 370.171 c 128,-1,9
 284.89 367 284.89 367 271 367 c 0,10,11
 243.23 367 243.23 367 223.046 373.143 c 128,-1,12
 202.861 379.286 202.861 379.286 191.106 390.083 c 0,13,14
 185.626 395.117 185.626 395.117 180.633 417.297 c 0,15,16
 174.78 443.3 174.78 443.3 173.413 482.809 c 1,17,18
 189.542 466.944 189.542 466.944 218.297 455.126 c 0,19,20
 255.102 440 255.102 440 290 440 c 0,21,22
 312.563 440 312.563 440 340.775 445.26 c 128,-1,23
 368.959 450.514 368.959 450.514 389.726 460.914 c 1,24,25
 384.638 431.949 384.638 431.949 382.447 409.161 c 0,26,27
 380 383.719 380 383.719 380 357 c 0,28,29
 380 296.551 380 296.551 404.547 223.411 c 128,-1,30
 429.094 150.271 429.094 150.271 463.944 112.097 c 1,0,-1
EndSplineSet
Validated: 1
EndChar

StartChar: arabicindicdigitseven
Encoding: 1639 1639 56
Width: 637
GlyphClass: 2
Flags: W
LayerCount: 2
Fore
SplineSet
485 394.009 m 1,0,1
 459.118 375.378 459.118 375.378 438.162 340.757 c 0,2,3
 420.15 311 420.15 311 399.082 258.591 c 0,4,5
 381.55 214.979 381.55 214.979 364.399 147.388 c 0,6,7
 351.345 95.9365 351.345 95.9365 342.995 43.5352 c 1,8,9
 337.961 67.5957 337.961 67.5957 330.34 92.9033 c 0,10,11
 317.447 135.721 317.447 135.721 297.854 182.749 c 0,12,13
 281.756 221.384 281.756 221.384 262.171 262.419 c 128,-1,14
 242.587 303.454 242.587 303.454 213.201 335.778 c 128,-1,15
 183.814 368.103 183.814 368.103 153.72 385.154 c 1,16,-1
 171.294 482.192 l 1,17,18
 198.623 467.913 198.623 467.913 219.206 446.585 c 0,19,20
 245.202 419.647 245.202 419.647 268.709 375.052 c 0,21,22
 282.725 348.46 282.725 348.46 297.583 302.862 c 128,-1,23
 312.44 257.265 312.44 257.265 322.28 207.113 c 0,24,25
 324.652 195.024 324.652 195.024 336.975 195.012 c 128,-1,26
 349.297 195 349.297 195 351.709 207.059 c 0,27,28
 359.593 246.474 359.593 246.474 368.903 279.058 c 128,-1,29
 378.217 311.654 378.217 311.654 390.914 343.401 c 0,30,31
 414.931 403.444 414.931 403.444 439.159 434.211 c 128,-1,32
 463.388 464.978 463.388 464.978 485 481.146 c 1,33,-1
 485 394.009 l 1,0,1
EndSplineSet
Validated: 33
EndChar

StartChar: arabicindicdigiteight
Encoding: 1640 1640 57
Width: 637
GlyphClass: 2
Flags: W
LayerCount: 2
Fore
SplineSet
152 105.844 m 1,0,1
 178.086 124.111 178.086 124.111 198.916 159.373 c 0,2,3
 216.053 188.384 216.053 188.384 237.867 241.282 c 0,4,5
 257.342 288.507 257.342 288.507 273.572 354.41 c 0,6,7
 285.995 404.857 285.995 404.857 294.178 457.246 c 1,8,9
 299.378 433.443 299.378 433.443 307.622 405.723 c 0,10,11
 320.937 360.955 320.937 360.955 339.146 317.251 c 0,12,13
 355.246 278.612 355.246 278.612 374.83 237.579 c 128,-1,14
 394.414 196.545 394.414 196.545 423.818 164.201 c 128,-1,15
 453.222 131.857 453.222 131.857 483.356 114.802 c 1,16,-1
 466.568 17.8848 l 1,17,18
 439.92 31.8848 439.92 31.8848 418.7 53.5127 c 0,19,20
 391.144 81.5988 391.144 81.5988 368.291 124.948 c 0,21,22
 354.248 151.586 354.248 151.586 339.394 197.685 c 128,-1,23
 324.54 243.784 324.54 243.784 314.709 292.941 c 0,24,25
 312.297 305 312.297 305 300 305 c 128,-1,26
 287.703 305 287.703 305 285.291 292.941 c 0,27,28
 277.382 253.401 277.382 253.401 269.128 222.998 c 128,-1,29
 260.868 192.568 260.868 192.568 246.159 156.776 c 0,30,31
 220.628 94.6514 220.628 94.6514 197.327 64.5854 c 128,-1,32
 174.026 34.5195 174.026 34.5195 152 18.4756 c 1,33,-1
 152 105.844 l 1,0,1
EndSplineSet
Validated: 1
EndChar

StartChar: arabicindicdigitnine
Encoding: 1641 1641 58
Width: 637
GlyphClass: 2
Flags: W
LayerCount: 2
Fore
SplineSet
445.997 112.033 m 1,0,-1
 432.163 26.8467 l 1,1,2
 392.639 60.1035 392.639 60.1035 371.877 110.696 c 0,3,4
 348 168.88 348 168.88 348 250 c 2,5,6
 348 278.031 l 1,7,8
 321 246 321 246 274 236 c 1,9,10
 230.213 236 230.213 236 210.106 256.106 c 128,-1,11
 190 276.213 190 276.213 190 325 c 0,12,13
 190 385.221 190 385.221 219.117 437.725 c 0,14,15
 249.771 493 249.771 493 289 493 c 0,16,17
 314.698 493 314.698 493 332.303 465.013 c 0,18,19
 348.01 440.043 348.01 440.043 357.283 393.1 c 0,20,21
 363.028 364.018 363.028 364.018 367.688 311.206 c 128,-1,22
 372.348 258.395 372.348 258.395 392.965 203.71 c 0,23,24
 414.628 146.249 414.628 146.249 445.997 112.033 c 1,0,-1
277 297 m 0,25,26
 298.957 297 298.957 297 313.979 314.752 c 128,-1,27
 329 332.505 329 332.505 329 351 c 0,28,29
 329 370.72 329 370.72 313.692 394.994 c 0,30,31
 293.509 427 293.509 427 265 427 c 0,32,33
 245.731 427 245.731 427 227.866 403.104 c 128,-1,34
 210 379.208 210 379.208 210 358 c 0,35,36
 210 332.79 210 332.79 231.37 314.895 c 128,-1,37
 252.739 297 252.739 297 277 297 c 0,25,26
EndSplineSet
EndChar

StartChar: arabicpercentsign
Encoding: 1642 1642 59
Width: 472
GlyphClass: 2
Flags: W
LayerCount: 2
Fore
SplineSet
435.125 76.1328 m 1,0,1
 427.719 61.3652 427.719 61.3652 423.735 50.501 c 2,2,-1
 405 -2 l 1,3,4
 385.788 9.19434 385.788 9.19434 367.516 23.1885 c 0,5,6
 350.018 36.5898 350.018 36.5898 333.23 52.0586 c 1,7,8
 338.05 68.7002 338.05 68.7002 346.256 89.748 c 128,-1,9
 354.46 110.798 354.46 110.798 364.191 130.274 c 1,10,11
 380.991 114.192 380.991 114.192 398.832 100.44 c 128,-1,12
 416.673 86.6885 416.673 86.6885 435.125 76.1328 c 1,0,1
144.934 617.858 m 1,13,14
 137.159 602.358 137.159 602.358 133.544 592.227 c 2,15,-1
 114.809 539.726 l 1,16,17
 95.5967 550.92 95.5967 550.92 77.3242 564.914 c 0,18,19
 59.8262 578.315 59.8262 578.315 43.0391 593.784 c 1,20,21
 47.8584 610.426 47.8584 610.426 56.0645 631.474 c 128,-1,22
 64.2686 652.523 64.2686 652.523 74 672 c 1,23,24
 90.7998 655.918 90.7998 655.918 108.641 642.166 c 128,-1,25
 126.481 628.414 126.481 628.414 144.934 617.858 c 1,13,14
436 680 m 1,26,-1
 95 0 l 1,27,-1
 43 0 l 1,28,-1
 383 680 l 1,29,-1
 436 680 l 1,26,-1
EndSplineSet
EndChar

StartChar: arabicfivepointedstar
Encoding: 1645 1645 60
Width: 637
GlyphClass: 2
Flags: W
LayerCount: 2
Fore
SplineSet
497 595 m 1,0,-1
 388 514 l 1,1,-1
 429 385 l 1,2,-1
 319 464 l 1,3,-1
 208 385 l 1,4,-1
 249 514 l 1,5,-1
 140 595 l 1,6,-1
 276 595 l 1,7,-1
 319 725 l 1,8,-1
 362 595 l 1,9,-1
 497 595 l 1,0,-1
EndSplineSet
Validated: 1
EndChar

StartChar: ornateleftparenthesis
Encoding: 64830 64830 61
Width: 637
GlyphClass: 2
Flags: W
LayerCount: 2
Fore
SplineSet
511 -207 m 1,0,-1
 473 -207 l 1,1,-1
 272 85 l 1,2,3
 251 85 251 85 240 95.5 c 128,-1,4
 229 106 229 106 229 126 c 0,5,6
 227 142 227 142 240 167 c 0,7,8
 242 171 242 171 246 178 c 1,9,10
 220 178 220 178 202 192 c 0,11,12
 181 208 181 208 181 238 c 0,13,14
 181 250 181 250 191 271 c 0,15,16
 194 279 194 279 201 291 c 1,17,18
 188 291 188 291 156 324 c 0,19,20
 145 335 145 335 126 357 c 1,21,22
 144 379 144 379 155 390 c 0,23,24
 188 424 188 424 201 424 c 1,25,26
 195 436 195 436 192 443 c 0,27,28
 181 465 181 465 181 477 c 0,29,30
 181 507 181 507 202 523 c 0,31,32
 220 537 220 537 246 537 c 1,33,34
 239 548 239 548 237 555 c 0,35,36
 228 576 228 576 229 589 c 0,37,38
 229 630 229 630 272 630 c 1,39,-1
 473 922 l 1,40,-1
 511 922 l 1,41,-1
 370 518 l 1,42,43
 382 511 382 511 387 505 c 4,44,45
 406 487 406 487 406 463 c 4,46,47
 406 441 406 441 387 423 c 0,48,49
 373 409 373 409 366 399 c 0,50,51
 362 393 362 393 351 368 c 0,52,53
 350 364 350 364 346 357 c 1,54,55
 349 352 349 352 350 348 c 0,56,57
 360 327 360 327 366 316 c 0,58,59
 367 316 367 316 393 287 c 0,60,61
 406 272 406 272 406 253 c 0,62,63
 406 229 406 229 387 210 c 0,64,65
 382 204 382 204 370 197 c 1,66,-1
 511 -207 l 1,0,-1
477 -180 m 1,67,68
 469 -155 469 -155 435 -57 c 0,69,70
 418 -10 418 -10 373 116 c 0,71,72
 357 160 357 160 342 204 c 1,73,74
 356 213 356 213 362 218 c 0,75,76
 383 237 383 237 383 254 c 0,77,78
 383 263 383 263 375 271 c 0,79,80
 365 279 365 279 361 283 c 1,81,82
 358 287 358 287 339 322 c 0,83,84
 333 334 333 334 321 357 c 1,85,86
 333 381 333 381 339 393 c 0,87,88
 358 430 358 430 361 432 c 0,89,90
 368 437 368 437 375 443 c 0,91,92
 383 452 383 452 383 461 c 0,93,94
 383 478 383 478 362 497 c 0,95,96
 356 502 356 502 342 511 c 1,97,98
 373 598 l 0,99,100
 418 725 418 725 434 771 c 0,101,102
 472 880 472 880 477 895 c 1,103,-1
 284 607 l 1,104,105
 279 606 279 606 272.5 605.5 c 128,-1,106
 266 605 266 605 263 604 c 0,107,108
 250 598 250 598 250 583 c 0,109,110
 250 569 250 569 269 541 c 0,111,112
 276 531 276 531 289 515 c 1,113,114
 286 515 286 515 280 516 c 128,-1,115
 274 517 274 517 271 517 c 0,116,117
 243 517 243 517 226 509 c 0,118,119
 204 498 204 498 204 476 c 0,120,121
 204 458 204 458 221 436 c 0,122,123
 226 429 226 429 238 417 c 1,124,125
 213 412 213 412 181 385 c 0,126,127
 171 376 171 376 154 357 c 1,128,129
 171 340 171 340 181 331 c 0,130,131
 214 303 214 303 238 298 c 1,132,133
 226 287 226 287 221 279 c 0,134,135
 204 257 204 257 204 240 c 0,136,137
 204 217 204 217 226 207 c 0,138,139
 243 199 243 199 271 199 c 0,140,141
 282 199 282 199 284.5 199 c 128,-1,142
 287 199 287 199 289 200 c 1,143,144
 276 184 276 184 270 175 c 0,145,146
 250 146 250 146 250 133 c 0,147,148
 250 117 250 117 263 111 c 0,149,150
 266 109 266 109 273 109 c 128,-1,151
 280 109 280 109 284 108 c 1,152,-1
 477 -180 l 1,67,68
327 623 m 1,153,154
 335 623 335 623 338 618 c 128,-1,155
 341 613 341 613 341 602 c 0,156,157
 341 583 341 583 328 548 c 0,158,159
 324 537 324 537 315 518 c 1,160,161
 302 532 302 532 296 541 c 0,162,163
 276 568 276 568 276 583 c 1,164,165
 276 581 276 581 286 581 c 0,166,167
 291 581 291 581 294 581 c 128,-1,168
 297 581 297 581 300 582 c 1,169,170
 308 582 308 582 315 601.5 c 128,-1,171
 322 621 322 621 327 623 c 1,153,154
358 460 m 1,172,173
 357 456 357 456 344 447 c 0,174,175
 340 444 340 444 332 437 c 1,176,177
 329 426 329 426 328 420 c 0,178,179
 321 403 321 403 312 403 c 0,180,181
 288 403 288 403 257.5 428 c 128,-1,182
 227 453 227 453 227 474 c 0,183,184
 227 488 227 488 266 492 c 0,185,186
 281 493 281 493 299 493 c 0,187,188
 321 493 321 493 340 482.5 c 128,-1,189
 359 472 359 472 358 460 c 1,172,173
308 339 m 1,190,191
 298 333 298 333 291 331 c 0,192,193
 270 321 270 321 253 321 c 256,194,195
 236 321 236 321 210 340 c 0,196,197
 201 345 201 345 187 357 c 1,198,199
 201 370 201 370 209 375 c 0,200,201
 235 394 235 394 253 394 c 256,202,203
 271 394 271 394 291 385 c 0,204,205
 298 382 298 382 308 376 c 1,206,-1
 301 357 l 1,207,-1
 308 339 l 1,190,191
358 254 m 1,208,209
 359 243 359 243 340 232.5 c 128,-1,210
 321 222 321 222 299 222 c 0,211,212
 271 222 271 222 255 225 c 0,213,214
 227 229 227 229 227 241 c 0,215,216
 227 262 227 262 257.5 287 c 128,-1,217
 288 312 288 312 312 312 c 0,218,219
 321 312 321 312 327 295 c 0,220,221
 329 290 329 290 332 278 c 1,222,223
 340 271 340 271 344 269 c 0,224,225
 357 258 357 258 358 254 c 1,208,209
327 92 m 1,226,227
 323 94 323 94 315.5 113.5 c 128,-1,228
 308 133 308 133 300 133 c 0,229,230
 296 133 296 133 292.5 133 c 128,-1,231
 289 133 289 133 284 134 c 0,232,233
 280 134 280 134 278 134 c 128,-1,234
 276 134 276 134 276 133 c 1,235,236
 276 147 276 147 295 174 c 0,237,238
 301 182 301 182 315 197 c 1,239,240
 324 178 324 178 328 167 c 0,241,242
 341 130 341 130 341 112 c 0,243,244
 341 92 341 92 327 92 c 1,226,227
EndSplineSet
Validated: 33
EndChar

StartChar: ornaterightparenthesis
Encoding: 64831 64831 62
Width: 637
GlyphClass: 2
Flags: W
LayerCount: 2
Fore
SplineSet
511 357 m 1,0,1
 492 336 492 336 482 324 c 0,2,3
 449 291 449 291 435 291 c 1,4,5
 442 279 442 279 445 272 c 0,6,7
 456 250 456 250 456 238 c 0,8,9
 456 208 456 208 435 192 c 0,10,11
 417 178 417 178 391 178 c 1,12,13
 398 167 398 167 400 160 c 0,14,15
 409 139 409 139 408 126 c 0,16,17
 408 85 408 85 365 85 c 1,18,-1
 164 -207 l 1,19,-1
 126 -207 l 1,20,-1
 267 197 l 1,21,22
 255 204 255 204 249 210 c 0,23,24
 231 228 231 228 231 253 c 0,25,26
 231 274 231 274 250 292 c 0,27,28
 264 306 264 306 271 316 c 0,29,30
 274 323 274 323 286 348 c 0,31,32
 287 351 287 351 290 357 c 1,33,34
 288 364 288 364 286 367 c 0,35,36
 276 389 276 389 271 399 c 0,37,38
 270 399 270 399 244 428 c 0,39,40
 231 443 231 443 231 463 c 0,41,42
 231 486 231 486 249 505 c 0,43,44
 255 510 255 510 267 518 c 1,45,-1
 126 922 l 1,46,-1
 164 922 l 1,47,-1
 365 630 l 1,48,49
 386 630 386 630 397 619.5 c 128,-1,50
 408 609 408 609 408 589 c 0,51,52
 410 573 410 573 397 548 c 0,53,54
 395 544 395 544 391 537 c 1,55,56
 416 537 416 537 435 523 c 0,57,58
 456 507 456 507 456 477 c 0,59,60
 456 465 456 465 445 444 c 0,61,62
 443 436 443 436 435 424 c 1,63,64
 449 424 449 424 481 391 c 0,65,66
 492 380 492 380 511 357 c 1,0,1
483 357 m 1,67,68
 466 375 466 375 456 385 c 0,69,70
 423 412 423 412 399 417 c 1,71,72
 410 428 410 428 416 436 c 0,73,74
 433 458 433 458 433 476 c 0,75,76
 433 498 433 498 411 509 c 0,77,78
 394 517 394 517 366 517 c 0,79,80
 354 517 354 517 352 516.5 c 128,-1,81
 350 516 350 516 348 515 c 1,82,83
 361 531 361 531 367 540 c 0,84,85
 387 569 387 569 387 583 c 0,86,87
 387 598 387 598 374 604 c 0,88,89
 371 605 371 605 364 605.5 c 128,-1,90
 357 606 357 606 353 607 c 1,91,-1
 160 895 l 1,92,93
 168 870 168 870 202 772 c 0,94,95
 218 725 218 725 263 599 c 0,96,97
 295 511 l 1,98,99
 281 502 281 502 275 497 c 0,100,101
 254 478 254 478 254 461 c 0,102,103
 254 452 254 452 262 444 c 0,104,105
 272 436 272 436 276 432 c 1,106,107
 279 428 279 428 298 393 c 0,108,109
 304 381 304 381 316 357 c 1,110,111
 304 335 304 335 298 323 c 0,112,113
 279 286 279 286 276 283 c 0,114,115
 269 277 269 277 262 272 c 0,116,117
 254 263 254 263 254 254 c 0,118,119
 254 237 254 237 274 218 c 0,120,121
 280 213 280 213 295 204 c 1,122,123
 280 160 280 160 264 117 c 0,124,125
 219 -10 219 -10 203 -56 c 0,126,127
 164 -164 164 -164 160 -180 c 1,128,-1
 353 108 l 1,129,130
 358 109 358 109 364.5 109 c 128,-1,131
 371 109 371 109 374 111 c 0,132,133
 387 117 387 117 387 133 c 0,134,135
 387 146 387 146 368 174 c 0,136,137
 361 184 361 184 348 200 c 1,138,139
 350 200 350 200 356 199.5 c 128,-1,140
 362 199 362 199 366 199 c 0,141,142
 394 199 394 199 411 207 c 0,143,144
 433 217 433 217 433 240 c 0,145,146
 433 257 433 257 416 279 c 0,147,148
 411 286 411 286 399 298 c 1,149,150
 424 303 424 303 456 330 c 0,151,152
 466 339 466 339 483 357 c 1,67,68
361 583 m 1,153,154
 361 568 361 568 342 542 c 0,155,156
 336 533 336 533 322 518 c 1,157,158
 313 537 313 537 309 548 c 0,159,160
 296 584 296 584 296 603 c 0,161,162
 296 623 296 623 310 623 c 1,163,164
 314 621 314 621 321.5 601.5 c 128,-1,165
 329 582 329 582 337 582 c 0,166,167
 340 582 340 582 344 581.5 c 128,-1,168
 348 581 348 581 353 581 c 0,169,170
 361 581 361 581 361 583 c 1,153,154
410 474 m 0,171,172
 410 453 410 453 379 428 c 128,-1,173
 348 403 348 403 325 403 c 0,174,175
 316 403 316 403 309 420 c 0,176,177
 308 426 308 426 305 437 c 1,178,179
 297 444 297 444 293 447 c 0,180,181
 280 457 280 457 279 460 c 1,182,183
 278 472 278 472 296.5 482.5 c 128,-1,184
 315 493 315 493 338 493 c 0,185,186
 366 493 366 493 382 490 c 0,187,188
 410 486 410 486 410 474 c 0,171,172
449 357 m 1,189,190
 436 345 436 345 428 340 c 0,191,192
 402 321 402 321 383 321 c 256,193,194
 366 321 366 321 346 330 c 0,195,196
 339 332 339 332 329 339 c 1,197,-1
 336 357 l 1,198,-1
 329 376 l 1,199,200
 339 382 339 382 346 385 c 0,201,202
 367 394 367 394 383 394 c 0,203,204
 401 394 401 394 427 375 c 0,205,206
 436 370 436 370 449 357 c 1,189,190
410 241 m 0,207,208
 410 228 410 228 371 224 c 0,209,210
 356 222 356 222 338 222 c 0,211,212
 316 222 316 222 297 232.5 c 128,-1,213
 278 243 278 243 279 254 c 1,214,215
 280 258 280 258 292 269 c 0,216,217
 296 271 296 271 305 278 c 1,218,219
 307 290 307 290 309 295 c 0,220,221
 315 312 315 312 325 312 c 0,222,223
 349 312 349 312 379.5 287 c 128,-1,224
 410 262 410 262 410 241 c 0,207,208
361 133 m 1,225,226
 361 134 361 134 350 134 c 0,227,228
 346 134 346 134 343 134 c 128,-1,229
 340 134 340 134 337 133 c 1,230,231
 329 133 329 133 322 113.5 c 128,-1,232
 315 94 315 94 310 92 c 1,233,234
 302 92 302 92 299 97 c 128,-1,235
 296 102 296 102 296 113 c 0,236,237
 296 132 296 132 309 167 c 0,238,239
 313 178 313 178 322 197 c 1,240,241
 335 183 335 183 341 174 c 0,242,243
 361 147 361 147 361 133 c 1,225,226
EndSplineSet
Validated: 33
EndChar

StartChar: alefwithmaddaabovefinal
Encoding: 65154 65154 65
Width: 637
GlyphClass: 2
Flags: W
AnchorPoint: "ArabicBelow" 292 -102 basechar 0
AnchorPoint: "ArabicAbove" 265 853 basechar 0
LayerCount: 2
Fore
SplineSet
387 770 m 5,0,1
 386 767 386 767 368 703 c 4,2,-1
 350 638 l 5,3,4
 350 647 350 647 348 670 c 4,5,6
 345 692 345 692 342 701 c 5,7,8
 304 671 304 671 253 660 c 4,9,10
 221 653 221 653 181 653 c 6,11,-1
 167 653 l 5,12,-1
 162 653 l 5,13,14
 159 649 159 649 151 629 c 4,15,16
 148 622 148 622 143 609 c 5,17,18
 142 610 142 610 139 610 c 4,19,20
 136 611 136 611 135 611 c 4,21,22
 131 611 131 611 130 609 c 5,23,-1
 130 743 l 5,24,25
 147 731 147 731 172 725 c 4,26,27
 196 719 196 719 222 719 c 4,28,29
 258 719 258 719 302 734 c 4,30,31
 344 752 344 752 387 770 c 5,0,1
EndSplineSet
Refer: 77 65166 S 1 0 0 1 10 -1 2
Validated: 1
EndChar

StartChar: alefwithhamzaabovefinal
Encoding: 65156 65156 67
Width: 637
GlyphClass: 2
Flags: W
AnchorPoint: "ArabicBelow" 336 -116 basechar 0
AnchorPoint: "ArabicAbove" 261 874 basechar 0
LayerCount: 2
Fore
SplineSet
329 614 m 1,0,1
 328 614 328 614 301 600 c 0,2,3
 262 579 262 579 242 567 c 0,4,5
 208 546 208 546 193 531 c 1,6,-1
 193 548 l 2,7,8
 194 557 194 557 204 579 c 0,9,10
 207 587 207 587 214 601 c 1,11,12
 203 605 203 605 197 614 c 0,13,14
 188 627 188 627 188 646 c 0,15,16
 188 681 188 681 219 727 c 0,17,18
 253 777 253 777 287 777 c 0,19,20
 302 777 302 777 309 767.5 c 128,-1,21
 316 758 316 758 316 742 c 0,22,23
 316 729 316 729 311 716 c 128,-1,24
 306 703 306 703 300 700 c 1,25,26
 296 705 296 705 293 707 c 0,27,28
 284 714 284 714 274 714 c 0,29,30
 259 714 259 714 236.5 697 c 128,-1,31
 214 680 214 680 214 666 c 0,32,33
 214 659 214 659 233.5 652.5 c 128,-1,34
 253 646 253 646 270 646 c 0,35,36
 285 646 285 646 315 663 c 0,37,38
 333 672 333 672 350 683 c 1,39,-1
 329 614 l 1,0,1
639 15.9531 m 1,40,-1
 336.977 15 l 2,41,42
 326.965 15 326.965 15 321.866 20.335 c 0,43,44
 313.182 29.4219 313.182 29.4219 311.903 40.7061 c 0,45,46
 304.657 104.673 304.657 104.673 295.884 174.868 c 0,47,48
 286.097 253.161 286.097 253.161 272.783 330.536 c 0,49,50
 259.896 405.439 259.896 405.439 251.001 429.479 c 1,51,-1
 269.135 482.984 l 2,52,53
 277.4 505.265 277.4 505.265 284.176 521.352 c 1,54,55
 292.604 486.428 292.604 486.428 300.12 427.107 c 0,56,57
 312.267 331.248 312.267 331.248 318.032 244.01 c 0,58,59
 323.096 167.405 323.096 167.405 325.119 149.174 c 0,60,61
 328.354 120.031 328.354 120.031 343.436 107.46 c 0,62,63
 354.785 98 354.785 98 376 98 c 2,64,-1
 639 98 l 1,65,-1
 639 15.9531 l 1,40,-1
EndSplineSet
Validated: 1
EndChar

StartChar: wawwithhamzaabovefinal
Encoding: 65158 65158 69
Width: 637
GlyphClass: 2
Flags: W
AnchorPoint: "ArabicBelow" 297 -313 basechar 0
AnchorPoint: "ArabicAbove" 211 605 basechar 0
LayerCount: 2
Fore
SplineSet
290 362 m 1,0,-1
 262 348 l 0,1,2
 224 328 224 328 204 316 c 0,3,4
 169 294 169 294 155 279 c 1,5,-1
 155 296 l 2,6,7
 155 306 155 306 165 328 c 0,8,9
 168 335 168 335 175 349 c 1,10,11
 164 354 164 354 159 362 c 0,12,13
 149 375 149 375 149 395 c 0,14,15
 149 430 149 430 180 476 c 0,16,17
 214 526 214 526 248 526 c 0,18,19
 263 526 263 526 270 516 c 0,20,21
 277 506 277 506 277 490 c 0,22,23
 277 477 277 477 272 465 c 0,24,25
 267 452 267 452 262 448 c 1,26,27
 258 453 258 453 254 456 c 0,28,29
 246 463 246 463 235 463 c 0,30,31
 221 463 221 463 198 445 c 0,32,33
 175 428 175 428 175 415 c 0,34,35
 175 407 175 407 195 401 c 0,36,37
 214 395 214 395 232 395 c 0,38,39
 246 395 246 395 276 411 c 0,40,-1
 312 431 l 1,41,-1
 290 362 l 1,0,-1
EndSplineSet
Refer: 173 65262 S 1 0 0 1 14 0 2
Validated: 1
EndChar

StartChar: alefwithhamzabelowfinal
Encoding: 65160 65160 71
Width: 637
GlyphClass: 2
Flags: W
AnchorPoint: "ArabicBelow" 325 -348 basechar 0
AnchorPoint: "ArabicAbove" 257 710 basechar 0
LayerCount: 2
Fore
SplineSet
385 -219 m 1,0,1
 384 -219 384 -219 356 -233 c 0,2,3
 318 -254 318 -254 298 -266 c 0,4,5
 264 -287 264 -287 249 -302 c 1,6,-1
 249 -285 l 2,7,8
 250 -276 250 -276 260 -254 c 0,9,10
 263 -246 263 -246 270 -233 c 1,11,12
 259 -228 259 -228 253 -219 c 0,13,14
 244 -206 244 -206 244 -187 c 0,15,16
 244 -152 244 -152 275 -106 c 0,17,18
 309 -56 309 -56 343 -56 c 0,19,20
 358 -56 358 -56 365 -66 c 128,-1,21
 372 -76 372 -76 372 -91 c 0,22,23
 372 -104 372 -104 367 -117 c 128,-1,24
 362 -130 362 -130 356 -133 c 1,25,26
 352 -128 352 -128 349 -126 c 0,27,28
 340 -119 340 -119 330 -119 c 0,29,30
 315 -119 315 -119 292.5 -136 c 128,-1,31
 270 -153 270 -153 270 -167 c 0,32,33
 270 -175 270 -175 289.5 -181 c 128,-1,34
 309 -187 309 -187 326 -187 c 0,35,36
 341 -187 341 -187 371 -171 c 0,37,38
 389 -160 389 -160 406 -150 c 1,39,-1
 385 -219 l 1,0,1
638 15 m 1,40,-1
 315 15 l 2,41,42
 305.971 15 305.971 15 300.865 20.3369 c 0,43,44
 292.239 29.3531 292.239 29.3531 290.897 40.749 c 2,45,-1
 273.892 185.803 l 2,46,47
 263.178 271.508 263.178 271.508 248.816 363.339 c 0,48,49
 236.212 443.927 236.212 443.927 224.117 474.55 c 1,50,-1
 243.084 527.84 l 2,51,52
 251.51 550.187 251.51 550.187 258.153 565.961 c 1,53,54
 266.361 530.23 266.361 530.23 275.116 460.138 c 0,55,56
 286.995 365.039 286.995 365.039 296.049 255.782 c 0,57,58
 297.363 239.918 297.363 239.918 299.887 204.21 c 128,-1,59
 302.41 168.503 302.41 168.503 304.072 149.566 c 0,60,61
 306.695 119.688 306.695 119.688 322.807 107.15 c 0,62,63
 334.565 98.0003 334.565 98.0003 355 98 c 2,64,-1
 638 98 l 1,65,-1
 638 15 l 1,40,-1
EndSplineSet
Validated: 1
EndChar

StartChar: yehwithhamzaabovefinal
Encoding: 65162 65162 73
Width: 637
GlyphClass: 2
Flags: W
AnchorPoint: "ArabicBelow" 200 -341 basechar 0
AnchorPoint: "ArabicAbove" 139 464 basechar 0
LayerCount: 2
Fore
SplineSet
207 195 m 5,0,1
 206 195 206 195 179 180 c 4,2,3
 140 159 140 159 120 147 c 4,4,5
 85 126 85 126 71 112 c 5,6,-1
 71 129 l 6,7,8
 72 138 72 138 81 159 c 4,9,10
 84 167 84 167 92 181 c 5,11,12
 81 186 81 186 75 195 c 4,13,14
 65 208 65 208 65 227 c 4,15,16
 65 262 65 262 97 308 c 4,17,18
 131 357 131 357 164 357 c 4,19,20
 179 357 179 357 186 348 c 4,21,22
 193 338 193 338 193 323 c 4,23,24
 193 309 193 309 189 296 c 4,25,26
 184 283 184 283 178 280 c 5,27,28
 174 286 174 286 171 287 c 4,29,30
 162 295 162 295 152 295 c 4,31,32
 137 295 137 295 114 278 c 4,33,34
 92 261 92 261 92 246 c 4,35,36
 92 239 92 239 111 233 c 4,37,38
 131 227 131 227 148 227 c 4,39,40
 163 227 163 227 192 243 c 4,41,-1
 229 263 l 5,42,-1
 207 195 l 5,0,1
EndSplineSet
Refer: 175 65264 S 1 0 0 1 -4.99973 0 2
Validated: 1
EndChar

StartChar: yehwithhamzaaboveinitial
Encoding: 65163 65163 74
Width: 637
GlyphClass: 2
Flags: W
AnchorPoint: "ArabicBelow" 362 -96 basechar 0
AnchorPoint: "ArabicAbove" 300 655 basechar 0
LayerCount: 2
Fore
SplineSet
373 386 m 1,0,1
 372 386 372 386 344 371 c 0,2,3
 306 351 306 351 286 339 c 0,4,5
 251 317 251 317 237 303 c 1,6,-1
 237 320 l 2,7,8
 238 329 238 329 247 351 c 0,9,10
 250 358 250 358 258 373 c 1,11,12
 247 378 247 378 241 386 c 0,13,14
 232 399 232 399 232 419 c 0,15,16
 232 453 232 453 263 499 c 0,17,18
 297 549 297 549 331 549 c 0,19,20
 345 549 345 549 352.5 539.5 c 128,-1,21
 360 530 360 530 360 514 c 0,22,23
 360 501 360 501 355 488 c 128,-1,24
 350 475 350 475 344 472 c 1,25,26
 340 477 340 477 337 479 c 0,27,28
 328 486 328 486 318 486 c 0,29,30
 303 486 303 486 280.5 469 c 128,-1,31
 258 452 258 452 258 438 c 0,32,33
 258 431 258 431 277.5 425 c 128,-1,34
 297 419 297 419 314 419 c 0,35,36
 329 419 329 419 358 435 c 0,37,38
 377 444 377 444 394 455 c 1,39,-1
 373 386 l 1,0,1
404 97 m 2,40,-1
 404 15 l 1,41,-1
 -12 15 l 1,42,-1
 -12 98 l 1,43,-1
 372 98 l 1,44,-1
 372 113 l 2,45,46
 372 144.913 372 144.913 351.796 177.825 c 0,47,48
 345.373 188.287 345.373 188.287 326.806 212.709 c 1,49,-1
 352.375 286.724 l 1,50,51
 368.015 260.019 368.015 260.019 380.874 223.955 c 0,52,53
 404 159.099 404 159.099 404 97 c 2,40,-1
EndSplineSet
Validated: 1
EndChar

StartChar: yehwithhamzaabovemedial
Encoding: 65164 65164 75
Width: 637
GlyphClass: 2
Flags: W
AnchorPoint: "ArabicBelow" 342 -116 basechar 0
AnchorPoint: "ArabicAbove" 287 655 basechar 0
LayerCount: 2
Fore
SplineSet
373 386 m 1,0,1
 372 386 372 386 344 371 c 0,2,3
 306 351 306 351 286 339 c 0,4,5
 251 317 251 317 237 303 c 1,6,-1
 237 320 l 2,7,8
 238 329 238 329 247 351 c 0,9,10
 250 358 250 358 258 373 c 1,11,12
 247 378 247 378 241 386 c 0,13,14
 232 399 232 399 232 419 c 0,15,16
 232 453 232 453 263 499 c 0,17,18
 297 549 297 549 331 549 c 0,19,20
 345 549 345 549 352.5 539.5 c 128,-1,21
 360 530 360 530 360 514 c 0,22,23
 360 501 360 501 355 488 c 128,-1,24
 350 475 350 475 344 472 c 1,25,26
 340 477 340 477 337 479 c 0,27,28
 328 486 328 486 318 486 c 0,29,30
 303 486 303 486 280.5 469 c 128,-1,31
 258 452 258 452 258 438 c 0,32,33
 258 431 258 431 277.5 425 c 128,-1,34
 297 419 297 419 314 419 c 0,35,36
 329 419 329 419 358 435 c 0,37,38
 377 444 377 444 394 455 c 1,39,-1
 373 386 l 1,0,1
246.522 333.933 m 1,40,-1
-10 15 m 1,41,-1
 -10 98 l 1,42,-1
 320 98 l 1,43,-1
 320 113 l 2,44,45
 320 143.056 320 143.056 296.957 182.559 c 0,46,47
 290.883 192.971 290.883 192.971 279.761 210.579 c 1,48,-1
 307.293 280.067 l 1,49,50
 312.446 270.084 312.446 270.084 316.443 261.583 c 0,51,52
 335.545 220.947 335.545 220.947 342.401 191.937 c 128,-1,53
 349.258 162.927 349.258 162.927 364.817 141.251 c 0,54,55
 395.882 97.9748 395.882 97.9748 455.299 97.9746 c 0,56,57
 456.713 97.9746 456.713 97.9746 458.142 98.001 c 2,58,-1
 645 98 l 1,59,-1
 645 15.9287 l 1,60,-1
 437.965 15 l 2,61,62
 416.059 14.9017 416.059 14.9017 393.389 25.5723 c 0,63,64
 371.57 35.8414 371.57 35.8414 359.288 49.8779 c 2,65,-1
 333 79.9219 l 1,66,-1
 333 15 l 1,67,-1
 -10 15 l 1,41,-1
EndSplineSet
Validated: 33
EndChar

StartChar: aleffinal
Encoding: 65166 65166 77
Width: 637
GlyphClass: 2
Flags: W
AnchorPoint: "ArabicBelow" 302 -96 basechar 0
AnchorPoint: "ArabicAbove" 247 724 basechar 0
LayerCount: 2
Fore
SplineSet
646 15 m 1,0,-1
 315 15 l 2,1,2
 305.971 15 305.971 15 300.865 20.3369 c 0,3,4
 292.233 29.3581 292.233 29.3581 290.897 40.749 c 2,5,6
 273.895 185.774 l 2,7,8
 263.863 271.336 263.863 271.336 248.98 362.337 c 0,9,10
 235.287 446.06 235.287 446.06 224.116 474.546 c 1,11,-1
 243.121 527.94 l 2,12,13
 250.419 548.443 250.419 548.443 257.711 565.963 c 1,14,15
 266.232 528.504 266.232 528.504 275.128 460.051 c 0,16,17
 285.31 381.691 285.31 381.691 295.044 255.848 c 0,18,19
 295.347 251.938 295.347 251.938 298.047 211.121 c 128,-1,20
 300.747 170.305 300.747 170.305 303.113 149.244 c 0,21,22
 306.298 120.902 306.298 120.902 322.421 107.46 c 0,23,24
 333.768 98 333.768 98 355 98 c 2,25,-1
 646 98 l 1,26,-1
 646 15 l 1,0,-1
EndSplineSet
Validated: 1
EndChar

StartChar: behfinal
Encoding: 65168 65168 79
Width: 637
GlyphClass: 2
Flags: W
AnchorPoint: "ArabicBelow" 294 -212 basechar 0
AnchorPoint: "ArabicAbove" 287 464 basechar 0
LayerCount: 2
Fore
SplineSet
362 -111 m 1,0,-1
 306 -167 l 1,1,-1
 244 -106 l 1,2,-1
 301 -49 l 1,3,-1
 362 -111 l 1,0,-1
EndSplineSet
Refer: 291 -1 S 1 0 0 1 0 0 2
EndChar

StartChar: behinitial
Encoding: 65169 65169 80
Width: 637
GlyphClass: 2
Flags: W
AnchorPoint: "ArabicBelow" 377 -227 basechar 0
AnchorPoint: "ArabicAbove" 335 444 basechar 0
LayerCount: 2
Fore
SplineSet
433 -106 m 1,0,-1
 377 -162 l 1,1,-1
 315 -101 l 1,2,-1
 372 -44 l 1,3,-1
 433 -106 l 1,0,-1
EndSplineSet
Refer: 292 -1 S 1 0 0 1 0 0 2
EndChar

StartChar: behmedial
Encoding: 65170 65170 81
Width: 637
GlyphClass: 2
Flags: W
AnchorPoint: "ArabicBelow" 328 -212 basechar 0
AnchorPoint: "ArabicAbove" 301 444 basechar 0
LayerCount: 2
Fore
SplineSet
365 -110 m 5,0,-1
 309 -166 l 5,1,-1
 247 -105 l 5,2,-1
 304 -48 l 5,3,-1
 365 -110 l 5,0,-1
EndSplineSet
Refer: 293 -1 S 1 0 0 1 0 0 2
EndChar

StartChar: tehmarbutaisolated
Encoding: 65171 65171 82
Width: 637
GlyphClass: 2
Flags: W
AnchorPoint: "ArabicBelow" 299.5 -123.5 basechar 0
AnchorPoint: "ArabicAbove" 349 680.5 basechar 0
LayerCount: 2
Fore
SplineSet
318 525 m 1,0,-1
 261 468 l 1,1,-1
 200 530 l 1,2,-1
 257 587 l 1,3,-1
 318 525 l 1,0,-1
502 527 m 1,4,-1
 445 470 l 1,5,-1
 383 531 l 1,6,-1
 440 589 l 1,7,-1
 502 527 l 1,4,-1
EndSplineSet
Refer: 37 1607 N 1 0 0 1 0 0 2
Validated: 1
EndChar

StartChar: tehmarbutafinal
Encoding: 65172 65172 83
Width: 637
GlyphClass: 2
Flags: W
AnchorPoint: "ArabicBelow" 285 -96 basechar 0
AnchorPoint: "ArabicAbove" 230 642 basechar 0
LayerCount: 2
Fore
SplineSet
205 487 m 1,0,-1
 148 430 l 1,1,-1
 87 492 l 1,2,-1
 144 549 l 1,3,-1
 205 487 l 1,0,-1
389 489 m 1,4,-1
 332 432 l 1,5,-1
 270 493 l 1,6,-1
 327 551 l 1,7,-1
 389 489 l 1,4,-1
644 15.918 m 1,8,-1
 466.959 15 l 2,9,10
 430.556 14.8112 430.556 14.8112 407.249 47.6582 c 0,11,12
 387 76.1943 387 76.1943 387 104 c 0,13,14
 387 116.339 387 116.339 380.012 117.712 c 128,-1,15
 373.023 119.086 373.023 119.086 371.293 119.086 c 0,16,17
 361.964 119.086 361.964 119.086 358.116 109.679 c 0,18,19
 350.595 91.292 350.595 91.292 330.42 74.543 c 0,20,21
 304.47 53 304.47 53 278 53 c 0,22,23
 245.398 53 245.398 53 214.699 85.0146 c 128,-1,24
 184 117.029 184 117.029 184 151 c 0,25,26
 184 176.187 184 176.187 207.156 208.21 c 0,27,28
 226.803 235.381 226.803 235.381 261.624 264.494 c 0,29,30
 286.574 285.354 286.574 285.354 318.32 306.52 c 2,31,-1
 328.977 313.624 l 1,32,-1
 311.025 352.697 l 1,33,-1
 353.264 394.286 l 1,34,35
 361.322 373.26 361.322 373.26 371.508 335.135 c 0,36,37
 385.579 282.46 385.579 282.46 393.193 235.598 c 0,38,39
 404.587 165.482 404.587 165.482 422.389 137.879 c 0,40,41
 448.126 97.9717 448.126 97.9717 501.335 97.9717 c 0,42,43
 502.738 97.9717 502.738 97.9717 504.158 98.002 c 2,44,-1
 644 98 l 1,45,-1
 644 15.918 l 1,8,-1
288 138 m 0,46,47
 315.241 138 315.241 138 337.88 149.672 c 0,48,49
 355.073 158.536 355.073 158.536 369.39 175.238 c 2,50,-1
 373 179.452 l 1,51,-1
 373 185 l 2,52,53
 373 200.878 373 200.878 358.695 220.546 c 128,-1,54
 344.391 240.215 344.391 240.215 331.601 243.319 c 0,55,56
 328.87 243.981 328.87 243.981 326.025 244 c 2,57,-1
 325.494 244.002 l 2,58,59
 298.095 244.002 298.095 244.002 265.25 225.632 c 128,-1,60
 232.406 207.262 232.406 207.262 221.382 190.11 c 2,61,-1
 214.269 179.047 l 1,62,-1
 224.312 170.549 l 2,63,64
 238.24 158.763 238.24 158.763 255.542 148.381 c 128,-1,65
 272.845 138 272.845 138 288 138 c 0,46,47
EndSplineSet
Validated: 33
EndChar

StartChar: tehfinal
Encoding: 65174 65174 85
Width: 637
GlyphClass: 2
Flags: W
AnchorPoint: "ArabicBelow" 311 -137 basechar 0
AnchorPoint: "ArabicAbove" 304 463 basechar 0
LayerCount: 2
Fore
SplineSet
271 305 m 1,0,-1
 214 248 l 1,1,-1
 153 310 l 1,2,-1
 210 367 l 1,3,-1
 271 305 l 1,0,-1
455 307 m 1,4,-1
 398 250 l 1,5,-1
 336 311 l 1,6,-1
 393 369 l 1,7,-1
 455 307 l 1,4,-1
EndSplineSet
Refer: 291 -1 S 1 0 0 1 0 0 2
EndChar

StartChar: tehinitial
Encoding: 65175 65175 86
Width: 637
GlyphClass: 2
Flags: W
AnchorPoint: "ArabicBelow" 358 -116 basechar 0
AnchorPoint: "ArabicAbove" 311 567 basechar 0
LayerCount: 2
Fore
SplineSet
285 395 m 1,0,-1
 228 338 l 1,1,-1
 167 400 l 1,2,-1
 224 457 l 1,3,-1
 285 395 l 1,0,-1
469 397 m 1,4,-1
 412 340 l 1,5,-1
 350 401 l 1,6,-1
 407 459 l 1,7,-1
 469 397 l 1,4,-1
380 97 m 2,8,-1
 380 15 l 1,9,-1
 -9 15 l 1,10,-1
 -9 98 l 1,11,-1
 348 98 l 1,12,-1
 348 113 l 2,13,14
 348 144.913 348 144.913 327.796 177.825 c 0,15,16
 321.373 188.287 321.373 188.287 302.806 212.709 c 1,17,-1
 328.375 286.724 l 1,18,19
 344.015 260.019 344.015 260.019 356.874 223.955 c 0,20,21
 380 159.1 380 159.1 380 97 c 2,8,-1
EndSplineSet
Validated: 1
EndChar

StartChar: tehmedial
Encoding: 65176 65176 87
Width: 637
GlyphClass: 2
Flags: W
AnchorPoint: "ArabicBelow" 328 -116 basechar 0
AnchorPoint: "ArabicAbove" 267 553 basechar 0
LayerCount: 2
Fore
SplineSet
275 391 m 1,0,-1
 218 334 l 1,1,-1
 157 396 l 1,2,-1
 214 453 l 1,3,-1
 275 391 l 1,0,-1
459 393 m 1,4,-1
 402 336 l 1,5,-1
 340 397 l 1,6,-1
 397 455 l 1,7,-1
 459 393 l 1,4,-1
-8 15.958 m 1,8,-1
 -8 98 l 1,9,-1
 320 98 l 1,10,-1
 320 113 l 2,11,12
 320 143.056 320 143.056 296.957 182.559 c 0,13,14
 290.883 192.971 290.883 192.971 279.761 210.579 c 1,15,-1
 307.293 280.067 l 1,16,17
 312.446 270.084 312.446 270.084 316.443 261.583 c 0,18,19
 335.543 220.95 335.543 220.95 342.5 191.519 c 128,-1,20
 349.456 162.087 349.456 162.087 364.893 141.148 c 0,21,22
 396.701 98 396.701 98 458 98 c 2,23,-1
 642 98 l 1,24,-1
 642 15 l 1,25,-1
 438 15 l 2,26,27
 416.353 15 416.353 15 393.788 25.6187 c 128,-1,28
 371.223 36.2374 371.223 36.2374 359.288 49.8779 c 2,29,-1
 333 79.9219 l 1,30,-1
 333 15.042 l 1,31,-1
 -8 15.958 l 1,8,-1
EndSplineSet
Validated: 1
EndChar

StartChar: thehfinal
Encoding: 65178 65178 89
Width: 637
GlyphClass: 2
Flags: W
AnchorPoint: "ArabicBelow" 298 -123 basechar 0
AnchorPoint: "ArabicAbove" 296 551 basechar 0
LayerCount: 2
Fore
SplineSet
250 304 m 1,0,-1
 193 247 l 1,1,-1
 132 309 l 1,2,-1
 189 366 l 1,3,-1
 250 304 l 1,0,-1
434 306 m 1,4,-1
 377 249 l 1,5,-1
 315 310 l 1,6,-1
 372 368 l 1,7,-1
 434 306 l 1,4,-1
338 421 m 1,8,-1
 282 364 l 1,9,-1
 220 426 l 1,10,-1
 277 483 l 1,11,-1
 338 421 l 1,8,-1
EndSplineSet
Refer: 291 -1 N 1 0 0 1 0 0 2
EndChar

StartChar: thehinitial
Encoding: 65179 65179 90
Width: 637
GlyphClass: 2
Flags: W
AnchorPoint: "ArabicBelow" 331 -123 basechar 0
AnchorPoint: "ArabicAbove" 317 628 basechar 0
LayerCount: 2
Fore
SplineSet
285 384 m 5,0,-1
 228 327 l 5,1,-1
 167 389 l 5,2,-1
 224 446 l 5,3,-1
 285 384 l 5,0,-1
469 386 m 5,4,-1
 412 329 l 5,5,-1
 350 390 l 5,6,-1
 407 448 l 5,7,-1
 469 386 l 5,4,-1
373 501 m 1,8,-1
 317 444 l 1,9,-1
 255 506 l 1,10,-1
 312 563 l 1,11,-1
 373 501 l 1,8,-1
380 97 m 2,12,-1
 380 15.0371 l 1,13,-1
 -6 15.9629 l 1,14,-1
 -6 98 l 1,15,-1
 348 98 l 1,16,-1
 348 113 l 2,17,18
 348 144.913 348 144.913 327.796 177.825 c 0,19,20
 321.373 188.287 321.373 188.287 302.806 212.709 c 1,21,-1
 328.375 286.724 l 1,22,23
 344.015 260.019 344.015 260.019 356.874 223.955 c 0,24,25
 380 159.1 380 159.1 380 97 c 2,12,-1
EndSplineSet
Validated: 1
EndChar

StartChar: thehmedial
Encoding: 65180 65180 91
Width: 637
GlyphClass: 2
Flags: W
AnchorPoint: "ArabicBelow" 321 -130 basechar 0
AnchorPoint: "ArabicAbove" 280 621 basechar 0
LayerCount: 2
Fore
SplineSet
270 378 m 1,0,-1
 213 321 l 1,1,-1
 152 383 l 1,2,-1
 209 440 l 1,3,-1
 270 378 l 1,0,-1
454 380 m 1,4,-1
 397 323 l 1,5,-1
 335 384 l 1,6,-1
 392 442 l 1,7,-1
 454 380 l 1,4,-1
358 495 m 1,8,-1
 302 438 l 1,9,-1
 240 500 l 1,10,-1
 297 557 l 1,11,-1
 358 495 l 1,8,-1
-7 15 m 1,12,-1
 -7 98 l 1,13,-1
 320 98 l 1,14,-1
 320 113 l 2,15,16
 320 143.056 320 143.056 296.957 182.559 c 0,17,18
 290.883 192.971 290.883 192.971 279.761 210.579 c 1,19,-1
 307.293 280.067 l 1,20,21
 312.446 270.084 312.446 270.084 316.443 261.583 c 0,22,23
 335.545 220.947 335.545 220.947 342.401 191.937 c 128,-1,24
 349.258 162.927 349.258 162.927 364.817 141.251 c 0,25,26
 395.882 97.9746 395.882 97.9746 455.299 97.9746 c 0,27,28
 456.713 97.9746 456.713 97.9746 458.142 98.001 c 2,29,-1
 644 98 l 1,30,-1
 644 15.9287 l 1,31,-1
 437.965 15 l 2,32,33
 416.06 14.9013 416.06 14.9013 393.389 25.5723 c 0,34,35
 371.571 35.8407 371.571 35.8407 359.288 49.8779 c 2,36,-1
 333 79.9219 l 1,37,-1
 333 15 l 1,38,-1
 -7 15 l 1,12,-1
EndSplineSet
Validated: 33
EndChar

StartChar: jeemfinal
Encoding: 65182 65182 93
Width: 637
GlyphClass: 2
Flags: W
AnchorPoint: "ArabicBelow" 198 -430 basechar 0
AnchorPoint: "ArabicAbove" 137 505 basechar 0
LayerCount: 2
Fore
SplineSet
383 -35 m 5,0,-1
 326 -92 l 5,1,-1
 264 -30 l 5,2,-1
 321 27 l 5,3,-1
 383 -35 l 5,0,-1
EndSplineSet
Refer: 97 65186 S 1 0 0 1 0 0 2
Validated: 1
EndChar

StartChar: jeeminitial
Encoding: 65183 65183 94
Width: 637
GlyphClass: 2
Flags: W
AnchorPoint: "ArabicBelow" 307 -235 basechar 0
AnchorPoint: "ArabicAbove" 184 498 basechar 0
LayerCount: 2
Fore
SplineSet
361 -105 m 5,0,-1
 304 -162 l 5,1,-1
 243 -101 l 5,2,-1
 300 -44 l 5,3,-1
 361 -105 l 5,0,-1
EndSplineSet
Refer: 98 65187 S 1 0 0 1 -0.000488281 0.000411987 2
Validated: 1
EndChar

StartChar: jeemmedial
Encoding: 65184 65184 95
Width: 637
GlyphClass: 2
Flags: W
AnchorPoint: "ArabicBelow" 307 -243 basechar 0
AnchorPoint: "ArabicAbove" 191 519 basechar 0
LayerCount: 2
Fore
SplineSet
361 -106 m 5,0,-1
 304 -163 l 5,1,-1
 243 -102 l 5,2,-1
 300 -45 l 5,3,-1
 361 -106 l 5,0,-1
EndSplineSet
Refer: 99 65188 S 1 0 0 1 0 0 2
Validated: 1
EndChar

StartChar: hahfinal
Encoding: 65186 65186 97
Width: 637
GlyphClass: 2
Flags: W
AnchorPoint: "ArabicBelow" 220 -368 basechar 0
AnchorPoint: "ArabicAbove" 181 492 basechar 0
LayerCount: 2
Fore
SplineSet
388 139.75 m 1,0,1
 349 139 l 2,2,3
 264.001 137.365 264.001 137.365 204.578 92.3379 c 0,4,5
 143 45.6768 143 45.6768 143 -16 c 0,6,7
 143 -79.5654 143 -79.5654 220.953 -133.783 c 128,-1,8
 298.905 -188 298.905 -188 405 -188 c 2,9,-1
 520.249 -188 l 1,10,11
 480.485 -222.179 480.485 -222.179 446.849 -246.09 c 128,-1,12
 413.212 -270 413.212 -270 395 -270 c 0,13,14
 275.624 -270 275.624 -270 198.534 -216.664 c 0,15,16
 114 -158.179 114 -158.179 114 -53 c 0,17,18
 114 0.508789 114 0.508789 144.439 62.3379 c 128,-1,19
 174.878 124.166 174.878 124.166 220.858 157.896 c 0,20,21
 230.311 164.829 230.311 164.829 250.47 174.468 c 0,22,23
 275.535 186.453 275.535 186.453 307.498 199.044 c 2,24,-1
 330.011 207.912 l 1,25,-1
 312.055 224.132 l 2,26,27
 282.799 250.558 282.799 250.558 253.067 269.645 c 0,28,29
 213.569 295 213.569 295 185 295 c 0,30,31
 166.632 295 166.632 295 147.15 282.604 c 0,32,33
 143.826 280.488 143.826 280.488 140.524 278.146 c 1,34,35
 145.838 295.285 145.838 295.285 150.101 306.888 c 0,36,37
 174.757 374 174.757 374 212 374 c 0,38,39
 241.333 374 241.333 374 280.881 336.93 c 2,40,-1
 361.058 261.776 l 2,41,42
 408.827 217 408.827 217 460 217 c 2,43,-1
 520.326 217 l 1,44,-1
 479.882 139 l 1,45,-1
 398.314 139 l 1,46,-1
 399.171 132.226 l 2,47,48
 401.331 115.136 401.331 115.136 418.275 108.136 c 0,49,50
 442.816 98 442.816 98 501 98 c 2,51,-1
 645 98 l 1,52,-1
 645 15 l 1,53,-1
 484 15 l 2,54,55
 440.138 15 440.138 15 410.798 59.8584 c 0,56,57
 394.018 85.7168 394.018 85.7168 388 139.75 c 1,0,1
EndSplineSet
Validated: 1
EndChar

StartChar: hahinitial
Encoding: 65187 65187 98
Width: 637
GlyphClass: 2
Flags: W
AnchorPoint: "ArabicBelow" 324 -89 basechar 0
AnchorPoint: "ArabicAbove" 255 471 basechar 0
LayerCount: 2
Fore
SplineSet
364.604 198.524 m 2,0,1
 327.179 229.718 327.179 229.718 292.275 246.364 c 128,-1,2
 257.395 263 257.395 263 228 263 c 0,3,4
 203.414 263 203.414 263 175.437 242.573 c 1,5,-1
 203.252 306.855 l 1,6,7
 226.48 342 226.48 342 250 342 c 0,8,9
 277.81 342 277.81 342 303.062 326.274 c 0,10,11
 336.679 305.339 336.679 305.339 398.731 247.066 c 0,12,13
 451.28 197.718 451.28 197.718 488.731 186.62 c 0,14,15
 507.875 180.948 507.875 180.948 560.781 180.142 c 1,16,-1
 541.315 103 l 1,17,-1
 398 103 l 2,18,19
 347.458 103 347.458 103 298.227 78.3828 c 2,20,-1
 214.532 36.5332 l 2,21,22
 171.468 15 171.468 15 124 15 c 2,23,-1
 -6 15 l 5,24,-1
 -6 98 l 5,25,-1
 115 98 l 2,26,27
 158.73 98 158.73 98 207.323 112.637 c 0,28,29
 240.678 122.683 240.678 122.683 291.896 144.209 c 2,30,-1
 383.554 182.729 l 1,31,-1
 364.604 198.524 l 2,0,1
EndSplineSet
Validated: 1
EndChar

StartChar: hahmedial
Encoding: 65188 65188 99
Width: 637
GlyphClass: 2
Flags: W
AnchorPoint: "ArabicBelow" 330 -41 basechar 0
AnchorPoint: "ArabicAbove" 221 505 basechar 0
LayerCount: 2
Fore
SplineSet
347 234 m 2,0,1
 305.059 265.456 305.059 265.456 292.746 272.845 c 0,2,3
 257.498 294 257.498 294 226 294 c 0,4,5
 206.325 294 206.325 294 179.942 273.956 c 0,6,7
 171.553 267.582 171.553 267.582 164.325 261.409 c 1,8,-1
 192.72 339.834 l 1,9,10
 215.198 381 215.198 381 236 381 c 0,11,12
 248.328 381 248.328 381 275.755 365.876 c 0,13,14
 286.56 359.917 286.56 359.917 325.383 327.488 c 0,15,16
 359.47 299.017 359.47 299.017 396.092 276.256 c 0,17,18
 434.436 252.427 434.436 252.427 476.303 243.123 c 128,-1,19
 518.17 233.819 518.17 233.819 562.994 232.312 c 1,20,-1
 544.208 155 l 1,21,-1
 501 155 l 1,22,-1
 501 140 l 2,23,24
 501 136.528 501 136.528 501.371 133.453 c 0,25,26
 503.329 117.238 503.329 117.238 516.191 109.176 c 0,27,28
 534.02 98 534.02 98 566 98 c 2,29,-1
 644 98 l 5,30,-1
 644 15 l 5,31,-1
 554 15 l 2,32,33
 518.874 15 518.874 15 503.015 32.1816 c 0,34,35
 491.48 44.6768 491.48 44.6768 490.973 69.3784 c 0,36,37
 490.412 96.6331 490.412 96.6331 490.409 102.178 c 2,38,-1
 490.408 104.315 l 2,39,40
 490.396 130.194 490.396 130.194 490.644 137.192 c 2,41,-1
 491.272 155 l 1,42,-1
 428 155 l 2,43,44
 368.408 155 368.408 155 307.037 116.712 c 2,45,-1
 198.196 48.8086 l 2,46,47
 144.005 15 144.005 15 79 15 c 2,48,-1
 -6 15 l 1,49,-1
 -6 98 l 1,50,-1
 66 98 l 2,51,52
 122.865 98 122.865 98 177.848 121.187 c 0,53,54
 203.815 132.138 203.815 132.138 267.662 170.105 c 0,55,56
 317.312 199.63 317.312 199.63 342.572 207.714 c 2,57,-1
 370.242 216.568 l 1,58,-1
 347 234 l 2,0,1
EndSplineSet
Validated: 33
EndChar

StartChar: khahfinal
Encoding: 65190 65190 101
Width: 637
GlyphClass: 2
Flags: W
AnchorPoint: "ArabicBelow" 198 -362 basechar 0
AnchorPoint: "ArabicAbove" 204.5 685 basechar 0
LayerCount: 2
Fore
SplineSet
265 535 m 5,0,-1
 208 478 l 5,1,-1
 147 539 l 5,2,-1
 204 596 l 5,3,-1
 265 535 l 5,0,-1
EndSplineSet
Refer: 97 65186 S 1 0 0 1 0 0 2
Validated: 1
EndChar

StartChar: khahinitial
Encoding: 65191 65191 102
Width: 637
GlyphClass: 2
Flags: W
AnchorPoint: "ArabicBelow" 253 -68 basechar 0
AnchorPoint: "ArabicAbove" 149.5 668 basechar 0
LayerCount: 2
Fore
SplineSet
214 507 m 5,0,-1
 157 450 l 5,1,-1
 95 511 l 5,2,-1
 152 568 l 5,3,-1
 214 507 l 5,0,-1
EndSplineSet
Refer: 98 65187 S 1 0 0 1 -0.000488281 0.000411987 2
Validated: 1
EndChar

StartChar: khahmedial
Encoding: 65192 65192 103
Width: 637
GlyphClass: 2
Flags: W
AnchorPoint: "ArabicBelow" 232 -55 basechar 0
AnchorPoint: "ArabicAbove" 137 726 basechar 0
LayerCount: 2
Fore
SplineSet
200 544 m 5,0,-1
 143 487 l 5,1,-1
 81 548 l 5,2,-1
 138 605 l 5,3,-1
 200 544 l 5,0,-1
EndSplineSet
Refer: 99 65188 S 1 0 0 1 0 0 2
Validated: 1
EndChar

StartChar: dalfinal
Encoding: 65194 65194 105
Width: 637
GlyphClass: 2
Flags: W
AnchorPoint: "ArabicBelow" 261 -130 basechar 0
AnchorPoint: "ArabicAbove" 248 560 basechar 0
LayerCount: 2
Fore
SplineSet
375 42 m 2,0,1
 375 31.7422 375 31.7422 369.929 23.3712 c 128,-1,2
 364.858 15.0003 364.858 15.0003 358 15 c 2,3,-1
 154.18 14.9932 l 2,4,5
 153.175 15.0664 153.175 15.0664 149.841 16.0283 c 128,-1,6
 146.508 16.9902 146.508 16.9902 137.254 33.0063 c 128,-1,7
 128 49.0225 128 49.0225 128 74.3765 c 0,8,9
 127.824 104.165 127.824 104.165 131.798 121.68 c 1,10,11
 150.476 98 150.476 98 177 98 c 2,12,-1
 317 98 l 2,13,14
 338.499 98 338.499 98 351.249 108.376 c 128,-1,15
 364 118.751 364 118.751 364 139.477 c 128,-1,16
 364 160.203 364 160.203 333.873 206.808 c 128,-1,17
 303.745 253.412 303.745 253.412 247.91 294.956 c 1,18,-1
 258.644 387.263 l 1,19,20
 281.76 364.881 281.76 364.881 302.823 339.342 c 0,21,22
 340.68 293.437 340.68 293.437 369.752 227.251 c 128,-1,23
 398.823 161.064 398.823 161.064 413.425 141.758 c 128,-1,24
 428.028 122.452 428.028 122.452 448.986 110.226 c 128,-1,25
 469.945 98 469.945 98 487 98 c 2,26,-1
 633 98 l 1,27,-1
 633 15 l 1,28,-1
 471 15 l 2,29,30
 423.694 15 423.694 15 402.862 49.7168 c 2,31,-1
 375 96.1553 l 1,32,-1
 375 42 l 2,0,1
EndSplineSet
Validated: 33
EndChar

StartChar: thalfinal
Encoding: 65196 65196 107
Width: 637
GlyphClass: 2
Flags: W
AnchorPoint: "ArabicBelow" 198 -123 basechar 0
AnchorPoint: "ArabicAbove" 150 669 basechar 0
LayerCount: 2
Fore
SplineSet
207 522 m 1,0,-1
 150 465 l 1,1,-1
 89 526 l 1,2,-1
 146 583 l 1,3,-1
 207 522 l 1,0,-1
EndSplineSet
Refer: 105 65194 S 1 0 0 1 0 0 2
Validated: 1
EndChar

StartChar: rehfinal
Encoding: 65198 65198 109
Width: 637
GlyphClass: 2
Flags: W
AnchorPoint: "ArabicBelow" 248 -341 basechar 0
AnchorPoint: "ArabicAbove" 364 389 basechar 0
LayerCount: 2
Fore
SplineSet
635 15 m 1,0,-1
 484 15 l 2,1,2
 467.028 15 467.028 15 453.65 22.9014 c 0,3,4
 443.769 28.739 443.769 28.739 442 31 c 2,5,-1
 424 54 l 1,6,-1
 424 24 l 2,7,8
 424 -35.2112 424 -35.2112 393.936 -108.785 c 0,9,10
 364.631 -184.717 364.631 -184.717 323.337 -226.45 c 0,11,12
 274.309 -276 274.309 -276 214 -276 c 0,13,14
 195.997 -276 195.997 -276 174.962 -263.931 c 128,-1,15
 153.928 -251.862 153.928 -251.862 141.437 -241.117 c 1,16,17
 240.526 -207.649 240.526 -207.649 315.914 -141.256 c 0,18,19
 407 -61.038 407 -61.038 407 18 c 0,20,21
 407 52.082 407 52.082 375.566 100.19 c 0,22,23
 366.816 113.583 366.816 113.583 351.163 132.767 c 1,24,-1
 386.831 224.678 l 1,25,26
 401.508 191.233 401.508 191.233 411.186 175.21 c 0,27,28
 441.274 125.395 441.274 125.395 470.16 113.184 c 0,29,30
 508.546 96.958 508.546 96.958 599.896 96.958 c 0,31,32
 616.546 96.958 616.546 96.958 635 97.4863 c 1,33,-1
 635 15 l 1,0,-1
EndSplineSet
Validated: 9
EndChar

StartChar: zainfinal
Encoding: 65200 65200 111
Width: 637
GlyphClass: 2
Flags: W
AnchorPoint: "ArabicBelow" 198 -348 basechar 0
AnchorPoint: "ArabicAbove" 253 498 basechar 0
LayerCount: 2
Fore
SplineSet
320 353 m 1,0,-1
 273 307 l 1,1,-1
 217 362 l 1,2,-1
 264 409 l 1,3,-1
 320 353 l 1,0,-1
EndSplineSet
Refer: 109 65198 S 1 0 0 1 0 0 2
Validated: 9
EndChar

StartChar: seenfinal
Encoding: 65202 65202 113
Width: 637
GlyphClass: 2
Flags: W
AnchorPoint: "ArabicBelow" 469 -102 basechar 0
AnchorPoint: "ArabicAbove" 463 464 basechar 0
LayerCount: 2
Fore
SplineSet
536.589 114.998 m 0,0,1
 574 115.276 574 115.276 574 150 c 0,2,3
 574 170.858 574 170.858 553.595 193.487 c 2,4,-1
 540.235 208.303 l 1,5,-1
 562.238 267.396 l 1,6,7
 598.219 214.733 598.219 214.733 603.035 149.992 c 0,8,9
 606.903 98 606.903 98 636 98 c 2,10,-1
 649 98 l 1,11,-1
 649 14.9893 l 1,12,-1
 633.726 14.9336 l 1,13,14
 622.659 21.8833 622.659 21.8833 612.472 58.2148 c 0,15,16
 608.667 71.7861 608.667 71.7861 597.46 71.7861 c 128,-1,17
 586.253 71.7861 586.253 71.7861 580.98 62.4463 c 0,18,19
 568.4 40.1604 568.4 40.1604 541.886 36 c 1,20,-1
 536 36 l 2,21,22
 521.268 36 521.268 36 498.945 45.2622 c 128,-1,23
 476.621 54.5251 476.621 54.5251 458.929 84.6055 c 2,24,-1
 445.272 107.823 l 1,25,-1
 432.726 83.9863 l 2,26,27
 424.008 67.425 424.008 67.425 402.876 49.2126 c 128,-1,28
 381.743 31 381.743 31 368 31 c 2,29,-1
 330 31 l 1,30,-1
 330 -5 l 2,31,32
 330 -68.5947 330 -68.5947 276.224 -136.71 c 0,33,34
 244.893 -176.395 244.893 -176.395 214.989 -188.264 c 0,35,36
 180.191 -202.075 180.191 -202.075 146.275 -202.075 c 0,37,38
 94.0342 -202.075 94.0342 -202.075 59.5171 -160.782 c 128,-1,39
 25 -119.489 25 -119.489 25 -40 c 0,40,41
 25 -2.41571 25 -2.41571 46.9497 55.7072 c 1,42,43
 42 29.5568 42 29.5568 42 13 c 0,44,45
 42 -50.7197 42 -50.7197 90.2188 -92.3711 c 0,46,47
 121.042 -118.995 121.042 -118.995 173.238 -119.009 c 0,48,49
 231.187 -119.009 231.187 -119.009 285.934 -70.2344 c 0,50,51
 302.019 -55.5632 302.019 -55.5632 315 -26.2939 c 1,52,-1
 315 -23 l 2,53,54
 315 29.2822 315 29.2822 249.381 104.925 c 1,55,-1
 282.628 186.712 l 1,56,57
 293.024 168.466 293.024 168.466 316.533 142.303 c 0,58,59
 343.74 112.024 343.74 112.024 365.895 112.021 c 0,60,61
 388.422 112.021 388.422 112.021 418.783 150.721 c 0,62,63
 435.851 172.477 435.851 172.477 447.789 204.014 c 1,64,65
 459.572 171.592 459.572 171.592 476.306 150.611 c 0,66,67
 504.712 114.998 504.712 114.998 536.589 114.998 c 0,0,1
EndSplineSet
Validated: 1
EndChar

StartChar: seeninitial
Encoding: 65203 65203 114
Width: 637
GlyphClass: 2
Flags: W
AnchorPoint: "ArabicBelow" 401 -123 basechar 0
AnchorPoint: "ArabicAbove" 394 437 basechar 0
LayerCount: 2
Fore
SplineSet
571.855 112.346 m 0,0,1
 571.337 95.1014 571.337 95.1014 569 78 c 0,2,3
 565.112 57.0236 565.112 57.0236 556 38 c 0,4,5
 547.15 26.2669 547.15 26.2669 534.479 19.0047 c 0,6,7
 525 15.8326 525 15.8326 515 15 c 0,8,9
 513.324 14.9466 513.324 14.9466 511.648 14.936 c 0,10,11
 499.98 15.449 499.98 15.449 488.545 17.8493 c 0,12,13
 477.888 21.0173 477.888 21.0173 468.189 26.397 c 0,14,15
 458.419 33.7304 458.419 33.7304 450.136 42.7841 c 0,16,17
 439.735 55.4907 439.735 55.4907 430.594 69.1484 c 2,18,-1
 418.327 88.1064 l 1,19,-1
 405.605 69.4502 l 2,20,21
 398.702 59.7371 398.702 59.7371 390.753 50.8765 c 0,22,23
 382.816 43.0299 382.816 43.0299 374.097 36.0713 c 0,24,25
 359.682 26.4573 359.682 26.4573 343.506 20.2678 c 0,26,27
 326.526 15.9082 326.526 15.9082 309 15 c 0,28,29
 308.481 14.997 308.481 14.997 307.961 14.9964 c 0,30,31
 290.336 15.6894 290.336 15.6894 273.24 19.8562 c 0,32,33
 259.697 25.0492 259.697 25.0492 248.782 34.4248 c 0,34,35
 242.993 41.4992 242.993 41.4992 238.634 49.5662 c 0,36,37
 233.826 60.5007 233.826 60.5007 230.46 71.9883 c 2,38,-1
 223.903 95.7598 l 1,39,-1
 205.809 79.0068 l 2,40,41
 192.358 67.134 192.358 67.134 177.78 56.6808 c 0,42,43
 161.282 45.7775 161.282 45.7775 143.969 36.25 c 0,44,45
 125.372 27.312 125.372 27.312 105.961 20.3125 c 0,46,47
 97.7077 17.7248 97.7077 17.7248 89.231 16.0538 c 0,48,49
 80.6508 15.0772 80.6508 15.0772 72 15 c 2,50,-1
 -10 15 l 1,51,-1
 -10 98 l 1,52,-1
 59 98 l 2,53,54
 83.176 99.0445 83.176 99.0445 106.562 105.072 c 0,55,56
 131.58 114.127 131.58 114.127 155.246 126.289 c 0,57,58
 177.542 139.758 177.542 139.758 198.035 155.871 c 0,59,60
 219.309 174.293 219.309 174.293 239 194.405 c 1,61,-1
 239 167 l 2,62,63
 239.529 155.741 239.529 155.741 242.795 144.999 c 0,64,65
 247.543 134.35 247.543 134.35 254.18 124.768 c 0,66,67
 265.138 112.656 265.138 112.656 279.386 104.692 c 0,68,69
 295.388 99.0175 295.388 99.0175 312.395 97.9981 c 0,70,71
 312.698 97.9984 312.698 97.9984 313 98 c 0,72,73
 333.982 99.6838 333.982 99.6838 353.367 107.766 c 0,74,75
 371.901 119.874 371.901 119.874 386.047 137.064 c 0,76,77
 394.247 149.227 394.247 149.227 400.996 162.267 c 0,78,79
 408.276 178.164 408.276 178.164 413.973 194.699 c 1,80,81
 417.763 185.392 417.763 185.392 421.969 176.264 c 0,82,83
 425.803 168.373 425.803 168.373 429.935 160.634 c 0,84,85
 445.558 133.964 445.558 133.964 467.69 112.909 c 0,86,87
 477.117 106.382 477.117 106.382 487.55 101.643 c 0,88,89
 498.427 97.911 498.427 97.911 509.84 97 c 0,90,91
 511.501 97.0217 511.501 97.0217 513.159 97.1289 c 128,-1,92
 514.712 97.2706 514.712 97.2706 516.254 97.4961 c 0,93,94
 522.534 98.9133 522.534 98.9133 528.257 101.856 c 0,95,96
 533.737 105.665 533.737 105.665 538.154 110.681 c 0,97,98
 542.178 116.479 542.178 116.479 544.789 123.039 c 0,99,100
 546.75 130.389 546.75 130.389 547 138 c 0,101,102
 545.943 148.797 545.943 148.797 542.308 159.06 c 0,103,104
 536.203 171.879 536.203 171.879 528.233 183.68 c 0,105,106
 523.696 189.992 523.696 189.992 518.908 196.115 c 0,107,108
 514.308 201.782 514.308 201.782 509.511 207.282 c 1,109,-1
 533 263 l 1,110,111
 541.837 244.863 541.837 244.863 549 226 c 0,112,113
 553.065 214.061 553.065 214.061 556.586 201.948 c 0,114,115
 563.122 177.163 563.122 177.163 568 152 c 0,116,117
 571.644 126.361 571.644 126.361 571.855 112.346 c 0,0,1
  Spiro
    571.805 116.727 o
    569 78 o
    556 38 o
    534.479 19.0047 o
    515 15 o
    488.545 17.8492 o
    468.189 26.397 o
    450.136 42.7842 o
    430.594 69.1484 [
    418.327 88.1064 v
    405.605 69.4502 ]
    390.753 50.8765 o
    374.097 36.0713 o
    343.506 20.2678 o
    309 15 o
    273.24 19.8562 o
    248.782 34.4248 o
    238.634 49.5662 o
    230.46 71.9883 [
    223.903 95.7598 v
    205.809 79.0068 ]
    177.78 56.6808 o
    143.969 36.25 o
    105.961 20.3125 o
    72 15 [
    -10 15 v
    -10 98 v
    59 98 ]
    106.562 105.072 o
    155.246 126.289 o
    198.035 155.871 o
    239 194.405 v
    239 167 ]
    242.795 144.999 o
    254.18 124.768 o
    279.386 104.692 o
    313 98 o
    353.367 107.766 o
    386.047 137.064 o
    400.996 162.267 o
    413.973 194.699 v
    421.968 176.264 o
    429.935 160.634 o
    467.69 112.909 o
    509.84 97 o
    513.159 97.1289 o
    516.254 97.4961 o
    528.257 101.856 o
    538.154 110.681 o
    544.788 123.039 o
    547 138 o
    542.308 159.06 o
    528.233 183.68 o
    518.908 196.114 o
    509.511 207.282 v
    533 263 v
    549 226 o
    556.586 201.948 o
    568 152 o
    0 0 z
  EndSpiro
EndSplineSet
Validated: 1
EndChar

StartChar: seenmedial
Encoding: 65204 65204 115
Width: 637
GlyphClass: 2
Flags: W
AnchorPoint: "ArabicBelow" 362 -96 basechar 0
AnchorPoint: "ArabicAbove" 341 444 basechar 0
LayerCount: 2
Fore
SplineSet
646 98 m 5,0,-1
 646 15 l 5,1,-1
 608 15 l 2,2,3
 590.479 15 590.479 15 571.148 23.6826 c 0,4,5
 548.227 33.9773 548.227 33.9773 537.754 50.8955 c 2,6,-1
 522.111 76.165 l 1,7,-1
 511.072 48.5713 l 2,8,9
 506.214 36.4264 506.214 36.4264 502.26 29.9111 c 0,10,11
 493.214 15 493.214 15 485 15 c 0,12,13
 454.035 15 454.035 15 432.314 27.5977 c 128,-1,14
 410.589 40.1982 410.589 40.1982 391.54 69.2295 c 2,15,-1
 379.239 87.9766 l 1,16,-1
 366.606 69.4512 l 2,17,18
 352.656 48.9929 352.656 48.9929 335.097 36.0713 c 0,19,20
 306.465 15 306.465 15 270 15 c 0,21,22
 228.711 15 228.711 15 209.728 34.4844 c 0,23,24
 197.283 47.2565 197.283 47.2565 190.46 71.9893 c 2,25,-1
 183.761 96.2715 l 1,26,-1
 165.604 78.8125 l 2,27,28
 140.976 55.1321 140.976 55.1321 105.033 36.2832 c 0,29,30
 64.4453 15 64.4453 15 32 15 c 2,31,-1
 -11 15 l 1,32,-1
 -11 98 l 1,33,-1
 19 98 l 2,34,35
 67.9658 98 67.9658 98 117.697 126.269 c 0,36,37
 160.213 150.435 160.213 150.435 199 191.229 c 1,38,-1
 199 167 l 2,39,40
 199 144.109 199 144.109 214.18 124.768 c 0,41,42
 235.186 98 235.186 98 274 98 c 0,43,44
 317.711 98 317.711 98 348.69 136.603 c 0,45,46
 367.403 159.92 367.403 159.92 379.619 194.294 c 1,47,48
 386.819 172.783 386.819 172.783 392.556 161.349 c 0,49,50
 424.338 97.998 424.338 97.998 470.479 97.998 c 0,51,52
 470.762 97.998 470.762 97.998 471.043 98 c 0,53,54
 475.941 98.042 475.941 98.042 480.121 99.0391 c 0,55,56
 491.02 101.641 491.02 101.641 499.51 111.546 c 128,-1,57
 508 121.451 508 121.451 508 138 c 0,58,59
 508 158.885 508 158.885 491.112 189.284 c 0,60,61
 487.14 196.434 487.14 196.434 480.317 207.535 c 1,62,-1
 506.082 255.471 l 1,63,64
 510.684 245.801 510.684 245.801 513.896 236.896 c 0,65,66
 520.172 219.499 520.172 219.499 528.188 186.369 c 128,-1,67
 536.203 153.238 536.203 153.238 555.336 129.569 c 0,68,69
 580.853 98 580.853 98 618 98 c 2,70,-1
 646 98 l 5,0,-1
EndSplineSet
Validated: 1
EndChar

StartChar: sheenfinal
Encoding: 65206 65206 117
Width: 637
GlyphClass: 2
Flags: W
AnchorPoint: "ArabicBelow" 480 -133 basechar 0
AnchorPoint: "ArabicAbove" 416 608 basechar 0
LayerCount: 2
Fore
SplineSet
393 341 m 1,0,-1
 336 284 l 1,1,-1
 275 346 l 1,2,-1
 332 403 l 1,3,-1
 393 341 l 1,0,-1
577 343 m 1,4,-1
 520 286 l 1,5,-1
 458 347 l 1,6,-1
 515 405 l 1,7,-1
 577 343 l 1,4,-1
481 458 m 1,8,-1
 425 401 l 1,9,-1
 363 463 l 1,10,-1
 420 520 l 1,11,-1
 481 458 l 1,8,-1
EndSplineSet
Refer: 113 65202 S 1 0 0 1 -0.00012207 4.57764e-05 2
Validated: 1
EndChar

StartChar: sheeninitial
Encoding: 65207 65207 118
Width: 637
GlyphClass: 2
Flags: W
AnchorPoint: "ArabicBelow" 369 -102 basechar 0
AnchorPoint: "ArabicAbove" 379 596 basechar 0
LayerCount: 2
Fore
SplineSet
354 346 m 1,0,-1
 297 289 l 1,1,-1
 236 351 l 1,2,-1
 293 408 l 1,3,-1
 354 346 l 1,0,-1
538 348 m 1,4,-1
 481 291 l 1,5,-1
 419 352 l 1,6,-1
 476 410 l 1,7,-1
 538 348 l 1,4,-1
442 463 m 1,8,-1
 386 406 l 1,9,-1
 324 468 l 1,10,-1
 381 525 l 1,11,-1
 442 463 l 1,8,-1
EndSplineSet
Refer: 114 65203 S 1 0 0 1 0 0 2
Validated: 1
EndChar

StartChar: sheenmedial
Encoding: 65208 65208 119
Width: 637
GlyphClass: 2
Flags: W
AnchorPoint: "ArabicBelow" 375 -102 basechar 0
AnchorPoint: "ArabicAbove" 348 573 basechar 0
LayerCount: 2
Fore
SplineSet
303 329 m 1,0,-1
 246 272 l 1,1,-1
 185 334 l 1,2,-1
 242 391 l 1,3,-1
 303 329 l 1,0,-1
487 331 m 1,4,-1
 430 274 l 1,5,-1
 368 335 l 1,6,-1
 425 393 l 1,7,-1
 487 331 l 1,4,-1
391 446 m 1,8,-1
 335 389 l 1,9,-1
 273 451 l 1,10,-1
 330 508 l 1,11,-1
 391 446 l 1,8,-1
EndSplineSet
Refer: 115 65204 S 1 0 0 1 0 0 2
Validated: 1
EndChar

StartChar: sadisolated
Encoding: 65209 65209 120
Width: 637
GlyphClass: 2
Flags: W
AnchorPoint: "ArabicBelow" 463 -156 basechar 0
AnchorPoint: "ArabicAbove" 405 412 basechar 0
LayerCount: 2
Fore
SplineSet
332 -15 m 6,0,1
 331 -43 331 -43 325 -70 c 5,2,3
 310 -109 310 -109 285 -143 c 4,4,5
 267 -162 267 -162 247 -178 c 4,6,7
 233 -189 233 -189 216 -197 c 4,8,9
 199 -204 199 -204 180 -208 c 4,10,11
 163 -211 163 -211 145 -211 c 4,12,13
 139 -211 l 4,14,15
 117 -209 117 -209 97 -201 c 5,16,17
 77 -188 77 -188 61 -170 c 4,18,19
 45 -146 45 -146 35 -120 c 4,20,21
 28 -90 28 -90 27 -60 c 4,22,23
 27 -50 l 4,24,25
 29 -28 29 -28 33 -6 c 260,26,27
 37 16 37 16 44 38 c 5,28,-1
 55 38 l 5,29,30
 52 15 52 15 51 -8 c 4,31,32
 51 -18 l 4,33,34
 51 -37 51 -37 56 -55 c 5,35,36
 69 -82 69 -82 92 -102 c 4,37,38
 109 -114 109 -114 127 -122 c 5,39,40
 148 -127 148 -127 169 -128 c 4,41,42
 171 -128 171 -128 174 -128 c 4,43,44
 204 -125 204 -125 232 -116 c 4,45,46
 262 -102 262 -102 288 -80 c 4,47,48
 296 -72 296 -72 303 -62 c 4,49,50
 311 -50 311 -50 317 -36 c 5,51,-1
 317 -33 l 6,52,53
 317 -22 317 -22 315 -12 c 4,54,55
 312 -1 312 -1 308 8 c 4,56,57
 295 35 295 35 280 59 c 4,58,59
 273 68 273 68 267 77 c 4,60,61
 251 95 l 5,62,-1
 285 178 l 5,63,64
 290 169 290 169 296 161 c 4,65,66
 305 147 305 147 316 133 c 4,67,68
 327 121 327 121 340 112 c 4,69,70
 346 108 346 108 353 106 c 260,71,72
 360 104 360 104 367 103 c 5,73,74
 371 104 371 104 376 106 c 5,75,76
 379 108 379 108 381 111 c 4,77,78
 391 129 l 4,79,80
 405 158 405 158 420 187 c 4,81,82
 436 216 436 216 454 243 c 4,83,84
 465 258 465 258 477 272 c 4,85,86
 488 284 488 284 502 295 c 5,87,88
 511 300 511 300 522 304 c 5,89,90
 534 306 l 5,91,92
 540 305 540 305 545 304 c 4,93,94
 553 302 553 302 561 298 c 4,95,96
 572 291 572 291 582 282 c 4,97,98
 595 268 595 268 604 251 c 4,99,100
 612 232 612 232 616 211 c 4,101,102
 620 184 620 184 620 156 c 4,103,104
 620 148 l 4,105,106
 618 104 618 104 614 61 c 4,107,108
 613 51 613 51 612 40 c 4,109,110
 611 32 611 32 609 24 c 5,111,112
 608 22 608 22 606 19 c 5,113,114
 604 18 604 18 602 16 c 5,115,116
 601 16 601 16 599 15 c 5,117,118
 593 15 593 15 588 15 c 6,119,-1
 332 15 l 5,120,-1
 332 -15 l 6,0,1
573 95 m 6,121,122
 576 95 576 95 578 96 c 5,123,124
 581 96 581 96 583 97 c 5,125,126
 593 105 l 4,127,128
 598 110 598 110 601 116 c 4,129,130
 604 124 604 124 604 131 c 4,131,132
 603 148 603 148 598 164 c 5,133,134
 590 180 590 180 579 195 c 4,135,136
 567 208 567 208 553 218 c 5,137,138
 540 224 540 224 526 227 c 5,139,140
 507 228 507 228 489 223 c 5,141,142
 475 215 475 215 464 203 c 4,143,144
 456 192 456 192 448 180 c 4,145,146
 440 169 440 169 433 157 c 6,147,-1
 397 95 l 5,148,-1
 573 95 l 6,121,122
EndSplineSet
EndChar

StartChar: sadfinal
Encoding: 65210 65210 121
Width: 637
GlyphClass: 2
Flags: W
AnchorPoint: "ArabicBelow" 498 -155 basechar 0
AnchorPoint: "ArabicAbove" 357 433 basechar 0
LayerCount: 2
Fore
SplineSet
620 147.941 m 4,0,1
 620 111.694 620 111.694 611 98 c 20,2,-1
 643 98 l 5,3,-1
 643.064 15.2881 l 4,4,5
 590.666 14.9619 l 6,6,-1
 332 15 l 5,7,-1
 332 -15 l 6,8,9
 332 -78.1934 332 -78.1934 278.259 -145.665 c 4,10,11
 247.088 -184.801 247.088 -184.801 216.456 -197.413 c 4,12,13
 183.075 -211.159 183.075 -211.159 139.018 -211.163 c 132,-1,14
 94.9609 -211.167 94.9609 -211.167 60.9807 -170.156 c 132,-1,15
 27.0005 -129.144 27.0005 -129.144 27 -50 c 4,16,17
 27 -10.645 27 -10.645 49.3572 47.8327 c 5,18,19
 44 20.2247 44 20.2247 44 3 c 4,20,21
 44 -60.7168 44 -60.7168 92.2188 -102.371 c 4,22,23
 121.888 -128 121.888 -128 174 -128 c 4,24,25
 233.068 -128 233.068 -128 287.822 -80.335 c 4,26,27
 303.807 -66.0423 303.807 -66.0423 317 -36.2939 c 5,28,-1
 317 -33 l 6,29,30
 317 3.83398 317 3.83398 279.504 59.2803 c 4,31,32
 267.567 76.9315 267.567 76.9315 251.445 95.083 c 5,33,-1
 284.967 177.545 l 5,34,35
 294.142 162.275 294.142 162.275 309.133 142.825 c 4,36,37
 341.497 100.159 341.497 100.159 366.746 103.099 c 4,38,39
 377.147 104.103 377.147 104.103 381.073 111.051 c 132,-1,40
 385 118 385 118 411.5 170 c 132,-1,41
 438 222 438 222 468 264 c 4,42,43
 498.179 306.25 498.179 306.25 539.156 306.25 c 4,44,45
 540.666 306.25 540.666 306.25 560.833 298.125 c 4,46,47
 583.271 289.085 583.271 289.085 604.066 251.452 c 4,48,49
 620 222.617 620 222.617 620 147.941 c 4,0,1
573 95 m 6,50,51
 582.498 95 582.498 95 593.249 104.993 c 132,-1,52
 604 114.985 604 114.985 604 131 c 4,53,54
 604 165.204 604 165.204 578.681 194.829 c 132,-1,55
 553.363 224.455 553.363 224.455 526 227 c 4,56,57
 483 231 483 231 463.942 202.956 c 4,58,59
 460.644 199.658 460.644 199.658 406.555 118.373 c 6,60,-1
 390.831 95 l 5,61,-1
 573 95 l 6,50,51
49.3572 47.8327 m 5,62,63
 52.1617 62.286 52.1617 62.286 56.4346 79.585 c 4,64,65
 59.4766 91.8975 59.4766 91.8975 62.832 103.596 c 5,66,67
 72.085 99.9307 l 5,68,69
 62.8438 81.9609 62.8438 81.9609 51.9414 54.4678 c 6,70,-1
 49.3572 47.8327 l 5,62,63
EndSplineSet
Validated: 37
EndChar

StartChar: sadinitial
Encoding: 65211 65211 122
Width: 637
GlyphClass: 2
Flags: W
AnchorPoint: "ArabicBelow" 423 -109 basechar 0
AnchorPoint: "ArabicAbove" 451 485 basechar 0
LayerCount: 2
Fore
SplineSet
599 143 m 0,0,1
 599 92.625 599 92.625 590.431 57.5703 c 0,2,3
 580.025 15 580.025 15 561 15 c 2,4,-1
 313 15 l 2,5,6
 251.107 15 251.107 15 214.455 36.0156 c 0,7,8
 182.176 54.5229 182.176 54.5229 163.593 94.3428 c 2,9,10
 151.011 121.304 l 1,11,-1
 136.817 95.1562 l 2,12,13
 117.649 59.8434 117.649 59.8434 101.064 42.2656 c 0,14,15
 75.3389 15 75.3389 15 50 15 c 2,16,-1
 -5 15 l 5,17,-1
 -5 98 l 5,18,-1
 31 98 l 2,19,20
 66.4902 98 66.4902 98 93.5068 116.649 c 0,21,22
 116.556 132.561 116.556 132.561 128.005 149.965 c 2,23,-1
 166.215 208.052 l 1,24,25
 171.847 195.952 171.847 195.952 182.896 175.708 c 0,26,27
 207.439 130.744 207.439 130.744 230.179 121.175 c 2,28,-1
 240.476 116.842 l 1,29,-1
 247.579 125.464 l 2,30,31
 289.637 176.512 289.637 176.512 297.211 185.034 c 0,32,33
 344.065 237.747 344.065 237.747 384.057 268.043 c 0,34,35
 438.121 309 438.121 309 474 309 c 0,36,37
 497.221 309 497.221 309 521.534 297.467 c 0,38,39
 555.276 281.46 555.276 281.46 574.168 250.232 c 0,40,41
 599 209.185 599 209.185 599 143 c 0,0,1
542 98 m 2,42,43
 555.857 98 555.857 98 568.246 104.866 c 0,44,45
 571.181 106.492 571.181 106.492 573.458 108.148 c 0,46,47
 586.628 117.728 586.628 117.728 586.998 132.878 c 0,48,49
 587.015 133.554 587.015 133.554 587.015 134.236 c 0,50,51
 587.015 169.479 587.015 169.479 542.734 201.194 c 0,52,53
 502.514 230 502.514 230 470 230 c 0,54,55
 425.28 230 425.28 230 382.518 209.527 c 0,56,57
 326.418 182.67 326.418 182.67 269.209 123.419 c 2,58,-1
 244.666 98 l 1,59,-1
 542 98 l 2,42,43
EndSplineSet
Validated: 1
EndChar

StartChar: sadmedial
Encoding: 65212 65212 123
Width: 637
GlyphClass: 2
Flags: W
AnchorPoint: "ArabicBelow" 410 -130 basechar 0
AnchorPoint: "ArabicAbove" 444 471 basechar 0
LayerCount: 2
Fore
SplineSet
542 98 m 2,0,1
 555.857 98 555.857 98 568.246 104.866 c 0,2,3
 571.181 106.492 571.181 106.492 573.458 108.148 c 0,4,5
 586.628 117.728 586.628 117.728 586.998 132.878 c 0,6,7
 587.015 133.554 587.015 133.554 587.015 134.236 c 0,8,9
 587.015 169.479 587.015 169.479 542.734 201.194 c 0,10,11
 502.514 230 502.514 230 470 230 c 0,12,13
 425.28 230 425.28 230 382.518 209.527 c 0,14,15
 326.418 182.67 326.418 182.67 269.209 123.419 c 2,16,-1
 244.666 98 l 1,17,-1
 542 98 l 2,0,1
598 98 m 1,18,-1
 645 98 l 5,19,-1
 645 15 l 5,20,-1
 313 15 l 2,21,22
 251.107 15 251.107 15 214.455 36.0156 c 0,23,24
 182.176 54.5229 182.176 54.5229 163.593 94.3428 c 2,25,-1
 151.011 121.304 l 1,26,-1
 136.817 95.1562 l 2,27,28
 117.649 59.8434 117.649 59.8434 101.064 42.2656 c 0,29,30
 75.3389 15 75.3389 15 50 15 c 2,31,-1
 -8 15 l 1,32,-1
 -8 98 l 1,33,-1
 31 98 l 2,34,35
 66.4902 98 66.4902 98 93.5068 116.649 c 0,36,37
 116.556 132.561 116.556 132.561 128.005 149.965 c 2,38,-1
 166.215 208.052 l 1,39,40
 171.847 195.952 171.847 195.952 182.896 175.708 c 0,41,42
 207.439 130.744 207.439 130.744 230.179 121.175 c 2,43,-1
 240.476 116.842 l 1,44,-1
 247.579 125.464 l 2,45,46
 289.637 176.512 289.637 176.512 297.211 185.034 c 0,47,48
 344.065 237.747 344.065 237.747 384.057 268.043 c 0,49,50
 438.121 309 438.121 309 474 309 c 0,51,52
 502.615 309 502.615 309 522.442 301.067 c 0,53,54
 556.397 287.483 556.397 287.483 574.2 258.186 c 0,55,56
 598 219.019 598 219.019 598 143 c 2,57,-1
 598 98 l 1,18,-1
EndSplineSet
Validated: 1
EndChar

StartChar: dadfinal
Encoding: 65214 65214 125
Width: 637
GlyphClass: 2
Flags: W
AnchorPoint: "ArabicBelow" 463 -156 basechar 0
AnchorPoint: "ArabicAbove" 363 468 basechar 0
LayerCount: 2
Fore
SplineSet
332 -15 m 6,0,1
 331 -43 331 -43 325 -70 c 5,2,3
 310 -109 310 -109 285 -143 c 4,4,5
 267 -162 267 -162 247 -178 c 4,6,7
 233 -189 233 -189 216 -197 c 4,8,9
 199 -204 199 -204 180 -208 c 4,10,11
 163 -211 163 -211 145 -211 c 4,12,13
 139 -211 l 4,14,15
 117 -209 117 -209 97 -201 c 5,16,17
 77 -188 77 -188 61 -170 c 4,18,19
 45 -146 45 -146 35 -120 c 4,20,21
 28 -90 28 -90 27 -60 c 4,22,23
 27 -50 l 4,24,25
 29 -28 29 -28 33 -6 c 260,26,27
 37 16 37 16 44 38 c 5,28,-1
 55 38 l 5,29,30
 52 15 52 15 51 -8 c 4,31,32
 51 -18 l 4,33,34
 51 -37 51 -37 56 -55 c 5,35,36
 69 -82 69 -82 92 -102 c 4,37,38
 109 -114 109 -114 127 -122 c 5,39,40
 148 -127 148 -127 169 -128 c 4,41,42
 171 -128 171 -128 174 -128 c 4,43,44
 204 -125 204 -125 232 -116 c 4,45,46
 262 -102 262 -102 288 -80 c 4,47,48
 296 -72 296 -72 303 -62 c 4,49,50
 311 -50 311 -50 317 -36 c 5,51,-1
 317 -33 l 6,52,53
 317 -22 317 -22 315 -12 c 4,54,55
 312 -1 312 -1 308 8 c 4,56,57
 295 35 295 35 280 59 c 4,58,59
 273 68 273 68 267 77 c 4,60,61
 251 95 l 5,62,-1
 285 178 l 5,63,64
 290 169 290 169 296 161 c 4,65,66
 305 147 305 147 316 133 c 4,67,68
 327 121 327 121 340 112 c 4,69,70
 346 108 346 108 353 106 c 260,71,72
 360 104 360 104 367 103 c 5,73,74
 371 104 371 104 376 106 c 5,75,76
 379 108 379 108 381 111 c 4,77,78
 391 129 l 4,79,80
 405 158 405 158 420 187 c 4,81,82
 436 216 436 216 454 243 c 4,83,84
 465 258 465 258 477 272 c 4,85,86
 488 284 488 284 502 295 c 5,87,88
 511 300 511 300 522 304 c 5,89,90
 534 306 l 5,91,92
 540 305 540 305 545 304 c 4,93,94
 553 302 553 302 561 298 c 4,95,96
 572 291 572 291 582 282 c 4,97,98
 595 268 595 268 604 251 c 4,99,100
 612 232 612 232 616 211 c 4,101,102
 620 184 620 184 620 156 c 4,103,104
 620 148 l 4,105,106
 618 104 618 104 614 61 c 4,107,108
 613 51 613 51 612 40 c 4,109,110
 611 32 611 32 609 24 c 5,111,112
 608 22 608 22 606 19 c 5,113,114
 604 18 604 18 602 16 c 5,115,116
 601 16 601 16 599 15 c 5,117,118
 593 15 593 15 588 15 c 6,119,-1
 332 15 l 5,120,-1
 332 -15 l 6,0,1
573 95 m 6,121,122
 576 95 576 95 578 96 c 5,123,124
 581 96 581 96 583 97 c 5,125,126
 593 105 l 4,127,128
 598 110 598 110 601 116 c 4,129,130
 604 124 604 124 604 131 c 4,131,132
 603 148 603 148 598 164 c 5,133,134
 590 180 590 180 579 195 c 4,135,136
 567 208 567 208 553 218 c 5,137,138
 540 224 540 224 526 227 c 5,139,140
 507 228 507 228 489 223 c 5,141,142
 475 215 475 215 464 203 c 4,143,144
 456 192 456 192 448 180 c 4,145,146
 440 169 440 169 433 157 c 6,147,-1
 397 95 l 5,148,-1
 573 95 l 6,121,122
429 350 m 1,149,-1
 372 293 l 1,150,-1
 311 354 l 1,151,-1
 368 411 l 1,152,-1
 429 350 l 1,149,-1
EndSplineSet
EndChar

StartChar: dadinitial
Encoding: 65215 65215 126
Width: 637
GlyphClass: 2
Flags: W
AnchorPoint: "ArabicBelow" 362 -109 basechar 0
AnchorPoint: "ArabicAbove" 280 546 basechar 0
LayerCount: 2
Fore
SplineSet
350 390 m 1,0,-1
 293 333 l 1,1,-1
 232 394 l 1,2,-1
 289 451 l 1,3,-1
 350 390 l 1,0,-1
EndSplineSet
Refer: 122 65211 S 1 0 0 1 0 0 2
Validated: 1
EndChar

StartChar: dadmedial
Encoding: 65216 65216 127
Width: 637
GlyphClass: 2
Flags: W
AnchorPoint: "ArabicBelow" 410 -96 basechar 0
AnchorPoint: "ArabicAbove" 280 553 basechar 0
LayerCount: 2
Fore
SplineSet
352 395 m 1,0,-1
 295 338 l 1,1,-1
 233 400 l 1,2,-1
 290 457 l 1,3,-1
 352 395 l 1,0,-1
EndSplineSet
Refer: 123 65212 S 1 0 0 1 0 0 2
Validated: 1
EndChar

StartChar: tahfinal
Encoding: 65218 65218 129
Width: 637
GlyphClass: 2
Flags: W
AnchorPoint: "ArabicBelow" 327 -143 basechar 0
AnchorPoint: "ArabicAbove" 409 505 basechar 0
LayerCount: 2
Fore
SplineSet
457 98 m 2,0,1
 467.547 98.0667 467.547 98.0667 477.931 99.6376 c 0,2,3
 488.072 102.557 488.072 102.557 497.016 108.123 c 0,4,5
 509.413 119.872 509.413 119.872 515 136 c 1,6,7
 513.06 155.329 513.06 155.329 503.581 172.352 c 0,8,9
 489.516 188.768 489.516 188.768 471.708 201.388 c 0,10,11
 454.653 212.376 454.653 212.376 436.166 220.597 c 0,12,13
 420.792 225.537 420.792 225.537 404.728 227 c 0,14,15
 384.301 226.039 384.301 226.039 364.733 219.892 c 0,16,17
 345.982 211.776 345.982 211.776 328.494 201.128 c 0,18,19
 278.997 165.905 278.997 165.905 235.299 123.512 c 2,20,-1
 210.235 98 l 1,21,-1
 457 98 l 2,0,1
  Spiro
    457 98 ]
    497.016 108.123 o
    515 136 v
    503.581 172.352 o
    471.708 201.388 o
    436.166 220.597 o
    404.728 227 o
    328.494 201.128 o
    235.299 123.512 [
    210.235 98 v
    0 0 z
  EndSpiro
643 15 m 1,22,-1
 125 15 l 2,23,24
 118.282 15.0264 118.282 15.0264 111.626 15.7924 c 0,25,26
 105.063 17.2418 105.063 17.2418 98.9918 20.1062 c 0,27,28
 88.1758 27.9879 88.1758 27.9879 80.8327 39.3665 c 0,29,30
 72.4684 57.2998 72.4684 57.2998 66.001 76.1044 c 0,31,32
 58.8865 94.6248 58.8865 94.6248 50.2311 112.466 c 1,33,34
 63.6918 106.579 63.6918 106.579 77.5033 101.617 c 0,35,36
 89.5512 98.5341 89.5512 98.5341 102 98 c 2,37,-1
 147 98 l 2,38,39
 158.931 98.3935 158.931 98.3935 170.454 101.298 c 0,40,41
 180.781 105.325 180.781 105.325 190.192 111.192 c 0,42,43
 200.554 119.158 200.554 119.158 209.595 128.639 c 0,44,45
 218.906 139.339 218.906 139.339 227.442 150.671 c 1,46,-1
 226.941 156.324 l 2,47,48
 222.758 199.714 222.758 199.714 216.962 242.916 c 0,49,50
 209.272 294.301 209.272 294.301 200.946 345.587 c 0,51,52
 193.103 392.046 193.103 392.046 182.538 437.934 c 0,53,54
 174.859 466.019 174.859 466.019 165.384 493.549 c 1,55,-1
 203.681 588.941 l 1,56,57
 217.179 541.46 217.179 541.46 225.477 492.777 c 0,58,59
 233.142 432.253 233.142 432.253 240.045 371.625 c 0,60,61
 246.46 317.033 246.46 317.033 248.261 262.146 c 0,62,63
 248.587 231.519 248.587 231.519 251 201 c 2,64,-1
 254 172 l 1,65,-1
 280 204 l 2,66,67
 298.585 224.884 298.585 224.884 318.904 244.168 c 0,68,69
 337.995 263.55 337.995 263.55 357.865 282.064 c 0,70,71
 375.151 295.346 375.151 295.346 394.545 305.266 c 0,72,73
 410.935 311.719 410.935 311.719 428.349 313 c 0,74,75
 445.817 310.539 445.817 310.539 461.909 302.925 c 0,76,77
 480.79 291.747 480.79 291.747 497 277 c 0,78,79
 519.291 248.165 519.291 248.165 530 213 c 0,80,81
 533.503 194.147 533.503 194.147 535 175 c 2,82,-1
 536 160 l 2,83,84
 536.32 152.949 536.32 152.949 535.839 145.914 c 0,85,86
 535.014 138.906 535.014 138.906 534.339 131.886 c 0,87,88
 533.729 124.014 533.729 124.014 532.357 116.254 c 2,89,-1
 528.301 98 l 1,90,-1
 643 98 l 1,91,-1
 643 15 l 1,22,-1
  Spiro
    643 15 v
    125 15 ]
    80.8327 39.3665 o
    50.2311 112.466 v
    77.5033 101.617 o
    102 98 [
    147 98 ]
    170.454 101.298 o
    190.192 111.192 o
    209.595 128.639 o
    227.442 150.671 v
    226.941 156.324 ]
    216.962 242.916 o
    200.946 345.587 o
    182.538 437.934 o
    165.384 493.549 v
    203.681 588.941 v
    225.477 492.777 o
    240.045 371.625 o
    248.261 262.146 o
    251 201 [
    254 172 v
    280 204 ]
    318.904 244.168 o
    357.865 282.064 o
    394.545 305.266 o
    428.349 313 o
    461.909 302.925 o
    497 277 o
    530 213 o
    535 175 [
    536 160 ]
    534.339 131.886 o
    532.357 116.254 [
    528.301 98 v
    643 98 v
    0 0 z
  EndSpiro
EndSplineSet
Validated: 1
EndChar

StartChar: tahinitial
Encoding: 65219 65219 130
Width: 637
GlyphClass: 2
Flags: W
AnchorPoint: "ArabicBelow" 297 -109 basechar 0
AnchorPoint: "ArabicAbove" 345 546 basechar 0
LayerCount: 2
Fore
SplineSet
270 253 m 0,0,1
 290.027 273.234 290.027 273.234 312.225 290.996 c 0,2,3
 325.501 300.267 325.501 300.267 340.07 307.231 c 0,4,5
 355.442 312.409 355.442 312.409 371.601 313 c 0,6,7
 388.938 310.575 388.938 310.575 404.833 303.065 c 0,8,9
 424.305 290.279 424.305 290.279 440.346 273.26 c 0,10,11
 457.094 251.598 457.094 251.598 467.836 226.484 c 0,12,13
 475.406 196.61 475.406 196.61 477 165.635 c 0,14,15
 477.406 132.635 477.406 132.635 473 100 c 0,16,17
 467.659 73.7001 467.659 73.7001 460 48 c 0,18,19
 457.492 40.8871 457.492 40.8871 454.06 34.1886 c 0,20,21
 449.96 27.8432 449.96 27.8432 444.432 22.7254 c 0,22,23
 438.179 18.5056 438.179 18.5056 430.97 16.2531 c 0,24,25
 423.552 15.0489 423.552 15.0489 416 15 c 2,26,-1
 -7 15 l 1,27,-1
 -7 98 l 1,28,-1
 89 98 l 2,29,30
 101.239 98.3965 101.239 98.3965 113.044 101.413 c 0,31,32
 123.477 105.579 123.477 105.579 132.937 111.652 c 0,33,34
 143.164 119.71 143.164 119.71 152.109 129.212 c 0,35,36
 161.143 139.667 161.143 139.667 169.465 150.701 c 1,37,-1
 168.936 156.39 l 2,38,39
 164.427 201.608 164.427 201.608 158.38 246.643 c 0,40,41
 150.742 297.727 150.742 297.727 142.409 348.703 c 0,42,43
 134.682 394.079 134.682 394.079 124.313 438.896 c 0,44,45
 116.736 466.498 116.736 466.498 107.384 493.548 c 1,46,-1
 145.681 588.941 l 1,47,48
 158.212 541.23 158.212 541.23 167.477 492.777 c 0,49,50
 176.641 432.438 176.641 432.438 182.045 371.625 c 0,51,52
 186.184 316.888 186.184 316.888 190.261 262.146 c 0,53,54
 192.367 233.589 192.367 233.589 194 205 c 2,55,-1
 195.5 176.5 l 1,56,-1
 222.5 204.5 l 2,57,58
 233.667 215.832 233.667 215.832 245 227 c 0,59,60
 257.612 239.891 257.612 239.891 270 253 c 0,0,1
  Spiro
    270 253 o
    312.225 290.996 o
    371.601 313 o
    404.833 303.065 o
    440.346 273.26 o
    467.837 226.484 o
    477 165.635 o
    473 100 o
    460 48 o
    416 15 [
    -7 15 v
    -7 98 v
    89 98 ]
    113.044 101.413 o
    132.937 111.652 o
    152.109 129.212 o
    169.465 150.701 v
    168.936 156.39 ]
    158.38 246.643 o
    142.409 348.703 o
    124.313 438.896 o
    107.384 493.548 v
    145.681 588.941 v
    167.477 492.777 o
    182.045 371.625 o
    190.261 262.146 o
    194 205 [
    195.5 176.5 v
    222.5 204.5 ]
    245 227 o
    0 0 z
  EndSpiro
399 98 m 2,61,62
 408.422 98.3322 408.422 98.3322 417.697 100.021 c 0,63,64
 425.172 101.744 425.172 101.744 432.5 104 c 0,65,66
 439.689 106.706 439.689 106.706 446 111 c 0,67,68
 451.225 116.034 451.225 116.034 454.5 122.5 c 0,69,70
 456.296 128.111 456.296 128.111 456.5 134 c 0,71,72
 457.044 142.809 457.044 142.809 455.5 151.5 c 0,73,74
 451.163 164.293 451.163 164.293 443.271 175.339 c 0,75,76
 428.34 191.023 428.34 191.023 410.416 203.414 c 0,77,78
 394.305 213.544 394.305 213.544 376.892 221.104 c 0,79,80
 361.775 225.853 361.775 225.853 346 227 c 0,81,82
 330.844 226.143 330.844 226.143 316.119 222.303 c 0,83,84
 299.047 216.366 299.047 216.366 282.896 208.211 c 0,85,86
 256.823 192.735 256.823 192.735 232.735 174.241 c 0,87,88
 203.988 150.019 203.988 150.019 177.299 123.512 c 2,89,-1
 152.235 98 l 1,90,-1
 399 98 l 2,61,62
  Spiro
    399 98 ]
    417.697 100.021 o
    432.5 104 o
    446 111 o
    454.5 122.5 o
    456.5 134 v
    455.5 151.5 o
    443.271 175.339 o
    410.416 203.414 o
    376.892 221.104 o
    346 227 o
    316.119 222.303 o
    282.896 208.211 o
    232.735 174.241 o
    177.299 123.512 [
    152.235 98 v
    0 0 z
  EndSpiro
EndSplineSet
Validated: 33
EndChar

StartChar: tahmedial
Encoding: 65220 65220 131
Width: 637
GlyphClass: 2
Flags: W
AnchorPoint: "ArabicBelow" 311 -109 basechar 0
AnchorPoint: "ArabicAbove" 366 526 basechar 0
LayerCount: 2
Fore
SplineSet
649 15 m 1,0,-1
 -12 15 l 1,1,-1
 -12 98 l 1,2,-1
 103 98 l 2,3,4
 114.93 98.3935 114.93 98.3935 126.454 101.298 c 0,5,6
 136.781 105.324 136.781 105.324 146.192 111.191 c 0,7,8
 156.562 119.163 156.562 119.163 165.609 128.652 c 0,9,10
 174.925 139.359 174.925 139.359 183.465 150.701 c 1,11,-1
 182.936 156.39 l 2,12,13
 178.427 201.607 178.427 201.607 172.38 246.641 c 0,14,15
 164.743 297.72 164.743 297.72 156.411 348.692 c 0,16,17
 148.684 394.073 148.684 394.073 138.314 438.893 c 0,18,19
 130.736 466.496 130.736 466.496 121.384 493.548 c 1,20,-1
 159.681 588.941 l 1,21,22
 172.385 541.27 172.385 541.27 181.477 492.777 c 0,23,24
 190.363 432.407 190.363 432.407 196.045 371.625 c 0,25,26
 200.905 314.092 200.905 314.092 205 256.5 c 0,27,28
 206.56 233.004 206.56 233.004 208 209.5 c 2,29,-1
 210 176.5 l 1,30,-1
 245 215 l 2,31,32
 267.794 240.189 267.794 240.189 291.5 264.5 c 0,33,34
 303.701 276.15 303.701 276.15 317 286.5 c 0,35,36
 333.232 297.323 333.232 297.323 350.913 305.564 c 0,37,38
 367.185 311.618 367.185 311.618 384.35 313 c 0,39,40
 401.913 310.787 401.913 310.787 417.91 302.925 c 0,41,42
 437.485 289.781 437.485 289.781 453.858 272.701 c 0,43,44
 470.424 252.027 470.424 252.027 481.715 228.126 c 0,45,46
 489.581 202.184 489.581 202.184 491 175 c 0,47,48
 490.869 157.527 490.869 157.527 490.288 140.059 c 0,49,50
 489.68 127.55 489.68 127.55 488.151 115.121 c 2,51,-1
 485.705 98 l 1,52,-1
 649 98 l 1,53,-1
 649 15 l 1,0,-1
  Spiro
    649 15 v
    -12 15 v
    -12 98 v
    103 98 ]
    126.454 101.298 o
    146.192 111.191 o
    165.609 128.653 o
    183.465 150.701 v
    182.936 156.39 ]
    172.38 246.64 o
    156.411 348.692 o
    138.314 438.893 o
    121.384 493.548 v
    159.681 588.941 v
    181.477 492.777 o
    196.045 371.625 o
    205 256.5 o
    208 209.5 [
    210 176.5 v
    245 215 ]
    291.5 264.5 o
    317 286.5 o
    350.913 305.564 o
    384.35 313 o
    417.91 302.925 o
    453.858 272.701 o
    481.715 228.126 o
    491 175 o
    490.288 140.059 o
    488.151 115.121 [
    485.705 98 v
    649 98 v
    0 0 z
  EndSpiro
413 98 m 2,54,55
 423.552 98.0613 423.552 98.0613 433.945 99.6125 c 0,56,57
 444.1 102.514 444.1 102.514 453.021 108.123 c 0,58,59
 464.818 119.483 464.818 119.483 470 135 c 0,60,61
 468.917 154.992 468.917 154.992 459.373 172.678 c 0,62,63
 445.284 189.13 445.284 189.13 427.327 201.649 c 0,64,65
 410.224 212.513 410.224 212.513 391.734 220.662 c 0,66,67
 376.434 225.548 376.434 225.548 360.458 227 c 0,68,69
 340.078 226.04 340.078 226.04 320.558 219.894 c 0,70,71
 301.86 211.776 301.86 211.776 284.426 201.128 c 0,72,73
 234.978 165.881 234.978 165.881 191.299 123.512 c 2,74,-1
 166.235 98 l 1,75,-1
 413 98 l 2,54,55
  Spiro
    413 98 ]
    453.021 108.123 o
    470 135 v
    459.373 172.678 o
    427.327 201.649 o
    391.734 220.662 o
    360.458 227 o
    284.426 201.128 o
    191.299 123.512 [
    166.235 98 v
    0 0 z
  EndSpiro
EndSplineSet
Validated: 1
EndChar

StartChar: zahfinal
Encoding: 65222 65222 133
Width: 637
GlyphClass: 2
Flags: W
AnchorPoint: "ArabicBelow" 341 -109 basechar 0
AnchorPoint: "ArabicAbove" 410 594 basechar 0
LayerCount: 2
Fore
SplineSet
442 427 m 1,0,-1
 385 370 l 1,1,-1
 324 432 l 1,2,-1
 381 489 l 1,3,-1
 442 427 l 1,0,-1
EndSplineSet
Refer: 129 65218 S 1 0 0 1 0 0 2
Validated: 1
EndChar

StartChar: zahinitial
Encoding: 65223 65223 134
Width: 637
GlyphClass: 2
Flags: W
AnchorPoint: "ArabicBelow" 239 -96 basechar 0
AnchorPoint: "ArabicAbove" 360 612 basechar 0
LayerCount: 2
Fore
SplineSet
402 437 m 1,0,-1
 345 380 l 1,1,-1
 284 442 l 1,2,-1
 341 499 l 1,3,-1
 402 437 l 1,0,-1
EndSplineSet
Refer: 130 65219 S 1 0 0 1 -0.000427246 0.00038147 2
Validated: 1
EndChar

StartChar: zahmedial
Encoding: 65224 65224 135
Width: 637
GlyphClass: 2
Flags: W
AnchorPoint: "ArabicBelow" 253 -89 basechar 0
AnchorPoint: "ArabicAbove" 394 594 basechar 0
LayerCount: 2
Fore
SplineSet
412 425 m 1,0,-1
 355 368 l 1,1,-1
 294 430 l 1,2,-1
 351 487 l 1,3,-1
 412 425 l 1,0,-1
EndSplineSet
Refer: 131 65220 S 1 0 0 1 0 0 2
Validated: 1
EndChar

StartChar: ainfinal
Encoding: 65226 65226 137
Width: 637
GlyphClass: 2
Flags: W
AnchorPoint: "ArabicBelow" 239 -403 basechar 0
AnchorPoint: "ArabicAbove" 280 471 basechar 0
LayerCount: 2
Fore
SplineSet
285.664 191.226 m 1,0,1
 297.808 195.729 297.808 195.729 309.886 200.408 c 0,2,3
 335.857 210.81 335.857 210.81 361.5 222 c 0,4,5
 378.831 229.825 378.831 229.825 396 238 c 1,6,7
 385.414 241.349 385.414 241.349 375.019 245.257 c 0,8,9
 357.268 252.459 357.268 252.459 339 258 c 0,10,11
 317.439 261.565 317.439 261.565 295.5 262.5 c 0,12,13
 278.528 263.546 278.528 263.546 261.543 264.01 c 0,14,15
 260.521 264.008 260.521 264.008 259.5 264 c 0,16,17
 243.846 263.311 243.846 263.311 228.42 260.564 c 0,18,19
 220.033 258.637 220.033 258.637 211.712 256.434 c 0,20,21
 205.702 254.877 205.702 254.877 199.651 253.488 c 0,22,23
 195.682 252.63 195.682 252.63 191.746 251.643 c 0,24,25
 182.027 248.305 182.027 248.305 174 242 c 1,26,27
 200.811 232.643 200.811 232.643 226.5 220.5 c 0,28,29
 249.585 208.554 249.585 208.554 272.847 196.977 c 0,30,31
 279.223 194.029 279.223 194.029 285.664 191.226 c 1,0,1
  Spiro
    285.664 191.226 v
    309.886 200.408 o
    361.5 222 o
    396 238 v
    375.019 245.257 o
    339 258 o
    295.5 262.5 o
    259.5 264 o
    228.42 260.564 o
    211.712 256.434 o
    199.651 253.488 o
    191.746 251.643 o
    174 242 v
    226.5 220.5 o
    272.847 196.977 o
    0 0 z
  EndSpiro
505.209 -215 m 1,32,33
 465.874 -246.929 465.874 -246.929 424.843 -276.5 c 0,34,35
 404 -289.204 404 -289.204 381 -297 c 0,36,37
 367.958 -299.683 367.958 -299.683 354.647 -300.187 c 0,38,39
 342.659 -299.78 342.659 -299.78 330.815 -297.861 c 0,40,41
 306.294 -291.713 306.294 -291.713 282.703 -282.418 c 0,42,43
 236.41 -263.444 236.41 -263.444 193.163 -238.671 c 0,44,45
 155.264 -209.255 155.264 -209.255 129.291 -169.089 c 0,46,47
 111.434 -125.589 111.434 -125.589 107.994 -78.5655 c 0,48,49
 111.364 -27.7947 111.364 -27.7947 132.625 30.1912 c 0,50,51
 163.194 84.6743 163.194 84.6743 206.499 130.286 c 2,52,-1
 220.541 144.05 l 1,53,-1
 203.559 153.957 l 2,54,55
 181.281 166.193 181.281 166.193 157.465 174.935 c 0,56,57
 133.107 181.706 133.107 181.706 108.17 185.954 c 1,58,-1
 125.868 229.286 l 2,59,60
 131.716 243.598 131.716 243.598 137.977 257.732 c 0,61,62
 144.995 272.374 144.995 272.374 153 286.5 c 1,63,64
 165.219 295.57 165.219 295.57 178.5 303 c 0,65,66
 198.153 312.084 198.153 312.084 219 318 c 0,67,68
 236.848 321.9 236.848 321.9 255 324 c 0,69,70
 270.397 325.183 270.397 325.183 285.84 325.409 c 0,71,72
 301.94 325.164 301.94 325.164 318 324 c 0,73,74
 336.182 322.045 336.182 322.045 354 318 c 0,75,76
 377.555 310.672 377.555 310.672 400.5 301.5 c 0,77,78
 413.605 296.213 413.605 296.213 426 289.5 c 0,79,80
 437.383 281.699 437.383 281.699 446.683 271.527 c 1,81,-1
 446.994 270.53 l 1,82,-1
 447 270 l 2,83,84
 446.641 259.202 446.641 259.202 444.285 248.663 c 0,85,86
 440.229 234.649 440.229 234.649 435.74 220.765 c 0,87,88
 431.333 207.986 431.333 207.986 425.66 195.73 c 0,89,90
 422.228 189.226 422.228 189.226 418.339 182.984 c 1,91,92
 415.057 181.601 415.057 181.601 411.741 180.302 c 0,93,94
 406.378 178.298 406.378 178.298 400.993 176.351 c 0,95,96
 393.954 173.713 393.954 173.713 386.997 170.868 c 0,97,98
 378.777 167.342 378.777 167.342 370.657 163.593 c 2,99,-1
 346.487 152.314 l 1,100,-1
 368.68 137.52 l 2,101,102
 382.652 128.488 382.652 128.488 397.227 120.476 c 0,103,104
 410.723 113.641 410.723 113.641 424.774 108.077 c 0,105,106
 439.578 103.383 439.578 103.383 454.854 100.519 c 0,107,108
 472.849 98.2939 472.849 98.2939 491 98 c 2,109,-1
 643 98 l 1,110,-1
 643 15 l 1,111,-1
 475 15 l 2,112,113
 449.459 16.1672 449.459 16.1672 424.731 22.53 c 0,114,115
 396.74 32.3579 396.74 32.3579 369.957 45.1199 c 0,116,117
 343.813 59.3527 343.813 59.3527 318.731 75.4211 c 0,118,119
 298.091 89.6834 298.091 89.6834 279.105 106.085 c 2,120,-1
 271.016 113.462 l 1,121,-1
 261.523 108.004 l 2,122,123
 241.566 95.9466 241.566 95.9466 222.561 82.4316 c 0,124,125
 201.902 67.3158 201.902 67.3158 182.994 50.1738 c 0,126,127
 163.891 27.5197 163.891 27.5197 153 0 c 0,128,129
 147.813 -22.0453 147.813 -22.0453 146.943 -44.7329 c 0,130,131
 149.508 -83.7758 149.508 -83.7758 160.5 -114 c 0,132,133
 178.934 -146.134 178.934 -146.134 207.703 -169.622 c 0,134,135
 237.395 -186.823 237.395 -186.823 270 -198 c 0,136,137
 329.069 -212.575 329.069 -212.575 390 -215 c 2,138,-1
 505.209 -215 l 1,32,33
  Spiro
    505.209 -215 v
    424.843 -276.5 o
    381 -297 o
    282.703 -282.418 o
    193.163 -238.671 o
    129.291 -169.089 o
    108 -77 o
    132.625 30.1912 o
    206.499 130.286 [
    220.541 144.05 v
    203.559 153.957 ]
    157.465 174.935 o
    108.17 185.954 v
    125.868 229.286 ]
    137.976 257.732 o
    153 286.5 v
    178.5 303 o
    219 318 o
    255 324 o
    318 324 o
    354 318 o
    400.5 301.5 o
    426 289.5 o
    446.683 271.527 v
    446.994 270.53 v
    447 270 ]
    444.285 248.663 o
    435.74 220.765 o
    425.66 195.73 o
    418.339 182.984 v
    411.741 180.302 o
    400.993 176.351 o
    386.997 170.868 o
    370.657 163.593 [
    346.487 152.314 v
    368.68 137.52 ]
    397.227 120.476 o
    424.774 108.077 o
    454.854 100.519 o
    491 98 [
    643 98 v
    643 15 v
    475 15 ]
    424.731 22.53 o
    369.957 45.1199 o
    318.731 75.4211 o
    279.105 106.085 [
    271.016 113.462 v
    261.523 108.004 ]
    222.561 82.4316 o
    182.994 50.1738 o
    153 0 o
    147 -49.5 o
    160.5 -114 o
    207.703 -169.622 o
    270 -198 o
    390 -215 [
    0 0 z
  EndSpiro
423.31 184.201 m 1,139,-1
 417.384 181.423 l 1,140,-1
 417.716 182.292 l 1,141,-1
 418.324 182.968 l 1,142,-1
 423.31 184.201 l 1,139,-1
  Spiro
    423.31 184.201 v
    417.384 181.423 v
    417.716 182.292 v
    418.324 182.968 v
    0 0 z
  EndSpiro
EndSplineSet
Validated: 1
EndChar

StartChar: aininitial
Encoding: 65227 65227 138
Width: 637
GlyphClass: 2
Flags: W
AnchorPoint: "ArabicBelow" 255 -82 basechar 0
AnchorPoint: "ArabicAbove" 235 553 basechar 0
LayerCount: 2
Fore
SplineSet
187.915 138.111 m 2,0,1
 173.552 156.893 173.552 156.893 167.024 168.438 c 0,2,3
 152 195.01 152 195.01 152 222 c 0,4,5
 152 280.293 152 280.293 186.216 328.294 c 0,6,7
 217.369 372 217.369 372 249 372 c 0,8,9
 300.261 372 300.261 372 343.007 333.813 c 0,10,11
 363.048 315.91 363.048 315.91 380.476 290.755 c 1,12,13
 364.312 295.703 364.312 295.703 348.032 298.257 c 0,14,15
 324.168 302 324.168 302 280 302 c 0,16,17
 258.07 302 258.07 302 231.125 282.624 c 128,-1,18
 204.176 263.246 204.176 263.246 181.937 243.123 c 2,19,-1
 170.93 233.164 l 1,20,-1
 180.771 222.055 l 2,21,22
 215.668 182.664 215.668 182.664 248.322 165.332 c 128,-1,23
 280.976 148 280.976 148 318 148 c 0,24,25
 357.726 148 357.726 148 436.449 172.675 c 2,26,-1
 472.98 184.125 l 1,27,-1
 462.283 158.058 l 2,28,29
 447.702 122.525 447.702 122.525 434.534 104.864 c 1,30,-1
 353.958 75.127 l 2,31,32
 332.246 67.1139 332.246 67.1139 281.797 52.3994 c 0,33,34
 236.596 39.2158 236.596 39.2158 180.015 27.6992 c 0,35,36
 117.62 15 117.62 15 80 15 c 2,37,-1
 -9 15 l 5,38,-1
 -9 98 l 5,39,-1
 71 98 l 2,40,41
 105.313 98 105.313 98 132.004 102.71 c 128,-1,42
 158.693 107.42 158.693 107.42 180.743 114.77 c 2,43,-1
 200.683 121.416 l 1,44,-1
 187.915 138.111 l 2,0,1
EndSplineSet
Validated: 1
EndChar

StartChar: ainmedial
Encoding: 65228 65228 139
Width: 637
GlyphClass: 2
Flags: W
AnchorPoint: "ArabicBelow" 312 -102 basechar 0
AnchorPoint: "ArabicAbove" 298 526 basechar 0
LayerCount: 2
Fore
SplineSet
306.191 331.172 m 0,0,1
 412.771 316.842 412.771 316.842 502.27 264.001 c 1,2,3
 498.375 253.125 498.375 253.125 494.5 244 c 2,4,-1
 483.25 217.25 l 2,5,6
 476.875 202.75 476.875 202.75 465.054 178.669 c 1,7,-1
 377.461 155.206 l 1,8,-1
 408.413 137.06 l 2,9,10
 491.278 99.2515 491.278 99.2515 536 98 c 2,11,-1
 646 98 l 1,12,-1
 646 15 l 1,13,-1
 519 15 l 2,14,15
 412.232 47.0714 412.232 47.0714 320.034 118.149 c 2,16,-1
 308.886 128.185 l 1,17,-1
 298.851 117.034 l 2,18,19
 223.753 48.1906 223.753 48.1906 102 15 c 2,20,-1
 -9 15 l 1,21,-1
 -9 98 l 1,22,-1
 84 98 l 2,23,24
 157.555 104.263 157.555 104.263 187.565 119.28 c 2,25,-1
 247.221 149.154 l 1,26,-1
 223.559 162.957 l 2,27,28
 179.736 185.423 179.736 185.423 122.981 195.302 c 1,29,-1
 136 246 l 1,30,-1
 156 290 l 1,31,32
 240.692 325.216 240.692 325.216 306.191 331.172 c 0,0,1
320.843 182.879 m 1,33,34
 369.867 206.13 369.867 206.13 398.639 213.448 c 2,35,-1
 428.532 220.921 l 1,36,-1
 408 234 l 2,37,38
 361.91 256.346 361.91 256.346 305.724 262.296 c 0,39,40
 261.5 259.761 261.5 259.761 188.963 234.507 c 1,41,-1
 251 215 l 2,42,43
 284.216 203.887 284.216 203.887 320.843 182.879 c 1,33,34
  Spiro
    320.843 182.879 v
    357.204 200.31 o
    398.639 213.448 [
    428.532 220.921 v
    408 234 ]
    380 248 o
    359.282 254.599 o
    331.468 260.4 o
    296 262 o
    260 257 o
    231 251 o
    188.963 234.507 v
    251 215 o
    286 202 o
    0 0 z
  EndSpiro
EndSplineSet
Validated: 1
EndChar

StartChar: ghainfinal
Encoding: 65230 65230 141
Width: 637
GlyphClass: 2
Flags: W
AnchorPoint: "ArabicBelow" 184 -396 basechar 0
AnchorPoint: "ArabicAbove" 225 622 basechar 0
LayerCount: 2
Fore
SplineSet
287 485 m 5,0,-1
 229 427 l 5,1,-1
 168 489 l 5,2,-1
 225 546 l 5,3,-1
 287 485 l 5,0,-1
EndSplineSet
Refer: 137 65226 S 1 0 0 1 6.10352e-05 -0.000411987 2
Validated: 1
EndChar

StartChar: ghaininitial
Encoding: 65231 65231 142
Width: 637
GlyphClass: 2
Flags: W
AnchorPoint: "ArabicBelow" 239 -82 basechar 0
AnchorPoint: "ArabicAbove" 150 670 basechar 0
LayerCount: 2
Fore
SplineSet
215 523 m 5,0,-1
 158 466 l 5,1,-1
 97 528 l 5,2,-1
 154 585 l 5,3,-1
 215 523 l 5,0,-1
EndSplineSet
Refer: 138 65227 S 1 0 0 1 4.57764e-05 0.000335693 2
Validated: 1
EndChar

StartChar: ghainmedial
Encoding: 65232 65232 143
Width: 637
GlyphClass: 2
Flags: W
AnchorPoint: "ArabicBelow" 225 -75 basechar 0
AnchorPoint: "ArabicAbove" 218 617 basechar 0
LayerCount: 2
Fore
SplineSet
276 471 m 5,0,-1
 220 414 l 5,1,-1
 158 476 l 5,2,-1
 215 532 l 5,3,-1
 276 471 l 5,0,-1
EndSplineSet
Refer: 139 65228 S 1 0 0 1 0 0 2
Validated: 1
EndChar

StartChar: fehfinal
Encoding: 65234 65234 145
Width: 637
GlyphClass: 2
Flags: W
AnchorPoint: "ArabicBelow" 314.5 -98.5 basechar 0
AnchorPoint: "ArabicAbove" 321 671.5 basechar 0
LayerCount: 2
Fore
SplineSet
462.405 125.93 m 0,0,1
 500.942 128.62 500.942 128.62 543.048 152.312 c 1,2,-1
 554.369 162.081 l 1,3,4
 539.081 222.092 539.081 222.092 505.653 263.918 c 0,5,6
 479.855 291.035 479.855 291.035 460.112 297.748 c 0,7,8
 451.477 300.687 451.477 300.687 442.198 300.833 c 128,-1,9
 433.072 300.839 433.072 300.839 424.255 296.281 c 0,10,11
 406.225 286.965 406.225 286.965 392.809 267.483 c 0,12,13
 368.902 232.769 368.902 232.769 355.74 171.945 c 1,14,-1
 365.366 162.562 l 1,15,16
 432.096 125.93 432.096 125.93 462.405 125.93 c 0,0,1
386 545 m 1,17,-1
 329 488 l 1,18,-1
 267 549 l 1,19,-1
 324 606 l 1,20,-1
 386 545 l 1,17,-1
122.226 15 m 2,21,22
 65.0107 15 65.0107 15 38.002 39.1787 c 0,23,24
 8 66.0361 8 66.0361 8 126 c 0,25,26
 8 158.859 8 158.859 32.0977 213.874 c 0,27,28
 43.999 241.045 43.999 241.045 55.54 260.19 c 1,29,30
 37.002 216.023 37.002 216.023 37 187 c 0,31,32
 37 146.248 37 146.248 58.5146 125.273 c 0,33,34
 86.2217 98.0811 86.2217 98.0811 151.844 98.0811 c 2,35,-1
 334.258 98.0811 l 1,36,-1
 334.258 146.156 l 2,37,38
 334.258 231.864 334.258 231.864 364.294 308.396 c 0,39,40
 397.791 393.748 397.791 393.748 445.215 393.747 c 0,41,42
 476.547 393.747 476.547 393.747 507.165 355.607 c 128,-1,43
 537.723 317.541 537.723 317.541 561.967 252.483 c 0,44,45
 591.591 172.989 591.591 172.989 594.095 142.399 c 2,46,-1
 597.722 98.0811 l 1,47,-1
 647 98.0811 l 1,48,-1
 647 15 l 1,49,-1
 607.744 15 l 2,50,51
 576.195 15 576.195 15 537.435 23.1426 c 128,-1,52
 498.642 31.2901 498.642 31.2901 472.889 42.3232 c 2,53,-1
 462.405 46.8145 l 1,54,-1
 451.922 42.3232 l 2,55,56
 429.909 32.8925 429.909 32.8925 373.188 23.9453 c 128,-1,57
 316.489 15 316.489 15 273.309 15 c 2,58,-1
 122.226 15 l 2,21,22
EndSplineSet
Validated: 33
EndChar

StartChar: fehinitial
Encoding: 65235 65235 146
Width: 637
GlyphClass: 2
Flags: W
AnchorPoint: "ArabicBelow" 248 -102 basechar 0
AnchorPoint: "ArabicAbove" 124.5 684.5 basechar 0
LayerCount: 2
Fore
SplineSet
323.506 98.2402 m 1,0,-1
 236.025 135.063 l 2,1,2
 194.562 152.517 194.562 152.517 188.655 171.437 c 0,3,4
 188.288 172.616 188.288 172.616 188.36 173.16 c 2,5,-1
 200.568 264.979 l 1,6,-1
 202.603 277.41 l 2,7,8
 214.872 352.395 214.872 352.395 236.351 398.669 c 0,9,10
 260.529 450.76 260.529 450.76 289.92 450.761 c 0,11,12
 333.191 450.761 333.191 450.761 379.336 363.687 c 0,13,14
 432.72 262.949 432.72 262.949 432.72 133.88 c 2,15,-1
 432.72 49.3604 l 2,16,17
 432.72 30.1372 432.72 30.1372 424.164 22.748 c 128,-1,18
 415.644 15.3883 415.644 15.3883 385.12 15.3604 c 2,19,-1
 -8 15 l 1,20,-1
 -8 98 l 1,21,-1
 323.506 98.2402 l 1,0,-1
222.872 243.689 m 1,22,-1
 226.573 239.576 l 1,23,-1
 396.189 169.989 l 1,24,25
 377.101 262.251 377.101 262.251 328 307 c 0,26,27
 300.606 331.966 300.606 331.966 273.6 333.8 c 0,28,29
 234.336 336.467 234.336 336.467 222.872 243.689 c 1,22,-1
189 550 m 1,30,-1
 132 493 l 1,31,-1
 70 554 l 1,32,-1
 127 611 l 1,33,-1
 189 550 l 1,30,-1
EndSplineSet
Validated: 33
EndChar

StartChar: fehmedial
Encoding: 65236 65236 147
Width: 637
GlyphClass: 2
Flags: W
AnchorPoint: "ArabicBelow" 326 -99 basechar 0
AnchorPoint: "ArabicAbove" 152.5 704 basechar 0
LayerCount: 2
Fore
SplineSet
196.258 146.156 m 2,0,1
 196.258 231.864 196.258 231.864 226.294 308.396 c 0,2,3
 259.791 393.748 259.791 393.748 307.215 393.747 c 0,4,5
 338.547 393.747 338.547 393.747 369.165 355.607 c 128,-1,6
 399.723 317.541 399.723 317.541 423.967 252.483 c 0,7,8
 453.591 172.99 453.591 172.99 456.095 142.399 c 2,9,-1
 459.722 98.0811 l 1,10,-1
 644 98.0811 l 1,11,-1
 644 15 l 1,12,-1
 469.744 15 l 2,13,14
 438.195 15 438.195 15 399.435 23.1426 c 128,-1,15
 360.642 31.2901 360.642 31.2901 334.889 42.3232 c 2,16,-1
 324.405 46.8145 l 1,17,-1
 313.922 42.3232 l 2,18,19
 291.909 32.8927 291.909 32.8927 235.188 23.9453 c 128,-1,20
 178.489 15 178.489 15 135.309 15 c 2,21,-1
 -9 15 l 1,22,-1
 -9 98.0811 l 1,23,-1
 196.258 98.0811 l 1,24,-1
 196.258 146.156 l 2,0,1
324.405 125.93 m 0,25,26
 362.942 128.62 362.942 128.62 405.048 152.312 c 1,27,-1
 416.369 162.081 l 1,28,29
 401.081 222.092 401.081 222.092 367.653 263.918 c 0,30,31
 341.855 291.035 341.855 291.035 322.112 297.748 c 0,32,33
 313.477 300.687 313.477 300.687 304.198 300.833 c 128,-1,34
 295.072 300.839 295.072 300.839 286.255 296.281 c 0,35,36
 268.225 286.965 268.225 286.965 254.809 267.483 c 0,37,38
 230.902 232.769 230.902 232.769 217.74 171.945 c 1,39,-1
 227.366 162.562 l 1,40,41
 294.096 125.93 294.096 125.93 324.405 125.93 c 0,25,26
216 536 m 1,42,-1
 159 479 l 1,43,-1
 97 540 l 1,44,-1
 154 597 l 1,45,-1
 216 536 l 1,42,-1
EndSplineSet
EndChar

StartChar: qaffinal
Encoding: 65238 65238 149
Width: 637
GlyphClass: 2
Flags: W
AnchorPoint: "ArabicBelow" 293 -301 basechar 0
AnchorPoint: "ArabicAbove" 289 551 basechar 0
LayerCount: 2
Fore
SplineSet
506 14 m 17,0,1
 508.473 -15.0532 508.473 -15.0532 506.61 -43 c 0,2,3
 502.916 -98.4192 502.916 -98.4192 456.518 -138.316 c 0,4,5
 406.424 -181.387 406.424 -181.387 337.251 -206.193 c 128,-1,6
 268.078 -231 268.078 -231 221.61 -231 c 0,7,8
 64.9756 -231 64.9756 -231 67.6104 -74 c 0,9,10
 68.7217 -7.80176 68.7217 -7.80176 85.3926 37.2793 c 1,11,12
 92.1367 37.2588 92.1367 37.2588 95.3838 37.168 c 1,13,14
 89.6104 5.04102 89.6104 5.04102 89.6104 -16 c 0,15,16
 89.6104 -90.9502 89.6104 -90.9502 137.329 -122.507 c 0,17,18
 176.575 -148.459 176.575 -148.459 249.081 -147 c 0,19,20
 272.841 -146.522 272.841 -146.522 313.112 -138.349 c 0,21,22
 345.164 -131.845 345.164 -131.845 379.573 -119.541 c 128,-1,23
 413.982 -107.237 413.982 -107.237 440.562 -85.2705 c 128,-1,24
 467.141 -63.3037 467.141 -63.3037 478.278 -34.667 c 1,25,26
 483.999 -7.8072 483.999 -7.8072 459.486 9.42188 c 0,27,28
 448.675 17.0206 448.675 17.0206 399.646 16.2607 c 0,29,30
 349.04 15.4764 349.04 15.4764 312.629 15 c 0,31,32
 291.657 14.7256 291.657 14.7256 283.814 20.7617 c 128,-1,33
 275.973 26.7979 275.973 26.7979 271.639 39.0078 c 0,34,35
 260.032 71.6973 260.032 71.6973 259.998 114.601 c 128,-1,36
 259.964 157.504 259.964 157.504 269.936 195.297 c 128,-1,37
 279.907 233.09 279.907 233.09 302.392 258.926 c 128,-1,38
 324.877 284.763 324.877 284.763 354.61 284 c 0,39,40
 425.074 282.193 425.074 282.193 482.366 132.298 c 0,41,42
 488.548 116.283 488.548 116.283 492 98 c 9,43,-1
 643 98 l 17,44,-1
 643 14 l 9,45,-1
 506 14 l 17,0,1
268.61 411 m 1,46,-1
 211.61 354 l 1,47,-1
 150.61 416 l 1,48,-1
 207.61 473 l 1,49,-1
 268.61 411 l 1,46,-1
452.61 413 m 1,50,-1
 395.61 356 l 1,51,-1
 333.61 417 l 1,52,-1
 390.61 475 l 1,53,-1
 452.61 413 l 1,50,-1
300.61 97 m 2,54,-1
 326.61 97 l 1,55,-1
 451.64 97 l 1,56,57
 441.771 132.646 441.771 132.646 419.626 164.518 c 128,-1,58
 397.479 196.39 397.479 196.39 366.61 197 c 0,59,60
 334.921 197.627 334.921 197.627 316.796 171.566 c 128,-1,61
 298.672 145.506 298.672 145.506 292.275 108.334 c 0,62,63
 290.492 96.6621 290.492 96.6621 300.61 97 c 2,54,-1
EndSplineSet
Validated: 33
EndChar

StartChar: qafinitial
Encoding: 65239 65239 150
Width: 637
GlyphClass: 2
Flags: W
AnchorPoint: "ArabicBelow" 345 -96 basechar 0
AnchorPoint: "ArabicAbove" 278 712 basechar 0
LayerCount: 2
Fore
SplineSet
323.506 98.2402 m 1,0,-1
 236.025 135.063 l 2,1,2
 194.562 152.517 194.562 152.517 188.655 171.437 c 0,3,4
 188.288 172.616 188.288 172.616 188.36 173.16 c 2,5,-1
 200.568 264.979 l 1,6,-1
 202.603 277.41 l 2,7,8
 214.872 352.395 214.872 352.395 236.351 398.669 c 0,9,10
 260.529 450.76 260.529 450.76 289.92 450.761 c 0,11,12
 333.191 450.761 333.191 450.761 379.336 363.687 c 0,13,14
 432.72 262.949 432.72 262.949 432.72 133.88 c 2,15,-1
 432.72 49.3604 l 2,16,17
 432.72 30.1372 432.72 30.1372 424.164 22.748 c 128,-1,18
 415.644 15.3883 415.644 15.3883 385.12 15.3604 c 2,19,-1
 -8 15 l 1,20,-1
 -8 98 l 1,21,-1
 323.506 98.2402 l 1,0,-1
222.872 243.689 m 1,22,-1
 226.573 239.576 l 1,23,-1
 396.189 169.989 l 1,24,25
 377.101 262.251 377.101 262.251 328 307 c 0,26,27
 300.606 331.966 300.606 331.966 273.6 333.8 c 0,28,29
 234.336 336.467 234.336 336.467 222.872 243.689 c 1,22,-1
249 574 m 1,30,-1
 192 517 l 1,31,-1
 131 579 l 1,32,-1
 188 636 l 1,33,-1
 249 574 l 1,30,-1
433 576 m 1,34,-1
 376 519 l 1,35,-1
 314 580 l 1,36,-1
 371 638 l 1,37,-1
 433 576 l 1,34,-1
EndSplineSet
Validated: 33
EndChar

StartChar: qafmedial
Encoding: 65240 65240 151
Width: 637
GlyphClass: 2
Flags: W
AnchorPoint: "ArabicBelow" 308 -96 basechar 0
AnchorPoint: "ArabicAbove" 307 748 basechar 0
LayerCount: 2
Fore
SplineSet
196.258 146.156 m 2,0,1
 196.258 231.864 196.258 231.864 226.294 308.396 c 0,2,3
 259.791 393.748 259.791 393.748 307.215 393.747 c 0,4,5
 338.547 393.747 338.547 393.747 369.165 355.607 c 128,-1,6
 399.723 317.541 399.723 317.541 423.967 252.483 c 0,7,8
 453.591 172.99 453.591 172.99 456.095 142.399 c 2,9,-1
 459.722 98.0811 l 1,10,-1
 644 98.0811 l 1,11,-1
 644 15 l 1,12,-1
 469.744 15 l 2,13,14
 438.195 15 438.195 15 399.435 23.1426 c 128,-1,15
 360.642 31.2901 360.642 31.2901 334.889 42.3232 c 2,16,-1
 324.405 46.8145 l 1,17,-1
 313.922 42.3232 l 2,18,19
 291.909 32.8927 291.909 32.8927 235.188 23.9453 c 128,-1,20
 178.489 15 178.489 15 135.309 15 c 2,21,-1
 -9 15 l 1,22,-1
 -9 98.0811 l 1,23,-1
 196.258 98.0811 l 1,24,-1
 196.258 146.156 l 2,0,1
324.405 125.93 m 0,25,26
 362.942 128.62 362.942 128.62 405.048 152.312 c 1,27,-1
 416.369 162.081 l 1,28,29
 401.081 222.092 401.081 222.092 367.653 263.918 c 0,30,31
 341.855 291.035 341.855 291.035 322.112 297.748 c 0,32,33
 313.477 300.687 313.477 300.687 304.198 300.833 c 128,-1,34
 295.072 300.839 295.072 300.839 286.255 296.281 c 0,35,36
 268.225 286.965 268.225 286.965 254.809 267.483 c 0,37,38
 230.902 232.769 230.902 232.769 217.74 171.945 c 1,39,-1
 227.366 162.562 l 1,40,41
 294.096 125.93 294.096 125.93 324.405 125.93 c 0,25,26
270 573 m 1,42,-1
 213 516 l 1,43,-1
 152 578 l 1,44,-1
 209 635 l 1,45,-1
 270 573 l 1,42,-1
454 575 m 1,46,-1
 397 518 l 1,47,-1
 335 579 l 1,48,-1
 392 637 l 1,49,-1
 454 575 l 1,46,-1
EndSplineSet
Validated: 33
EndChar

StartChar: arabickaffinal
Encoding: 65242 65242 153
Width: 637
GlyphClass: 2
Flags: W
AnchorPoint: "ArabicBelow" 269 -130 basechar 0
AnchorPoint: "ArabicAbove" 276 573 basechar 0
LayerCount: 2
Fore
SplineSet
280 340 m 2,0,-1
 310 341 l 2,1,2
 326 341 326 341 334.5 337.5 c 128,-1,3
 343 334 343 334 343 323 c 0,4,5
 343 288 343 288 329 261 c 0,6,7
 309 221 309 221 269 221 c 2,8,-1
 196 221 l 1,9,10
 235 240 235 240 244 245 c 0,11,12
 286 268 286 268 300 287 c 1,13,-1
 273 284 l 2,14,15
 252 284 252 284 239 296 c 128,-1,16
 226 308 226 308 226 323 c 128,-1,17
 226 338 226 338 228.5 347.5 c 128,-1,18
 231 357 231 357 244 380 c 128,-1,19
 257 403 257 403 286 427.5 c 128,-1,20
 315 452 315 452 340 452 c 1,21,-1
 326 391 l 1,22,23
 256 373.5 256 373.5 256 353 c 0,24,25
 256 340 256 340 280 340 c 2,0,-1
536 177.792 m 1,26,27
 550.89 142.653 550.89 142.653 587.724 116.476 c 0,28,-1
 621.138 98 l 1,29,-1
 643 98 l 1,30,-1
 643 14.9834 l 1,31,-1
 619.492 14.9385 l 1,32,33
 614.254 16.3594 614.254 16.3594 596.525 25.0172 c 128,-1,34
 578.8 33.6734 578.8 33.6734 565.524 49.6025 c 2,35,-1
 539 81.4297 l 1,36,-1
 539 15 l 1,37,-1
 112 15 l 2,38,39
 76.9375 15 76.9375 15 51.9688 35.707 c 128,-1,40
 27 56.4141 27 56.4141 27 108.54 c 0,41,42
 27 183.703 27 183.703 57.6684 245.885 c 1,43,44
 31.6544 162.116 31.6544 162.116 70.3887 123.402 c 0,45,46
 95.8043 98 95.8043 98 145 98 c 2,47,-1
 508.822 98 l 1,48,-1
 506.902 114.713 l 2,49,50
 496.689 203.623 496.689 203.623 472.938 323.845 c 128,-1,51
 449.203 443.987 449.203 443.987 427.603 498.998 c 1,52,-1
 475.022 584.354 l 1,53,54
 492.578 536.74 492.578 536.74 514.289 413.713 c 128,-1,55
 536 290.686 536 290.686 536 181 c 2,56,-1
 536 177.792 l 1,26,27
EndSplineSet
Validated: 33
EndChar

StartChar: kafinitial
Encoding: 65243 65243 154
Width: 637
GlyphClass: 2
Flags: W
AnchorPoint: "ArabicBelow" 324 -96 basechar 0
AnchorPoint: "ArabicAbove" 283 703 basechar 0
LayerCount: 2
Fore
SplineSet
186.842 346.597 m 2,0,1
 221.228 336.594 221.228 336.594 227.6 334.061 c 0,2,3
 252.194 324.283 252.194 324.283 272.27 312.185 c 0,4,5
 360.711 258.882 360.711 258.882 397.26 200.084 c 0,6,7
 429.891 147.589 429.891 147.589 429.891 84 c 0,8,9
 429.891 58.3887 429.891 58.3887 422.603 40.7197 c 0,10,11
 411.993 15 411.993 15 396.766 15 c 2,12,-1
 -7.71875 15 l 1,13,-1
 -7.71875 98 l 1,14,-1
 408.957 98 l 1,15,-1
 398.162 119.686 l 2,16,17
 382.526 151.093 382.526 151.093 348.789 182.77 c 128,-1,18
 315.051 214.446 315.051 214.446 272.755 237.196 c 0,19,20
 248.183 250.413 248.183 250.413 228.319 255.207 c 128,-1,21
 208.456 260 208.456 260 189.828 260 c 0,22,23
 166.903 260 166.903 260 151.829 253.948 c 0,24,25
 146.373 251.758 146.373 251.758 136.875 249.139 c 1,26,27
 128.857 257.257 128.857 257.257 115.974 287.166 c 128,-1,28
 103.09 317.074 103.09 317.074 101.547 333.382 c 1,29,30
 128.729 380.908 128.729 380.908 191.456 452.082 c 0,31,32
 260.9 530.877 260.9 530.877 344.716 597.239 c 0,33,34
 429.175 664.109 429.175 664.109 499.672 696.29 c 1,35,-1
 499.672 606.76 l 1,36,37
 441.869 586.354 441.869 586.354 374.316 543.682 c 0,38,39
 315.106 506.278 315.106 506.278 260.31 456.063 c 0,40,41
 215.511 415.009 215.511 415.009 179.38 370.447 c 2,42,-1
 165.156 352.906 l 1,43,-1
 186.842 346.597 l 2,0,1
EndSplineSet
Validated: 1
EndChar

StartChar: kafmedial
Encoding: 65244 65244 155
Width: 637
GlyphClass: 2
Flags: W
AnchorPoint: "ArabicBelow" 275 -157 basechar 0
AnchorPoint: "ArabicAbove" 248 737 basechar 0
LayerCount: 2
Fore
SplineSet
341.148 135.769 m 5,0,-1
 341.148 78.4062 l 6,1,2
 341.148 45.5566 341.148 45.5566 334.339 32.0752 c 132,-1,3
 327.529 18.5938 327.529 18.5938 313.945 18.5938 c 6,4,-1
 -8.75781 18.5938 l 5,5,-1
 -8.75781 99.8281 l 5,6,-1
 318.139 99.8281 l 5,7,-1
 313.704 118.324 l 6,8,9
 305.851 151.078 305.851 151.078 282.289 180.34 c 4,10,11
 256.279 212.643 256.279 212.643 217.188 233.402 c 4,12,13
 191.399 247.097 191.399 247.097 170.943 252.447 c 132,-1,14
 150.486 257.797 150.486 257.797 133.727 257.797 c 4,15,16
 117.667 257.797 117.667 257.797 110.929 255.562 c 6,17,-1
 92.3154 249.391 l 5,18,19
 84.5391 257.648 84.5391 257.648 72.8613 286.804 c 132,-1,20
 61.1836 315.96 61.1836 315.96 59.8994 332.03 c 5,21,22
 86.2969 383.096 86.2969 383.096 140.716 448.807 c 4,23,24
 204.046 525.278 204.046 525.278 281.506 591.69 c 4,25,26
 356.294 655.811 356.294 655.811 426.695 688.518 c 5,27,-1
 426.695 596.572 l 5,28,29
 373.858 575.042 373.858 575.042 307.884 530.888 c 4,30,31
 247.854 490.711 247.854 490.711 201.007 446.654 c 4,32,33
 163.647 411.521 163.647 411.521 127.898 368.547 c 6,34,-1
 114.335 352.242 l 5,35,-1
 134.227 344.885 l 6,36,37
 166.896 332.801 166.896 332.801 189.106 322.66 c 4,38,39
 218.396 309.286 218.396 309.286 222.062 306.217 c 4,40,41
 233.188 296.905 233.188 296.905 303.659 242.72 c 4,42,43
 382.262 182.281 382.262 182.281 434.884 149.359 c 4,44,45
 514.054 99.8281 514.054 99.8281 553.477 99.8281 c 6,46,-1
 645.633 99.8281 l 5,47,-1
 645.633 18.5938 l 5,48,-1
 543.211 18.5938 l 6,49,50
 512.34 18.5938 512.34 18.5938 458.346 50.0371 c 4,51,52
 413.824 75.9653 413.824 75.9653 365.679 115.583 c 6,53,-1
 341.148 135.769 l 5,0,-1
EndSplineSet
Validated: 1
EndChar

StartChar: lamfinal
Encoding: 65246 65246 157
Width: 637
GlyphClass: 2
Flags: W
AnchorPoint: "ArabicBelow" 197 -299 basechar 0
AnchorPoint: "ArabicAbove" 372 696 basechar 0
LayerCount: 2
Fore
SplineSet
465 129 m 1,0,1
 473.688 115.623 473.688 115.623 486.871 106.6 c 0,2,3
 498.127 101.48 498.127 101.48 510.318 99.1747 c 0,4,5
 522.619 98.0127 522.619 98.0127 535 98 c 2,6,-1
 645 98 l 1,7,-1
 645 15 l 1,8,-1
 523 15 l 2,9,10
 517.628 15.1061 517.628 15.1061 512.337 15.9658 c 0,11,12
 507.136 17.2752 507.136 17.2752 501.977 18.7558 c 0,13,14
 495.281 20.3462 495.281 20.3462 488.73 22.3852 c 0,15,16
 485.563 23.7272 485.563 23.7272 482.656 25.561 c 0,17,18
 479.934 27.652 479.934 27.652 477.441 30.0234 c 2,19,-1
 465 42 l 1,20,-1
 469.5 -24 l 1,21,22
 467.391 -36.2218 467.391 -36.2218 463.5 -48 c 0,23,24
 452.065 -72.5159 452.065 -72.5159 435.356 -93.9755 c 0,25,26
 408.243 -124.07 408.243 -124.07 376.388 -149.033 c 0,27,28
 336.495 -173.406 336.495 -173.406 291.979 -188.008 c 0,29,30
 244.564 -199.035 244.564 -199.035 196 -201 c 0,31,32
 169.232 -199.586 169.232 -199.586 143.519 -192.406 c 0,33,34
 121.22 -182.549 121.22 -182.549 102.815 -166.625 c 0,35,36
 86.5442 -146.934 86.5442 -146.934 76.7038 -123.282 c 0,37,38
 68.9603 -93.1938 68.9603 -93.1938 68 -62 c 0,39,40
 68.8551 -36.6404 68.8551 -36.6404 72.2535 -11.4858 c 0,41,42
 77.2966 16.0938 77.2966 16.0938 85.0142 43.0485 c 1,43,44
 84.0943 35.4551 84.0943 35.4551 83.5035 27.8291 c 0,45,46
 83.0891 20.42 83.0891 20.42 83 13 c 0,47,48
 84.1011 -14.2323 84.1011 -14.2323 91.0448 -40.5002 c 0,49,50
 101.713 -65.6222 101.713 -65.6222 119.75 -85.9995 c 0,51,52
 143.204 -103.992 143.204 -103.992 171.375 -113.424 c 0,53,54
 200.378 -118.979 200.378 -118.979 230 -119 c 0,55,56
 256.037 -117.42 256.037 -117.42 281.665 -112.586 c 0,57,58
 311.733 -104.611 311.733 -104.611 340.772 -93.3452 c 0,59,60
 370.066 -80.9029 370.066 -80.9029 397.625 -65.0896 c 0,61,62
 418.596 -50.6427 418.596 -50.6427 437 -33.0547 c 1,63,-1
 437 -27 l 2,64,65
 434.704 45.1795 434.704 45.1795 423.917 116.604 c 0,66,67
 405.23 222.551 405.23 222.551 384.668 328.136 c 0,68,69
 376.844 364.777 376.844 364.777 368.179 401.228 c 0,70,71
 360.309 433.026 360.309 433.026 351.929 464.692 c 1,72,-1
 392.13 551.333 l 1,73,74
 401.74 514.341 401.74 514.341 410.182 477.064 c 0,75,76
 420.967 424.393 420.967 424.393 429.323 371.278 c 0,77,78
 436.532 319.87 436.532 319.87 444 268.5 c 0,79,80
 450.104 229.516 450.104 229.516 456 190.5 c 2,81,-1
 465 129 l 1,0,1
  Spiro
    465 129 v
    486.871 106.6 o
    535 98 [
    645 98 v
    645 15 v
    523 15 ]
    501.977 18.7558 o
    477.441 30.0234 [
    465 42 v
    469.5 -24 v
    463.5 -48 o
    435.356 -93.9755 o
    376.388 -149.033 o
    291.98 -188.008 o
    196 -201 o
    143.519 -192.406 o
    102.815 -166.625 o
    76.7038 -123.282 o
    68 -62 o
    72.2535 -11.4858 o
    85.0142 43.0485 v
    83.5035 27.8291 o
    83 13 o
    119.75 -85.9995 o
    230 -119 o
    281.665 -112.586 o
    340.772 -93.3452 o
    397.625 -65.0896 o
    437 -33.0547 v
    437 -27 ]
    423.917 116.604 o
    384.668 328.136 o
    368.179 401.228 o
    351.929 464.692 v
    392.13 551.333 v
    410.182 477.064 o
    429.323 371.278 o
    444 268.5 o
    456 190.5 [
    0 0 z
  EndSpiro
EndSplineSet
Validated: 1
EndChar

StartChar: laminitial
Encoding: 65247 65247 158
Width: 637
GlyphClass: 2
Flags: W
AnchorPoint: "ArabicBelow" 350 -123 basechar 0
AnchorPoint: "ArabicAbove" 323 717 basechar 0
LayerCount: 2
Fore
SplineSet
388 15 m 1,0,-1
 -9 15 l 5,1,-1
 -9 98 l 5,2,-1
 363 98 l 1,3,-1
 363 113 l 2,4,5
 363 165.755 363 165.755 347.775 252.588 c 0,6,7
 335.847 320.625 335.847 320.625 318.598 393.451 c 0,8,9
 304.418 453.319 304.418 453.319 294.284 482.932 c 1,10,-1
 334.431 561.887 l 1,11,12
 343.087 530.944 343.087 530.944 350.373 498.68 c 0,13,14
 366.032 429.333 366.032 429.333 376.117 349.133 c 0,15,16
 388 254.635 388 254.635 388 177 c 2,17,-1
 388 15 l 1,0,-1
EndSplineSet
Validated: 1
EndChar

StartChar: lammedial
Encoding: 65248 65248 159
Width: 637
GlyphClass: 2
Flags: W
AnchorPoint: "ArabicBelow" 319 -137 basechar 0
AnchorPoint: "ArabicAbove" 264 717 basechar 0
LayerCount: 2
Fore
SplineSet
323.728 179.384 m 2,0,1
 336.787 138.971 336.787 138.971 382.153 115.654 c 0,2,3
 416.501 98 416.501 98 447 98 c 2,4,-1
 644 98 l 1,5,-1
 644 15 l 1,6,-1
 421 15 l 2,7,8
 402.485 15 402.485 15 383.64 28.2617 c 0,9,10
 371.188 37.0245 371.188 37.0245 348.606 59.6064 c 2,11,-1
 323 85.2139 l 1,12,-1
 323 15 l 1,13,-1
 -6 15 l 1,14,-1
 -6 98 l 1,15,-1
 297 98 l 1,16,-1
 297 113 l 2,17,18
 297 168.331 297 168.331 282.79 252.499 c 0,19,20
 271.073 321.901 271.073 321.901 253.571 393.561 c 0,21,22
 240.082 448.789 240.082 448.789 229.189 482.746 c 1,23,-1
 269.514 562.051 l 1,24,25
 278.369 530.884 278.369 530.884 285.368 499.698 c 0,26,27
 300.981 430.132 300.981 430.132 311.132 354.017 c 0,28,29
 323 264.972 323 264.972 323 184 c 2,30,-1
 323 182.423 l 1,31,-1
 323.242 180.886 l 1,32,-1
 323.728 179.384 l 2,0,1
EndSplineSet
Validated: 1
EndChar

StartChar: meemfinal
Encoding: 65250 65250 161
Width: 637
GlyphClass: 2
Flags: W
AnchorPoint: "ArabicBelow" 349 -130 basechar 0
AnchorPoint: "ArabicAbove" 315 437 basechar 0
LayerCount: 2
Fore
SplineSet
645 15 m 5,0,-1
 487 15 l 2,1,2
 473.657 15 473.657 15 462.929 20.563 c 128,-1,3
 452.199 26.1273 452.199 26.1273 439.966 39.2344 c 2,4,-1
 420.426 60.1709 l 1,5,-1
 414.343 32.1865 l 2,6,7
 410.433 14.1994 410.433 14.1994 399.739 5.79883 c 0,8,9
 391.085 -0.999918 391.085 -0.999918 379 -1 c 0,10,11
 341.885 -1 341.885 -1 299.479 33.625 c 0,12,13
 249 74.8428 249 74.8428 249 134 c 2,14,-1
 249 170.748 l 1,15,-1
 228.092 161.787 l 2,16,17
 209.379 153.767 209.379 153.767 204.735 151.114 c 0,18,19
 176.514 134.993 176.514 134.993 155.851 112.034 c 2,20,-1
 148.895 104.306 l 1,21,-1
 153.691 95.0801 l 2,22,23
 164.873 73.576 164.873 73.576 180.781 26.2227 c 0,24,25
 198.349 -26.0713 198.349 -26.0713 208.268 -77.8184 c 0,26,27
 221 -144.246 221 -144.246 221 -204 c 0,28,29
 221 -223.852 221 -223.852 210.129 -251.102 c 1,30,31
 208.972 -236.403 208.972 -236.403 206.936 -214.61 c 0,32,33
 199.999 -140.399 199.999 -140.399 178.311 -71.5049 c 0,34,35
 164.29 -26.9688 164.29 -26.9688 141.311 24.7344 c 128,-1,36
 118.332 76.4375 118.332 76.4375 114.013 94.5977 c 1,37,38
 114.692 137.296 114.692 137.296 152.154 178.971 c 0,39,40
 188.539 219.446 188.539 219.446 241.409 244.438 c 0,41,42
 291.252 268 291.252 268 329 268 c 0,43,44
 361.369 268 361.369 268 377.533 234.396 c 2,45,-1
 415.533 155.396 l 2,46,47
 427.825 129.841 427.825 129.841 449.008 113.996 c 0,48,49
 470.393 98 470.393 98 497 98 c 2,50,-1
 645 98 l 5,51,-1
 645 15 l 5,0,-1
372.628 83.6548 m 0,52,53
 376.911 85.9031 376.911 85.9031 383.231 93.0684 c 2,54,-1
 383.582 93.4658 l 2,55,56
 386.776 97.0869 386.776 97.0869 394.201 110.877 c 2,57,-1
 398.339 118.562 l 1,58,-1
 393.72 125.95 l 2,59,60
 377.805 151.408 377.805 151.408 356.606 172.606 c 0,61,62
 339.999 189.215 339.999 189.215 327.845 193.952 c 0,63,64
 322.921 195.87 322.921 195.87 317.075 196.168 c 0,65,66
 315.008 196.181 315.008 196.181 312.483 195.784 c 0,67,68
 296.045 193.202 296.045 193.202 284.908 185.039 c 0,69,70
 274.846 177.664 274.846 177.664 268.663 166.332 c 2,71,-1
 262.662 155.334 l 1,72,-1
 266.997 145.335 l 2,73,74
 276.547 123.306 276.547 123.306 306.207 101.847 c 0,75,76
 335.023 81 335.023 81 362 81 c 0,77,78
 367.571 81 367.571 81 372.628 83.6548 c 0,52,53
EndSplineSet
Validated: 1
EndChar

StartChar: meeminitial
Encoding: 65251 65251 162
Width: 637
GlyphClass: 2
Flags: W
AnchorPoint: "ArabicBelow" 366 -123 basechar 0
AnchorPoint: "ArabicAbove" 366 416 basechar 0
LayerCount: 2
Fore
SplineSet
425 80 m 0,0,1
 438.214 80 438.214 80 446.115 87.9014 c 128,-1,2
 454.016 95.8027 454.016 95.8027 455.566 106.651 c 0,3,4
 455.596 106.858 455.596 106.858 455.994 112.834 c 2,5,-1
 456 114.833 l 1,6,-1
 456 115.749 l 1,7,-1
 455.025 118.32 l 2,8,9
 442.518 151.277 442.518 151.277 415.956 171.033 c 0,10,11
 395.832 186 395.832 186 374 186 c 0,12,13
 372.5 186 372.5 186 370.996 185.806 c 0,14,15
 357.794 184.102 357.794 184.102 342.034 164.045 c 2,16,-1
 340.508 162.012 l 1,17,-1
 340.252 161.187 l 1,18,-1
 340.065 160.598 l 1,19,20
 338.15 157.297 338.15 157.297 328.994 144.992 c 2,21,-1
 320 133 l 1,22,-1
 332 124 l 2,23,24
 353.083 108.188 353.083 108.188 381.271 94.0942 c 128,-1,25
 409.46 80 409.46 80 425 80 c 0,0,1
481 93 m 0,26,27
 481 58.7236 481 58.7236 471.629 27.2939 c 128,-1,28
 462.297 -4 462.297 -4 451 -4 c 0,29,30
 416.979 -4 416.979 -4 384.171 8.08008 c 0,31,32
 336.949 25.4666 336.949 25.4666 301.123 65.0635 c 2,33,-1
 290.269 77.0605 l 1,34,-1
 279.125 65.332 l 2,35,36
 261.897 47.1997 261.897 47.1997 238.631 34.0654 c 0,37,38
 204.86 15 204.86 15 175 15 c 2,39,-1
 -7 15 l 5,40,-1
 -7 98 l 5,41,-1
 172 98 l 2,42,43
 210.741 98 210.741 98 237.25 112.101 c 0,44,45
 270.096 129.571 270.096 129.571 289.833 158.792 c 2,46,-1
 290.959 160.459 l 2,47,48
 310.261 194.677 310.261 194.677 332.3 226.416 c 0,49,50
 365.34 274 365.34 274 382 274 c 0,51,52
 400.053 274 400.053 274 418.699 261.51 c 0,53,54
 443.728 244.745 443.728 244.745 460.311 207.868 c 0,55,56
 481 161.861 481 161.861 481 93 c 0,26,27
EndSplineSet
Validated: 1
EndChar

StartChar: meemmedial
Encoding: 65252 65252 163
Width: 637
GlyphClass: 2
Flags: W
AnchorPoint: "ArabicBelow" 344 -143 basechar 0
AnchorPoint: "ArabicAbove" 310 416 basechar 0
LayerCount: 2
Fore
SplineSet
643 15 m 5,0,-1
 490 15 l 2,1,2
 456.379 15 456.379 15 434.805 37.4043 c 2,3,4
 409 64.2012 l 1,5,-1
 409 27 l 2,6,7
 409 14.2666 409 14.2666 400.025 -0.486328 c 0,8,9
 393.38 -11.4111 393.38 -11.4111 389.903 -13.4482 c 0,10,11
 389.822 -13.4951 389.822 -13.4951 389.749 -13.5322 c 0,12,13
 388.829 -14 388.829 -14 388 -14 c 0,14,15
 354.93 -14 354.93 -14 320.508 2.51367 c 0,16,17
 280.064 21.9168 280.064 21.9168 253 58 c 2,18,-1
 239.951 75.3975 l 1,19,-1
 228.323 57.0195 l 2,20,21
 201.737 15 201.737 15 143 15 c 2,22,-1
 -8 15 l 1,23,-1
 -8 98 l 1,24,-1
 136 98 l 2,25,26
 175.956 98 175.956 98 199.636 114.739 c 0,27,28
 228.845 135.387 228.845 135.387 247.238 169.947 c 2,29,-1
 280.142 231.771 l 2,30,31
 299.423 268 299.423 268 325 268 c 0,32,33
 348.298 268 348.298 268 371.304 231.013 c 2,34,-1
 422.369 148.911 l 2,35,36
 454.035 98 454.035 98 500 98 c 2,37,-1
 643 98 l 5,38,-1
 643 15 l 5,0,-1
323.015 90.7222 m 128,-1,40
 350.459 77 350.459 77 363 77 c 0,41,42
 382.386 77 382.386 77 396.889 95.8545 c 2,43,-1
 402.729 103.445 l 1,44,-1
 398.299 111.938 l 2,45,46
 385.093 137.252 385.093 137.252 362.479 158.126 c 128,-1,47
 339.865 179 339.865 179 321 179 c 0,48,49
 319.644 179 319.644 179 318.302 178.896 c 128,-1,50
 316.96 178.791 316.96 178.791 315.642 178.586 c 128,-1,51
 314.324 178.381 314.324 178.381 312.988 178.064 c 0,52,53
 300.754 175.175 300.754 175.175 290.542 163.663 c 0,54,55
 285.221 157.664 285.221 157.664 274.766 138.06 c 2,56,-1
 269.16 127.552 l 1,57,-1
 278.123 119.712 l 2,58,39
 295.57 104.444 295.57 104.444 323.015 90.7222 c 128,-1,40
EndSplineSet
Validated: 1
EndChar

StartChar: noonfinal
Encoding: 65254 65254 165
Width: 637
GlyphClass: 2
Flags: W
AnchorPoint: "ArabicBelow" 174 -299 basechar 0
AnchorPoint: "ArabicAbove" 240 410 basechar 0
LayerCount: 2
Fore
SplineSet
312 257 m 1,0,-1
 255 200 l 1,1,-1
 193 262 l 1,2,-1
 250 319 l 1,3,-1
 312 257 l 1,0,-1
  Spiro
    312 257 v
    255 200 v
    193 262 v
    250 319 v
    0 0 z
  EndSpiro
478.438 45.8301 m 1,4,-1
 481 6 l 0,5,6
 481.428 -28.3599 481.428 -28.3599 473.034 -63 c 0,7,8
 458.61 -89.9655 458.61 -89.9655 424 -114.734 c 0,9,10
 395.173 -129.587 395.173 -129.587 354 -142.867 c 0,11,12
 318.622 -152.201 318.622 -152.201 274.723 -160.391 c 0,13,14
 214.576 -168.198 214.576 -168.198 167.603 -165 c 0,15,16
 124.404 -156.221 124.404 -156.221 94 -137.787 c 0,17,18
 67.7633 -113.283 67.7633 -113.283 53.817 -81 c 0,19,20
 42.9921 -24.8481 42.9921 -24.8481 53.5292 39 c 0,21,22
 67.258 88.7035 67.258 88.7035 88.3614 135.83 c 1,23,24
 75.7023 80.7941 75.7023 80.7941 73.0596 36 c 0,25,26
 77.1956 -12.5502 77.1956 -12.5502 99 -45.6957 c 0,27,28
 116.869 -62.1266 116.869 -62.1266 142 -72.9908 c 0,29,30
 169.456 -80.7755 169.456 -80.7755 204 -83.5872 c 0,31,32
 248.158 -83.7746 248.158 -83.7746 302.332 -77.5259 c 0,33,34
 334.735 -73.4402 334.735 -73.4402 397 -53.5953 c 0,35,36
 427.462 -39.1868 427.462 -39.1868 453.332 -17.668 c 0,37,-1
 462.5 -6.5 l 1,38,-1
 462 4.5 l 0,39,40
 453.833 41.3333 453.833 41.3333 440.961 72.877 c 0,41,-1
 423.665 101.805 l 2,42,43
 416.63 112.764 416.63 112.764 407.143 125.504 c 1,44,-1
 437.526 201.802 l 1,45,46
 453.402 177.186 453.402 177.186 466.84 158 c 0,47,48
 489.799 129.118 489.799 129.118 515 113.61 c 0,49,50
 537.683 105.063 537.683 105.063 569 101.107 c 0,51,52
 600.629 98.9346 600.629 98.9346 643 98.0693 c 1,53,-1
 643 15 l 1,54,-1
 561 15 l 2,55,56
 527.167 18.8328 527.167 18.8328 501.718 31.8623 c 2,57,-1
 478.438 45.8301 l 1,4,-1
  Spiro
    478.438 45.8301 v
    481 6 [
    475.643 -55.6142 o
    424.984 -114.159 o
    274.723 -160.391 o
    90.9753 -135.452 o
    45.9667 -13.6171 o
    88.3614 135.83 v
    77.3562 -3.27361 o
    144.325 -73.7847 o
    302.332 -77.5259 o
    338.305 -71.5046 o
    396.794 -53.6818 o
    453.332 -17.668 ]
    462.5 -6.5 v
    462 4.5 [
    455.818 31.7907 o
    450.278 49.111 o
    440.961 72.877 o
    423.665 101.805 ]
    418.89 109.163 o
    413.552 116.958 o
    407.143 125.504 v
    437.526 201.802 v
    487.814 132.969 o
    542.995 104.732 o
    643 98.0693 v
    643 15 v
    561 15 ]
    538.519 17.3235 o
    518.612 23.4106 o
    501.718 31.8623 [
    0 0 z
  EndSpiro
EndSplineSet
Validated: 33
EndChar

StartChar: nooninitial
Encoding: 65255 65255 166
Width: 637
GlyphClass: 2
Flags: W
AnchorPoint: "ArabicBelow" 341 -116 basechar 0
AnchorPoint: "ArabicAbove" 304 585.5 basechar 0
LayerCount: 2
Fore
SplineSet
377 412 m 1,0,-1
 320 355 l 1,1,-1
 258 417 l 1,2,-1
 315 474 l 1,3,-1
 377 412 l 1,0,-1
404 97 m 2,4,-1
 404 15 l 1,5,-1
 -9 15 l 1,6,-1
 -9 98 l 1,7,-1
 372 98 l 1,8,-1
 372 113 l 2,9,10
 372 144.913 372 144.913 351.796 177.825 c 0,11,12
 345.373 188.287 345.373 188.287 326.806 212.709 c 1,13,-1
 352.375 286.724 l 1,14,15
 368.015 260.019 368.015 260.019 380.874 223.955 c 0,16,17
 404 159.1 404 159.1 404 97 c 2,4,-1
EndSplineSet
Validated: 1
EndChar

StartChar: noonmedial
Encoding: 65256 65256 167
Width: 637
GlyphClass: 2
Flags: W
AnchorPoint: "ArabicBelow" 369 -109 basechar 0
AnchorPoint: "ArabicAbove" 246 546 basechar 0
LayerCount: 2
Fore
SplineSet
312 388 m 1,0,-1
 255 331 l 1,1,-1
 193 393 l 1,2,-1
 250 450 l 1,3,-1
 312 388 l 1,0,-1
-8 15 m 1,4,-1
 -8 98 l 1,5,-1
 320 98 l 1,6,-1
 320 113 l 2,7,8
 320 143.056 320 143.056 296.957 182.559 c 0,9,10
 290.883 192.971 290.883 192.971 279.761 210.579 c 1,11,-1
 307.293 280.067 l 1,12,13
 312.446 270.084 312.446 270.084 316.443 261.583 c 0,14,15
 335.543 220.95 335.543 220.95 342.5 191.519 c 128,-1,16
 349.456 162.087 349.456 162.087 364.893 141.148 c 0,17,18
 396.701 98 396.701 98 458 98 c 2,19,-1
 644 98 l 5,20,-1
 644 15 l 5,21,-1
 438 15 l 2,22,23
 416.353 15 416.353 15 393.788 25.6187 c 128,-1,24
 371.223 36.2374 371.223 36.2374 359.288 49.8779 c 2,25,-1
 333 79.9219 l 1,26,-1
 333 15 l 1,27,-1
 -8 15 l 1,4,-1
EndSplineSet
Validated: 1
EndChar

StartChar: hehfinal
Encoding: 65258 65258 169
Width: 637
GlyphClass: 2
Flags: W
AnchorPoint: "ArabicBelow" 283 -68 basechar 0
AnchorPoint: "ArabicAbove" 283 532 basechar 0
LayerCount: 2
Fore
SplineSet
642 15 m 5,0,-1
 440 15 l 2,1,2
 401.757 15 401.757 15 379.348 47.5156 c 0,3,4
 360 75.5898 360 75.5898 360 104 c 0,5,6
 360 116.339 360 116.339 353.012 117.712 c 128,-1,7
 346.023 119.086 346.023 119.086 344.293 119.086 c 0,8,9
 334.964 119.086 334.964 119.086 331.116 109.679 c 0,10,11
 324.063 92.4365 324.063 92.4365 302.445 74.5605 c 0,12,13
 276.373 53 276.373 53 250 53 c 0,14,15
 218.398 53 218.398 53 187.699 85.0146 c 128,-1,16
 157 117.029 157 117.029 157 151 c 0,17,18
 157 175.647 157 175.647 180.216 208.294 c 0,19,20
 199.002 234.711 199.002 234.711 234.624 264.494 c 0,21,22
 259.576 285.356 259.576 285.356 291.32 306.52 c 2,23,-1
 301.977 313.624 l 1,24,-1
 283.988 352.776 l 1,25,-1
 325.329 394.116 l 1,26,27
 333.361 373.112 333.361 373.112 343.508 335.135 c 0,28,29
 360.218 272.587 360.218 272.587 366.198 235.578 c 0,30,31
 377.954 162.831 377.954 162.831 394.452 137.781 c 0,32,33
 420.652 98 420.652 98 477 98 c 2,34,-1
 642 98 l 5,35,-1
 642 15 l 5,0,-1
261 138 m 0,36,37
 287.824 138 287.824 138 310.021 149.744 c 0,38,39
 327.149 158.808 327.149 158.808 341.992 174.793 c 2,40,-1
 346 179.109 l 1,41,-1
 346 185 l 2,42,43
 346 200.877 346 200.877 334.453 216.755 c 128,-1,44
 322.905 232.633 322.905 232.633 315.052 238.13 c 0,45,46
 306.865 243.86 306.865 243.86 298.079 243.999 c 0,47,48
 297.505 244.009 297.505 244.009 296.928 244.009 c 0,49,50
 271.161 244.009 271.161 244.009 237.8 225.659 c 128,-1,51
 204.438 207.31 204.438 207.31 193.382 190.11 c 2,52,-1
 186.269 179.047 l 1,53,-1
 196.312 170.549 l 2,54,55
 210.323 158.692 210.323 158.692 228.142 148.346 c 128,-1,56
 245.961 138 245.961 138 261 138 c 0,36,37
EndSplineSet
Validated: 1
EndChar

